<svg id="Layer_3" data-name="Layer 3" xmlns="http://www.w3.org/2000/svg" xmlns:xlink="http://www.w3.org/1999/xlink" viewBox="0 0 1280 1280"><defs><style>.cls-1{fill:url(#radial-gradient);}</style><radialGradient id="radial-gradient" cx="643.44" cy="722.29" r="183.42" gradientUnits="userSpaceOnUse"><stop offset="0" stop-color="#fff"/><stop offset="0.41" stop-color="#fdfdfd"/><stop offset="0.6" stop-color="#f6f6f6"/><stop offset="0.74" stop-color="#e9e9e9"/><stop offset="0.86" stop-color="#d7d7d7"/><stop offset="0.96" stop-color="silver"/><stop offset="1" stop-color="#b5b5b5"/></radialGradient></defs><path class="cls-1" d="M639.52,908.34a39.87,39.87,0,0,1-14.08-2.56C563,882.35,520.65,843.49,495.84,787,474.51,738.44,465,676,465,584.63c0-3.65-.19-8-.4-12.65-1.22-27.69-3.06-69.53,28-102.05C520.94,440.37,569.14,426,640,426s119.06,14.37,147.35,43.93c31.11,32.52,29.27,74.36,28,102.05-.21,4.63-.4,9-.4,12.65,0,81.06-4.64,145.9-27.26,198.91-23.57,55.21-65.81,93.9-132.94,121.76A39.6,39.6,0,0,1,639.52,908.34Z"/><path d="M640,442c182,0,159,99.44,159,142.63,0,160.26-19.16,251.46-150.33,305.89a23.93,23.93,0,0,1-17.6.28C509.61,845.19,481,744.51,481,584.63,481,541.44,458,442,640,442m0-32c-75.46,0-127.44,16-158.91,48.87-35.84,37.45-33.73,85.26-32.47,113.82.19,4.44.38,8.64.38,11.94,0,93.72,9.93,158.11,32.19,208.8,26.63,60.65,72,102.3,138.63,127.33a55.92,55.92,0,0,0,41.12-.69c71.23-29.56,116.2-71,141.51-130.25C826.15,734.32,831,667.65,831,584.63c0-3.3.19-7.5.38-11.94,1.26-28.56,3.37-76.37-32.47-113.82C767.44,426,715.46,410,640,410Z"/><circle cx="567.5" cy="705.5" r="30.5"/><path d="M568,692.63s-.39-.11-.63-.16l-.82-.2-1.71-.38c-1.17-.25-2.36-.49-3.56-.71-2.41-.45-4.86-.82-7.34-1.13a76.93,76.93,0,0,0-15.12-.5,67.74,67.74,0,0,0-15.21,2.81A65.89,65.89,0,0,0,509,699a57.05,57.05,0,0,1,5.67-6.09c1-1,2.09-1.87,3.17-2.79s2.24-1.75,3.42-2.54a66.77,66.77,0,0,1,15.35-8,83.7,83.7,0,0,1,17.1-4.31,67.4,67.4,0,0,1,8.89-.64c1.5,0,3,0,4.52.13.76.05,1.53.11,2.3.2l1.19.16c.43.06.75.11,1.36.23Z"/><circle cx="714.5" cy="705.5" r="30.5"/><path d="M710,675.37c.61-.12.93-.17,1.36-.23l1.19-.16c.77-.09,1.54-.15,2.3-.2,1.52-.1,3-.15,4.52-.13a67.4,67.4,0,0,1,8.89.64,83.7,83.7,0,0,1,17.1,4.31,66.77,66.77,0,0,1,15.35,8c1.18.79,2.3,1.68,3.42,2.54s2.17,1.8,3.17,2.79A57.05,57.05,0,0,1,773,699a65.89,65.89,0,0,0-14.64-6.64,67.74,67.74,0,0,0-15.21-2.81,76.93,76.93,0,0,0-15.12.5c-2.48.31-4.93.68-7.34,1.13-1.2.22-2.39.46-3.56.71l-1.71.38-.82.2c-.24,0-.58.14-.63.16Z"/></svg>