<svg id="Layer_3" data-name="Layer 3" xmlns="http://www.w3.org/2000/svg" xmlns:xlink="http://www.w3.org/1999/xlink" viewBox="0 0 1280 1280"><defs><style>.cls-1{fill:url(#radial-gradient);}</style><radialGradient id="radial-gradient" cx="643.44" cy="721.31" r="183.76" gradientUnits="userSpaceOnUse"><stop offset="0" stop-color="#fff"/><stop offset="0.41" stop-color="#fdfdfd"/><stop offset="0.6" stop-color="#f6f6f6"/><stop offset="0.74" stop-color="#e9e9e9"/><stop offset="0.86" stop-color="#d7d7d7"/><stop offset="0.96" stop-color="silver"/><stop offset="1" stop-color="#b5b5b5"/></radialGradient></defs><path class="cls-1" d="M640,908c-32.49,0-61.22-9.68-85.38-28.76-21.76-17.18-39.86-42.12-53.79-74.14C477.05,750.46,465,675.61,465,582.63c0-3.65-.19-8-.4-12.65-1.22-27.69-3.06-69.53,28-102.05C520.94,438.37,569.14,424,640,424s119.06,14.37,147.35,43.93c31.11,32.52,29.27,74.36,28,102.05-.21,4.63-.4,9-.4,12.65,0,93-12,167.83-35.83,222.47-13.93,32-32,57-53.79,74.14C701.22,898.32,672.49,908,640,908Z"/><path d="M640,440c182,0,159,99.44,159,142.63C799,746.36,760,892,640,892S481,746.36,481,582.63C481,539.44,458,440,640,440m0-32c-75.46,0-127.44,16-158.91,48.86-35.84,37.46-33.73,85.27-32.47,113.83.19,4.44.38,8.64.38,11.94,0,95.19,12.5,172.19,37.16,228.85C526.63,904.48,592.15,924,640,924s113.37-19.52,153.84-112.52C818.5,754.82,831,677.82,831,582.63c0-3.3.19-7.5.38-11.94,1.26-28.56,3.37-76.37-32.47-113.83C767.44,424,715.46,408,640,408Z"/><circle cx="567.5" cy="703.5" r="30.5"/><path d="M568,690.63s-.39-.11-.63-.16l-.82-.2-1.71-.38c-1.17-.25-2.36-.49-3.56-.71-2.41-.45-4.86-.82-7.34-1.13a76.93,76.93,0,0,0-15.12-.5,67.74,67.74,0,0,0-15.21,2.81A65.89,65.89,0,0,0,509,697a57.05,57.05,0,0,1,5.67-6.09c1-1,2.09-1.87,3.17-2.79s2.24-1.75,3.42-2.54a66.77,66.77,0,0,1,15.35-8,83.7,83.7,0,0,1,17.1-4.31,67.4,67.4,0,0,1,8.89-.64c1.5,0,3,0,4.52.13.76.05,1.53.11,2.3.2l1.19.16c.43.06.75.11,1.36.23Z"/><circle cx="714.5" cy="703.5" r="30.5"/><path d="M710,673.37c.61-.12.93-.17,1.36-.23l1.19-.16c.77-.09,1.54-.15,2.3-.2,1.52-.1,3-.15,4.52-.13a67.4,67.4,0,0,1,8.89.64,83.7,83.7,0,0,1,17.1,4.31,66.77,66.77,0,0,1,15.35,8c1.18.79,2.3,1.68,3.42,2.54s2.17,1.8,3.17,2.79A57.05,57.05,0,0,1,773,697a65.89,65.89,0,0,0-14.64-6.64,67.74,67.74,0,0,0-15.21-2.81,76.93,76.93,0,0,0-15.12.5c-2.48.31-4.93.68-7.34,1.13-1.2.22-2.39.46-3.56.71l-1.71.38-.82.2c-.24,0-.58.14-.63.16Z"/></svg>