<svg id="Layer_3" data-name="Layer 3" xmlns="http://www.w3.org/2000/svg" xmlns:xlink="http://www.w3.org/1999/xlink" viewBox="0 0 1280 1280"><defs><style>.cls-1{fill:url(#radial-gradient);}</style><radialGradient id="radial-gradient" cx="638.73" cy="763.93" r="211.59" gradientUnits="userSpaceOnUse"><stop offset="0" stop-color="#fff"/><stop offset="0.41" stop-color="#fdfdfd"/><stop offset="0.6" stop-color="#f6f6f6"/><stop offset="0.74" stop-color="#e9e9e9"/><stop offset="0.86" stop-color="#d7d7d7"/><stop offset="0.96" stop-color="silver"/><stop offset="1" stop-color="#b5b5b5"/></radialGradient></defs><path class="cls-1" d="M640,876c-81.71,0-135.15-15.54-168.17-48.91-43.07-43.53-42.37-110.18-41.63-180.75.1-9.56.2-19.45.2-29.34,0-34.14,6-64.65,17.78-90.68A161.47,161.47,0,0,1,496.29,465c36.06-28.14,85.76-43,143.71-43s107.65,14.87,143.71,43a161.47,161.47,0,0,1,48.11,61.31c11.8,26,17.78,56.54,17.78,90.68,0,9.89.1,19.78.2,29.34.74,70.57,1.44,137.22-41.63,180.75C775.15,860.46,721.71,876,640,876Z"/><path d="M640,438c98.84,0,193.6,46,193.6,179S851.94,860,640,860,446.4,750,446.4,617,541.16,438,640,438m0-32c-61.55,0-114.65,16-153.55,46.4a177.12,177.12,0,0,0-52.85,67.32c-12.74,28.12-19.2,60.85-19.2,97.28,0,9.81-.1,19.65-.2,29.17-.38,36.05-.74,70.1,4.23,101.53,6.09,38.57,19.84,68.22,42,90.64,18.3,18.5,41.75,31.8,71.68,40.67,29.48,8.74,64.76,13,107.86,13s78.38-4.25,107.86-13c29.93-8.87,53.38-22.17,71.68-40.67,22.19-22.42,35.94-52.07,42-90.64,5-31.43,4.61-65.48,4.23-101.53-.1-9.52-.2-19.36-.2-29.17,0-36.43-6.46-69.16-19.2-97.28a177.12,177.12,0,0,0-52.85-67.32C754.65,422,701.55,406,640,406Z"/><circle cx="568.5" cy="702.5" r="30.5"/><path d="M569,689.63s-.39-.11-.63-.16l-.82-.2-1.71-.38c-1.17-.25-2.36-.49-3.56-.71-2.41-.45-4.86-.82-7.34-1.13a76.93,76.93,0,0,0-15.12-.5,67.74,67.74,0,0,0-15.21,2.81A65.89,65.89,0,0,0,510,696a57.05,57.05,0,0,1,5.67-6.09c1-1,2.09-1.87,3.17-2.79s2.24-1.75,3.42-2.54a66.77,66.77,0,0,1,15.35-8,83.7,83.7,0,0,1,17.1-4.31,67.4,67.4,0,0,1,8.89-.64c1.5,0,3,0,4.52.13.76.05,1.53.11,2.3.2l1.19.16c.43.06.75.11,1.36.23Z"/><circle cx="711.5" cy="702.5" r="30.5"/><path d="M707,672.37c.61-.12.93-.17,1.36-.23l1.19-.16c.77-.09,1.54-.15,2.3-.2,1.52-.1,3-.15,4.52-.13a67.4,67.4,0,0,1,8.89.64,83.7,83.7,0,0,1,17.1,4.31,66.77,66.77,0,0,1,15.35,8c1.18.79,2.3,1.68,3.42,2.54s2.17,1.8,3.17,2.79A57.05,57.05,0,0,1,770,696a65.89,65.89,0,0,0-14.64-6.64,67.74,67.74,0,0,0-15.21-2.81,76.93,76.93,0,0,0-15.12.5c-2.48.31-4.93.68-7.34,1.13-1.2.22-2.39.46-3.56.71l-1.71.38-.82.2c-.24,0-.58.14-.63.16Z"/></svg>