<svg id="Layer_3" data-name="Layer 3" xmlns="http://www.w3.org/2000/svg" xmlns:xlink="http://www.w3.org/1999/xlink" viewBox="0 0 1280 1280"><defs><style>.cls-1{fill:url(#radial-gradient);}</style><radialGradient id="radial-gradient" cx="781.72" cy="689.06" r="223.74" gradientTransform="translate(-12.27 -115.32) scale(1.01 1.17)" gradientUnits="userSpaceOnUse"><stop offset="0" stop-color="#fff"/><stop offset="0.41" stop-color="#fdfdfd"/><stop offset="0.6" stop-color="#f6f6f6"/><stop offset="0.74" stop-color="#e9e9e9"/><stop offset="0.86" stop-color="#d7d7d7"/><stop offset="0.96" stop-color="silver"/><stop offset="1" stop-color="#b5b5b5"/></radialGradient></defs><path class="cls-1" d="M696.19,864c-83.92,0-155.09-24-205.82-69.32A223.3,223.3,0,0,1,433.62,716C420.6,685.7,414,652.41,414,617c0-14.72,2.5-66.45,34.65-114A178.5,178.5,0,0,1,517,443.25C550.19,426.49,590.69,418,637.37,418s87.69,8.8,121.55,26.17a189.46,189.46,0,0,1,70.6,62c36.36,53,38.2,110.76,38.2,121.8s.32,22.7.63,33.92c1.62,58.42,3.3,118.83-36.13,159.36C804.27,850,759.77,864,696.19,864Z"/><path d="M637.37,434c191.42,0,214.35,152,214.35,194,0,102,25.92,220-155.53,220C530.69,848,430,751,430,617c0-36,15.95-183,207.37-183m0-32c-49.21,0-92.13,9.07-127.58,27a194.41,194.41,0,0,0-74.39,65.11C400.7,545.35,398,601.13,398,617c0,37.6,7,73,20.93,105.28a239.16,239.16,0,0,0,60.78,84.33c53.7,48,128.56,73.39,216.48,73.39,68.13,0,116.37-15.56,147.5-47.56,20.42-21,32.89-48.46,38.12-84,4.16-28.25,3.34-58.12,2.54-87-.33-11.62-.63-22.6-.63-33.48,0-9.81-1-30.13-7.57-55.94a234,234,0,0,0-33.43-74.91,205.4,205.4,0,0,0-76.5-67.22C730.08,411.4,686.73,402,637.37,402Z"/><circle cx="798.5" cy="701.5" r="30.5"/><path d="M799,688.63s-.39-.11-.63-.16l-.82-.2-1.71-.38c-1.17-.25-2.36-.49-3.56-.71-2.41-.45-4.86-.82-7.34-1.13a76.93,76.93,0,0,0-15.12-.5,67.74,67.74,0,0,0-15.21,2.81A65.89,65.89,0,0,0,740,695a57.05,57.05,0,0,1,5.67-6.09c1-1,2.09-1.87,3.17-2.79s2.24-1.75,3.42-2.54a66.77,66.77,0,0,1,15.35-8,83.7,83.7,0,0,1,17.1-4.31,67.4,67.4,0,0,1,8.89-.64c1.5,0,3,0,4.52.13.76.05,1.53.11,2.3.2l1.19.16c.43.06.75.11,1.36.23Z"/></svg>