<svg id="Layer_3" data-name="Layer 3" xmlns="http://www.w3.org/2000/svg" xmlns:xlink="http://www.w3.org/1999/xlink" viewBox="0 0 1280 1280"><defs><style>.cls-1{fill:url(#radial-gradient);}</style><radialGradient id="radial-gradient" cx="639.15" cy="704.37" r="228.94" gradientTransform="translate(0 5.68) scale(1 0.99)" gradientUnits="userSpaceOnUse"><stop offset="0" stop-color="#b5b5b5"/><stop offset="0.42" stop-color="#b7b7b7"/><stop offset="0.6" stop-color="#bebebe"/><stop offset="0.74" stop-color="#cbcbcb"/><stop offset="0.86" stop-color="#ddd"/><stop offset="0.97" stop-color="#f4f4f4"/><stop offset="1" stop-color="#fefefe"/></radialGradient></defs><path class="cls-1" d="M640,879c-86.46,0-149.64-44-182.71-127.3-16.42-41.35-25.09-91.23-25.08-144.25V607c0-1.23,0-2.75-.08-4.52-.51-23.47-1.88-85.8,44.28-133C511.8,433.35,566.84,415,640,415s128.2,18.35,163.59,54.53c46.16,47.19,44.79,109.52,44.28,133,0,1.77-.08,3.29-.08,4.52v.41c0,53-8.66,102.9-25.08,144.25C789.64,835,726.46,879,640,879Z"/><path d="M640,431c206,0,191.79,149.73,191.79,176s1,256-191.79,256S448.21,633.34,448.21,607,434,431,640,431m0-32c-77.62,0-136.51,20-175,59.34-22,22.52-36.83,50.83-44,84.13-5.6,26-5.11,48.39-4.84,60.4,0,1.71.07,3.2.07,4.17v.4c0,55,9.05,106.95,26.21,150.17,15.75,39.66,38.15,71.4,66.59,94.33C544.43,880.51,588.5,895,640,895s95.57-14.49,131-43.06c28.44-22.93,50.84-54.67,66.59-94.33,17.16-43.22,26.22-95.14,26.21-150.17V607c0-1,0-2.46.07-4.17.27-12,.76-34.37-4.84-60.4-7.16-33.3-22-61.61-44-84.13C776.51,419,717.62,399,640,399Z"/></svg>