<svg id="Layer_3" data-name="Layer 3" xmlns="http://www.w3.org/2000/svg" xmlns:xlink="http://www.w3.org/1999/xlink" viewBox="0 0 1280 1280"><defs><style>.cls-1{fill:url(#radial-gradient);}</style><radialGradient id="radial-gradient" cx="643.44" cy="721.31" r="218.76" gradientUnits="userSpaceOnUse"><stop offset="0" stop-color="#b5b5b5"/><stop offset="0.42" stop-color="#b7b7b7"/><stop offset="0.6" stop-color="#bebebe"/><stop offset="0.74" stop-color="#cbcbcb"/><stop offset="0.86" stop-color="#ddd"/><stop offset="0.97" stop-color="#f4f4f4"/><stop offset="1" stop-color="#fefefe"/></radialGradient></defs><path class="cls-1" d="M640,908c-32.49,0-61.22-9.68-85.38-28.76-21.76-17.18-39.86-42.12-53.79-74.14C477.05,750.46,465,675.61,465,582.63c0-3.65-.19-8-.4-12.65-1.22-27.69-3.06-69.53,28-102.05C520.94,438.37,569.14,424,640,424s119.06,14.37,147.35,43.93c31.11,32.52,29.27,74.36,28,102.05-.21,4.63-.4,9-.4,12.65,0,93-12,167.83-35.83,222.47-13.93,32-32,57-53.79,74.14C701.22,898.32,672.49,908,640,908Z"/><path d="M640,440c182,0,159,99.44,159,142.63C799,746.36,760,892,640,892S481,746.36,481,582.63C481,539.44,458,440,640,440m0-32c-75.46,0-127.44,16-158.91,48.86-35.84,37.46-33.73,85.27-32.47,113.83.19,4.44.38,8.64.38,11.94,0,95.19,12.5,172.19,37.16,228.85C526.63,904.48,592.15,924,640,924s113.37-19.52,153.84-112.52C818.5,754.82,831,677.82,831,582.63c0-3.3.19-7.5.38-11.94,1.26-28.56,3.37-76.37-32.47-113.83C767.44,424,715.46,408,640,408Z"/></svg>