<svg id="Layer_3" data-name="Layer 3" xmlns="http://www.w3.org/2000/svg" xmlns:xlink="http://www.w3.org/1999/xlink" viewBox="0 0 1280 1280"><defs><style>.cls-1{fill:url(#radial-gradient);}</style><radialGradient id="radial-gradient" cx="640.15" cy="704.37" r="185.61" gradientTransform="translate(0 34.74) scale(1 0.95)" gradientUnits="userSpaceOnUse"><stop offset="0" stop-color="#fff"/><stop offset="0.41" stop-color="#fdfdfd"/><stop offset="0.6" stop-color="#f6f6f6"/><stop offset="0.74" stop-color="#e9e9e9"/><stop offset="0.86" stop-color="#d7d7d7"/><stop offset="0.96" stop-color="silver"/><stop offset="1" stop-color="#b5b5b5"/></radialGradient></defs><path class="cls-1" d="M641,879c-86.46,0-149.64-44-182.71-127.3-16.42-41.35-25.09-91.23-25.08-144.25V607c0-1.23,0-2.75-.08-4.52-.51-23.47-1.88-85.8,44.28-133C512.8,433.35,567.84,415,641,415s128.2,18.35,163.59,54.53c46.16,47.19,44.79,109.52,44.28,133,0,1.77-.08,3.29-.08,4.52v.41c0,53-8.66,102.9-25.08,144.25C790.64,835,727.46,879,641,879Z"/><path d="M641,431c206,0,191.79,149.73,191.79,176s1,256-191.79,256S449.21,633.34,449.21,607,435,431,641,431m0-32c-77.62,0-136.51,20-175,59.34-22,22.52-36.83,50.83-44,84.13-5.6,26-5.11,48.39-4.84,60.4,0,1.71.07,3.2.07,4.17v.4c0,55,9.05,106.95,26.21,150.17,15.75,39.66,38.15,71.4,66.59,94.33C545.43,880.51,589.5,895,641,895s95.57-14.49,131-43.06c28.44-22.93,50.84-54.67,66.59-94.33,17.16-43.22,26.22-95.14,26.21-150.17V607c0-1,0-2.46.07-4.17.27-12,.76-34.37-4.84-60.4-7.16-33.3-22-61.61-44-84.13C777.51,419,718.62,399,641,399Z"/><circle cx="712.5" cy="704.5" r="30.5"/><path d="M708,674.37c.61-.12.93-.17,1.36-.23l1.19-.16c.77-.09,1.54-.15,2.3-.2,1.52-.1,3-.15,4.52-.13a67.4,67.4,0,0,1,8.89.64,83.7,83.7,0,0,1,17.1,4.31,66.77,66.77,0,0,1,15.35,8c1.18.79,2.3,1.68,3.42,2.54s2.17,1.8,3.17,2.79A57.05,57.05,0,0,1,771,698a65.89,65.89,0,0,0-14.64-6.64,67.74,67.74,0,0,0-15.21-2.81,76.93,76.93,0,0,0-15.12.5c-2.48.31-4.93.68-7.34,1.13-1.2.22-2.39.46-3.56.71l-1.71.38-.82.2c-.24,0-.58.14-.63.16Z"/><circle cx="566.5" cy="704.5" r="30.5"/><path d="M567,691.63s-.39-.11-.63-.16l-.82-.2-1.71-.38c-1.17-.25-2.36-.49-3.56-.71-2.41-.45-4.86-.82-7.34-1.13a76.93,76.93,0,0,0-15.12-.5,67.74,67.74,0,0,0-15.21,2.81A65.89,65.89,0,0,0,508,698a57.05,57.05,0,0,1,5.67-6.09c1-1,2.09-1.87,3.17-2.79s2.24-1.75,3.42-2.54a66.77,66.77,0,0,1,15.35-8,83.7,83.7,0,0,1,17.1-4.31,67.4,67.4,0,0,1,8.89-.64c1.5,0,3,0,4.52.13.76.05,1.53.11,2.3.2l1.19.16c.43.06.75.11,1.36.23Z"/></svg>