<svg id="Layer_3" data-name="Layer 3" xmlns="http://www.w3.org/2000/svg" xmlns:xlink="http://www.w3.org/1999/xlink" viewBox="0 0 1280 1280"><defs><style>.cls-1{fill:url(#radial-gradient);}</style><radialGradient id="radial-gradient" cx="638.73" cy="763.93" r="273.96" gradientUnits="userSpaceOnUse"><stop offset="0" stop-color="#b5b5b5"/><stop offset="0.42" stop-color="#b7b7b7"/><stop offset="0.6" stop-color="#bebebe"/><stop offset="0.74" stop-color="#cbcbcb"/><stop offset="0.86" stop-color="#ddd"/><stop offset="0.97" stop-color="#f4f4f4"/><stop offset="1" stop-color="#fefefe"/></radialGradient></defs><path class="cls-1" d="M640,876c-81.71,0-135.15-15.54-168.17-48.91-43.07-43.53-42.37-110.18-41.63-180.75.1-9.56.2-19.45.2-29.34,0-34.14,6-64.65,17.78-90.68A161.47,161.47,0,0,1,496.29,465c36.06-28.14,85.76-43,143.71-43s107.65,14.87,143.71,43a161.47,161.47,0,0,1,48.11,61.31c11.8,26,17.78,56.54,17.78,90.68,0,9.89.1,19.78.2,29.34.74,70.57,1.44,137.22-41.63,180.75C775.15,860.46,721.71,876,640,876Z"/><path d="M640,438c98.84,0,193.6,46,193.6,179S851.94,860,640,860,446.4,750,446.4,617,541.16,438,640,438m0-32c-61.55,0-114.65,16-153.55,46.4a177.12,177.12,0,0,0-52.85,67.32c-12.74,28.12-19.2,60.85-19.2,97.28,0,9.81-.1,19.65-.2,29.17-.38,36.05-.74,70.1,4.23,101.53,6.09,38.57,19.84,68.22,42,90.64,18.3,18.5,41.75,31.8,71.68,40.67,29.48,8.74,64.76,13,107.86,13s78.38-4.25,107.86-13c29.93-8.87,53.38-22.17,71.68-40.67,22.19-22.43,35.94-52.07,42-90.64,5-31.43,4.61-65.48,4.23-101.53-.1-9.52-.2-19.36-.2-29.17,0-36.43-6.46-69.16-19.2-97.28a177.12,177.12,0,0,0-52.85-67.32C754.65,422,701.55,406,640,406Z"/></svg>