<svg id="Layer_3" data-name="Layer 3" xmlns="http://www.w3.org/2000/svg" xmlns:xlink="http://www.w3.org/1999/xlink" viewBox="0 0 1280 1280"><defs><style>.cls-1{fill:url(#radial-gradient);}</style><radialGradient id="radial-gradient" cx="643.44" cy="722.29" r="221.44" gradientUnits="userSpaceOnUse"><stop offset="0" stop-color="#b5b5b5"/><stop offset="0.42" stop-color="#b7b7b7"/><stop offset="0.6" stop-color="#bebebe"/><stop offset="0.74" stop-color="#cbcbcb"/><stop offset="0.86" stop-color="#ddd"/><stop offset="0.97" stop-color="#f4f4f4"/><stop offset="1" stop-color="#fefefe"/></radialGradient></defs><path class="cls-1" d="M639.52,908.34a39.87,39.87,0,0,1-14.08-2.56C563,882.35,520.65,843.49,495.84,787,474.51,738.44,465,676,465,584.63c0-3.65-.19-8-.4-12.65-1.22-27.69-3.06-69.53,28-102.05C520.94,440.37,569.14,426,640,426s119.06,14.37,147.35,43.93c31.11,32.52,29.27,74.36,28,102.05-.21,4.63-.4,9-.4,12.65,0,81.06-4.64,145.9-27.26,198.91-23.57,55.21-65.81,93.9-132.94,121.76A39.6,39.6,0,0,1,639.52,908.34Z"/><path d="M640,442c182,0,159,99.44,159,142.63,0,160.26-19.16,251.46-150.33,305.89a23.93,23.93,0,0,1-17.6.28C509.61,845.19,481,744.51,481,584.63,481,541.44,458,442,640,442m0-32c-75.46,0-127.44,16-158.91,48.87-35.84,37.45-33.73,85.26-32.47,113.82.19,4.44.38,8.64.38,11.94,0,93.72,9.93,158.11,32.19,208.8,26.63,60.65,72,102.3,138.63,127.33a55.92,55.92,0,0,0,41.12-.69c71.23-29.56,116.2-71,141.51-130.25C826.15,734.32,831,667.65,831,584.63c0-3.3.19-7.5.38-11.94,1.26-28.56,3.37-76.37-32.47-113.82C767.44,426,715.46,410,640,410Z"/></svg>