<svg id="Layer_3" data-name="Layer 3" xmlns="http://www.w3.org/2000/svg" xmlns:xlink="http://www.w3.org/1999/xlink" viewBox="0 0 1280 1280"><defs><style>.cls-1{fill:url(#radial-gradient);}</style><radialGradient id="radial-gradient" cx="638.71" cy="725.35" r="243.6" gradientTransform="translate(0 95.95) scale(1 0.87)" gradientUnits="userSpaceOnUse"><stop offset="0" stop-color="#b5b5b5"/><stop offset="0.42" stop-color="#b7b7b7"/><stop offset="0.6" stop-color="#bebebe"/><stop offset="0.74" stop-color="#cbcbcb"/><stop offset="0.86" stop-color="#ddd"/><stop offset="0.97" stop-color="#f4f4f4"/><stop offset="1" stop-color="#fefefe"/></radialGradient></defs><path class="cls-1" d="M574,906c-26.15,0-53.45-13.69-74.9-37.55C477.43,844.33,465,812.82,465,782V547c0-30.37,10.3-60.62,28.27-83C514,438.2,543.7,424,577,424H703c33.3,0,63,14.2,83.73,40,18,22.39,28.27,52.64,28.27,83V782c0,30.82-12.43,62.33-34.1,86.45C759.45,892.31,732.15,906,706,906Z"/><path d="M703,440c62,0,96,55,96,107V782c0,58-49,108-93,108H574c-44,0-93-50-93-108V547c0-52,34-107,96-107H703m0-32H577c-38.25,0-72.42,16.33-96.21,46C460.59,479.15,449,513.06,449,547V782a140.17,140.17,0,0,0,10.75,53.51,150.91,150.91,0,0,0,27.45,43.63C511.68,906.38,543.32,922,574,922H706c30.68,0,62.32-15.62,86.8-42.86a150.91,150.91,0,0,0,27.45-43.63A140.17,140.17,0,0,0,831,782V547c0-33.94-11.59-67.85-31.79-93-23.79-29.64-58-46-96.21-46Z"/></svg>