<svg id="Layer_3" data-name="Layer 3" xmlns="http://www.w3.org/2000/svg" xmlns:xlink="http://www.w3.org/1999/xlink" viewBox="0 0 1280 1280"><defs><style>.cls-1{fill:url(#radial-gradient);}</style><radialGradient id="radial-gradient" cx="740.77" cy="708.48" r="184.08" gradientTransform="matrix(1.01, 0.1, -0.16, 1.57, 106.47, -479)" gradientUnits="userSpaceOnUse"><stop offset="0" stop-color="#fff"/><stop offset="0.41" stop-color="#fdfdfd"/><stop offset="0.6" stop-color="#f6f6f6"/><stop offset="0.74" stop-color="#e9e9e9"/><stop offset="0.86" stop-color="#d7d7d7"/><stop offset="0.96" stop-color="silver"/><stop offset="1" stop-color="#b5b5b5"/></radialGradient></defs><path class="cls-1" d="M673.7,904c-66.07-1.51-106.8-17.42-132.07-51.57-23.11-31.23-30.55-74.11-40-128.4-6.65-38.3-14.18-81.71-28.78-130.86-.07-.23-.13-.45-.19-.68a123.7,123.7,0,0,1-1.38-53.6c4.36-22.11,14.6-54,38.66-80.12C536.09,430.39,571.45,416,615.07,416c72.62,0,122.69,16.55,153.07,50.6C793.63,495.17,805,534.16,805,593a15.67,15.67,0,0,1-.12,1.94c-13.76,112.62-27.53,183.29-44.62,229.15-9.82,26.34-21.09,45.48-34.47,58.52C711.24,896.8,693.84,904,674.07,904Z"/><path d="M615.07,432C759.5,432,789,499,789,593c-25.43,208-52.89,295-114.93,295-175-4-130.19-112-185.86-299.39A106.93,106.93,0,0,1,487,542c9.13-46.36,40.82-110,128.06-110m0-32c-25,0-48,4.48-68.29,13.32a143.37,143.37,0,0,0-48.58,34.62c-26.59,28.89-37.83,63.73-42.59,87.86a139.77,139.77,0,0,0,1.56,60.57c.11.46.24.91.37,1.35,14.33,48.26,21.78,91.18,28.35,129,9.79,56.37,17.52,100.9,42.88,135.18,14.53,19.64,33.37,33.81,57.6,43.32,23.18,9.1,51.63,13.91,87,14.72h.74c24.09,0,45.25-8.73,62.89-25.93,15.1-14.73,27.63-35.79,38.29-64.39C793,782,806.65,712.33,820.76,596.88A31.45,31.45,0,0,0,821,593c0-28.4-2.58-52.21-7.88-72.79-6.63-25.75-17.44-46.77-33-64.26C746.49,418.3,692.51,400,615.07,400Z"/><circle cx="732.5" cy="709.5" r="30.5"/><path d="M733,696.63s-.39-.11-.63-.16l-.82-.2-1.71-.38c-1.17-.25-2.36-.49-3.56-.71-2.41-.45-4.86-.82-7.34-1.13a76.93,76.93,0,0,0-15.12-.5,67.74,67.74,0,0,0-15.21,2.81A65.89,65.89,0,0,0,674,703a57.05,57.05,0,0,1,5.67-6.09c1-1,2.09-1.87,3.17-2.79s2.24-1.75,3.42-2.54a66.77,66.77,0,0,1,15.35-8,83.7,83.7,0,0,1,17.1-4.31,67.4,67.4,0,0,1,8.89-.64c1.5,0,3,0,4.52.13.76.05,1.53.11,2.3.2l1.19.16c.43.06.75.11,1.36.23Z"/></svg>