<svg id="Layer_3" data-name="Layer 3" xmlns="http://www.w3.org/2000/svg" xmlns:xlink="http://www.w3.org/1999/xlink" viewBox="0 0 1280 1280"><defs><style>.cls-1{fill:url(#radial-gradient);}</style><radialGradient id="radial-gradient" cx="638.71" cy="712.78" r="211.22" gradientUnits="userSpaceOnUse"><stop offset="0" stop-color="#fff"/><stop offset="0.41" stop-color="#fdfdfd"/><stop offset="0.6" stop-color="#f6f6f6"/><stop offset="0.74" stop-color="#e9e9e9"/><stop offset="0.86" stop-color="#d7d7d7"/><stop offset="0.96" stop-color="silver"/><stop offset="1" stop-color="#b5b5b5"/></radialGradient></defs><path class="cls-1" d="M574,906c-26.15,0-53.45-13.69-74.9-37.55C477.43,844.33,465,812.82,465,782V547c0-30.37,10.3-60.62,28.27-83C514,438.2,543.7,424,577,424H703c33.3,0,63,14.2,83.73,40,18,22.39,28.27,52.64,28.27,83V782c0,30.82-12.43,62.33-34.1,86.45C759.45,892.31,732.15,906,706,906Z"/><path d="M703,440c62,0,96,55,96,107V782c0,58-49,108-93,108H574c-44,0-93-50-93-108V547c0-52,34-107,96-107H703m0-32H577c-38.25,0-72.42,16.33-96.21,46C460.59,479.15,449,513.06,449,547V782a140.17,140.17,0,0,0,10.75,53.51,150.91,150.91,0,0,0,27.45,43.63C511.68,906.38,543.32,922,574,922H706c30.68,0,62.32-15.62,86.8-42.86a150.91,150.91,0,0,0,27.45-43.63A140.17,140.17,0,0,0,831,782V547c0-33.94-11.59-67.85-31.79-93-23.79-29.64-58-46-96.21-46Z"/><circle cx="567.5" cy="702.5" r="30.5"/><path d="M568,689.63s-.39-.11-.63-.16l-.82-.2-1.71-.38c-1.17-.25-2.36-.49-3.56-.71-2.41-.45-4.86-.82-7.34-1.13a76.93,76.93,0,0,0-15.12-.5,67.74,67.74,0,0,0-15.21,2.81A65.89,65.89,0,0,0,509,696a57.05,57.05,0,0,1,5.67-6.09c1-1,2.09-1.87,3.17-2.79s2.24-1.75,3.42-2.54a66.77,66.77,0,0,1,15.35-8,83.7,83.7,0,0,1,17.1-4.31,67.4,67.4,0,0,1,8.89-.64c1.5,0,3,0,4.52.13.76.05,1.53.11,2.3.2l1.19.16c.43.06.75.11,1.36.23Z"/><circle cx="713.5" cy="702.5" r="30.5"/><path d="M709,672.37c.61-.12.93-.17,1.36-.23l1.19-.16c.77-.09,1.54-.15,2.3-.2,1.52-.1,3-.15,4.52-.13a67.4,67.4,0,0,1,8.89.64,83.7,83.7,0,0,1,17.1,4.31,66.77,66.77,0,0,1,15.35,8c1.18.79,2.3,1.68,3.42,2.54s2.17,1.8,3.17,2.79A57.05,57.05,0,0,1,772,696a65.89,65.89,0,0,0-14.64-6.64,67.74,67.74,0,0,0-15.21-2.81,76.93,76.93,0,0,0-15.12.5c-2.48.31-4.93.68-7.34,1.13-1.2.22-2.39.46-3.56.71l-1.71.38-.82.2c-.24,0-.58.14-.63.16Z"/></svg>