<svg id="Layer_3" data-name="Layer 3" xmlns="http://www.w3.org/2000/svg" xmlns:xlink="http://www.w3.org/1999/xlink" viewBox="0 0 1280 1280"><defs><style>.cls-1{fill:url(#radial-gradient);}</style><radialGradient id="radial-gradient" cx="794.02" cy="696.94" r="222.88" gradientTransform="matrix(0.97, 0.24, -0.3, 1.18, 230.97, -318.47)" gradientUnits="userSpaceOnUse"><stop offset="0" stop-color="#fff"/><stop offset="0.41" stop-color="#fdfdfd"/><stop offset="0.6" stop-color="#f6f6f6"/><stop offset="0.74" stop-color="#e9e9e9"/><stop offset="0.86" stop-color="#d7d7d7"/><stop offset="0.96" stop-color="silver"/><stop offset="1" stop-color="#b5b5b5"/></radialGradient></defs><path class="cls-1" d="M739,855c-86.89,0-170.1-28.56-234.3-80.43C448.75,729.38,414,671.3,414,623c0-30.29,6.35-88.5,48.86-138,18.93-22.06,42.66-39.28,70.54-51.19C564.13,420.65,600,414,640,414s75.55,6.32,106,18.78c27.64,11.29,51.14,27.63,69.87,48.55C846.48,515.46,864,562.73,864,611a15.68,15.68,0,0,1-.24,2.74c-8.08,46.47-9,85.34-9.73,116.57-1,40.66-1.65,70-16.91,91.79C820.94,845.16,791.59,855,739,855Z"/><path d="M640,430c160,0,208,105,208,181-28,161,28,228-109,228-186,0-309-133-309-216s50-193,210-193m0-32c-42.18,0-80.16,7.08-112.88,21.06-30.16,12.87-55.87,31.54-76.4,55.48a213.61,213.61,0,0,0-40.82,73.34A244.53,244.53,0,0,0,398,623c0,26.57,9.22,56,26.66,85.19,16.88,28.22,41.08,55.48,70,78.83a372.63,372.63,0,0,0,106.63,60A400.12,400.12,0,0,0,739,871c27.68,0,48.49-2.49,65.52-7.85,20.15-6.34,35.1-16.76,45.69-31.86,18-25.72,18.83-58.76,19.81-100.6.73-30.7,1.63-68.91,9.51-114.21A32.44,32.44,0,0,0,880,611a221.65,221.65,0,0,0-11.71-70.67,200.87,200.87,0,0,0-40.45-69.67C807.48,447.91,782,430.19,752.1,418,719.67,404.72,682,398,640,398Z"/><circle cx="796.5" cy="703.5" r="30.5"/><path d="M797,690.63s-.39-.11-.63-.16l-.82-.2-1.71-.38c-1.17-.25-2.36-.49-3.56-.71-2.41-.45-4.86-.82-7.34-1.13a76.93,76.93,0,0,0-15.12-.5,67.74,67.74,0,0,0-15.21,2.81A65.89,65.89,0,0,0,738,697a57.05,57.05,0,0,1,5.67-6.09c1-1,2.09-1.87,3.17-2.79s2.24-1.75,3.42-2.54a66.77,66.77,0,0,1,15.35-8,83.7,83.7,0,0,1,17.1-4.31,67.4,67.4,0,0,1,8.89-.64c1.5,0,3,0,4.52.13.76.05,1.53.11,2.3.2l1.19.16c.43.06.75.11,1.36.23Z"/></svg>