<svg id="Layer_3" data-name="Layer 3" xmlns="http://www.w3.org/2000/svg" xmlns:xlink="http://www.w3.org/1999/xlink" viewBox="0 0 1280 1280"><defs><style>.cls-1{fill:url(#radial-gradient);}</style><radialGradient id="radial-gradient" cx="775.08" cy="697.06" r="213.19" gradientTransform="translate(0 -120.37) scale(1 1.17)" gradientUnits="userSpaceOnUse"><stop offset="0" stop-color="#fff"/><stop offset="0.41" stop-color="#fdfdfd"/><stop offset="0.6" stop-color="#f6f6f6"/><stop offset="0.74" stop-color="#e9e9e9"/><stop offset="0.86" stop-color="#d7d7d7"/><stop offset="0.96" stop-color="silver"/><stop offset="1" stop-color="#b5b5b5"/></radialGradient></defs><path class="cls-1" d="M745.26,857c-8.87,0-18.09-.21-27.85-.44-10.7-.25-21.76-.51-33.41-.51-58.92,0-109.08-6.44-149.09-19.13-36-11.43-64.95-28.28-86-50.09-21.32-22.07-34.67-48.68-40.83-81.33-5.06-26.78-4.18-52-3.47-72.25.21-5.9.4-11.47.4-16.2,0-5.65.86-56.65,30.75-106.93a184,184,0,0,1,67.6-66.71C537.45,423.88,579.39,414,628,414c49.24,0,92.32,10,128.06,29.81,30.69,17,56.09,41.18,75.47,71.9C869.86,576.45,874,644.54,874,671c0,78.52-10,125.73-32.39,153.07C816.75,854.41,778.84,857,745.26,857Z"/><path d="M628,430c200,0,230,171,230,241,0,154.55-39.13,170-112.74,170-18.31,0-38.75-1-61.26-1-294,0-263-160-263-223,0-14,7-187,207-187m0-32c-119.22,0-177.83,56.5-206,103.9-32.06,53.94-33,109-33,115.1,0,4.46-.19,9.89-.39,15.64-1.44,41.42-3.86,110.74,48.78,165.26,22.93,23.74,54.11,42,92.68,54.22C571.64,865.31,623.43,872,684,872c11.46,0,22.43.26,33,.5,9.86.23,19.17.45,28.23.45,17.54,0,38-.71,57.16-6,21.47-5.91,38.34-16.63,51.57-32.77s22.33-37.28,28.08-64.94C887.4,743.59,890,711.45,890,671c0-27.85-4.38-99.56-44.94-163.83-20.84-33-48.17-59.05-81.25-77.35C725.67,408.7,680,398,628,398Z"/><circle cx="789.5" cy="702.5" r="30.5"/><path d="M790,689.63s-.39-.11-.63-.16l-.82-.2-1.71-.38c-1.17-.25-2.36-.49-3.56-.71-2.41-.45-4.86-.82-7.34-1.13a76.93,76.93,0,0,0-15.12-.5,67.74,67.74,0,0,0-15.21,2.81A65.89,65.89,0,0,0,731,696a57.05,57.05,0,0,1,5.67-6.09c1-1,2.09-1.87,3.17-2.79s2.24-1.75,3.42-2.54a66.77,66.77,0,0,1,15.35-8,83.7,83.7,0,0,1,17.1-4.31,67.4,67.4,0,0,1,8.89-.64c1.5,0,3,0,4.52.13.76.05,1.53.11,2.3.2l1.19.16c.43.06.75.11,1.36.23Z"/></svg>