<svg id="Layer_3" data-name="Layer 3" xmlns="http://www.w3.org/2000/svg" xmlns:xlink="http://www.w3.org/1999/xlink" viewBox="0 0 1280 1280"><defs><style>.cls-1{fill:url(#radial-gradient);}</style><radialGradient id="radial-gradient" cx="759.13" cy="700.96" r="166.91" gradientTransform="translate(0 -458.79) scale(1 1.65)" gradientUnits="userSpaceOnUse"><stop offset="0" stop-color="#fff"/><stop offset="0.41" stop-color="#fdfdfd"/><stop offset="0.6" stop-color="#f6f6f6"/><stop offset="0.74" stop-color="#e9e9e9"/><stop offset="0.86" stop-color="#d7d7d7"/><stop offset="0.96" stop-color="silver"/><stop offset="1" stop-color="#b5b5b5"/></radialGradient></defs><path class="cls-1" d="M629,894c-69.8,0-111.73-22.71-135.95-73.63C471.71,775.5,463,706.15,463,581c0-16.37,9.8-57.24,30.84-93,28.49-48.42,68.31-74,115.16-74,59.31,0,106.75,12.07,141,35.86,43.8,30.42,66,79.26,66,145.14,0,48.41-13.34,120.87-33.2,180.32-11.15,33.39-23.45,60.3-36.56,80-17,25.59-35.57,38.61-55.06,38.69H629Z"/><path d="M609,430c97,0,191,33,191,165,0,90-50,283-109,283H629c-124,0-150-73-150-297,0-25,33-151,130-151m0-32a133.33,133.33,0,0,0-80.09,26.22c-18.72,13.65-35.16,32.38-48.86,55.68C457.25,518.63,447,562.34,447,581c0,61.5,2,107.42,6.21,144.53,4.94,43.37,13,75.69,25.39,101.72,14.07,29.57,33.66,50.58,59.88,64.23C562.42,903.94,592,910,629,910h62.26c25.14-.11,48.12-15.52,68.3-45.83,13.89-20.86,26.81-49,38.42-83.78C818.33,719.46,832,645,832,595c0-36.32-6.5-68.36-19.32-95.24a159.33,159.33,0,0,0-53.55-63C722.15,411,671.64,398,609,398Z"/><circle cx="734.5" cy="706.5" r="30.5"/><path d="M735,693.63s-.39-.11-.63-.16l-.82-.2-1.71-.38c-1.17-.25-2.36-.49-3.56-.71-2.41-.45-4.86-.82-7.34-1.13a76.93,76.93,0,0,0-15.12-.5,67.74,67.74,0,0,0-15.21,2.81A65.89,65.89,0,0,0,676,700a57.05,57.05,0,0,1,5.67-6.09c1-1,2.09-1.87,3.17-2.79s2.24-1.75,3.42-2.54a66.77,66.77,0,0,1,15.35-8,83.7,83.7,0,0,1,17.1-4.31,67.4,67.4,0,0,1,8.89-.64c1.5,0,3,0,4.52.13.76.05,1.53.11,2.3.2l1.19.16c.43.06.75.11,1.36.23Z"/></svg>