<svg id="Layer_3" data-name="Layer 3" xmlns="http://www.w3.org/2000/svg" xmlns:xlink="http://www.w3.org/1999/xlink" viewBox="0 0 1280 1280"><defs><style>.cls-1{fill:url(#radial-gradient);}</style><radialGradient id="radial-gradient" cx="641.13" cy="713.75" r="237.43" gradientTransform="translate(0 29.15) scale(1 0.96)" gradientUnits="userSpaceOnUse"><stop offset="0" stop-color="#b5b5b5"/><stop offset="0.42" stop-color="#b7b7b7"/><stop offset="0.6" stop-color="#bebebe"/><stop offset="0.74" stop-color="#cbcbcb"/><stop offset="0.86" stop-color="#ddd"/><stop offset="0.97" stop-color="#f4f4f4"/><stop offset="1" stop-color="#fefefe"/></radialGradient></defs><path class="cls-1" d="M640,891a15.93,15.93,0,0,1-3.51-.39c-67.3-15.15-122-52.51-158-108.06C448.5,736.44,432,678.76,432,620.14c0-61.41,13.72-106.77,41.95-138.67C508.17,442.8,562.49,424,640,424s131.83,18.8,166,57.47c28.23,31.9,42,77.26,42,138.67,0,58.81-16.36,116.48-46.07,162.39-36,55.58-90.75,93-158.44,108.08A15.82,15.82,0,0,1,640,891Z"/><path d="M640,440c154.84,0,192,78.81,192,180.14S780,843.71,640,875C501,843.71,448,721.47,448,620.14S485.16,440,640,440m0-32c-41,0-76.62,5.3-106,15.74S480.43,450,462,470.87c-16.82,19-29.14,42.54-36.62,70-6.29,23.08-9.35,49-9.35,79.32,0,61.68,17.42,122.45,49,171.13a261.39,261.39,0,0,0,67.77,71C562,883,595.66,897.82,633,906.22a32,32,0,0,0,14,0c37.55-8.39,71.4-23.17,100.61-43.91a259.66,259.66,0,0,0,67.78-71.1C846.73,742.75,864,682,864,620.14c0-30.3-3.06-56.24-9.35-79.32-7.48-27.41-19.8-51-36.62-70-18.46-20.86-42.68-36.71-72-47.13S681,408,640,408Z"/></svg>