<svg id="Layer_3" data-name="Layer 3" xmlns="http://www.w3.org/2000/svg" xmlns:xlink="http://www.w3.org/1999/xlink" viewBox="0 0 1280 1280"><defs><style>.cls-1{fill:url(#radial-gradient);}</style><radialGradient id="radial-gradient" cx="740.93" cy="702.29" r="181.72" gradientTransform="translate(116.96 -475.49) rotate(5.86) scale(1 1.58)" gradientUnits="userSpaceOnUse"><stop offset="0" stop-color="#fff"/><stop offset="0.41" stop-color="#fdfdfd"/><stop offset="0.6" stop-color="#f6f6f6"/><stop offset="0.74" stop-color="#e9e9e9"/><stop offset="0.86" stop-color="#d7d7d7"/><stop offset="0.96" stop-color="silver"/><stop offset="1" stop-color="#b5b5b5"/></radialGradient></defs><path class="cls-1" d="M665,895c-65.82,0-105.86-15.17-129.83-49.17-21.87-31-27.73-74.36-35.14-129.19-5-37-10.66-78.88-22.29-126.21a125.54,125.54,0,0,1-1.36-53.49c4.28-22.09,14.35-53.92,38-80.07C540.12,428.42,575,414,618,414c71.53,0,120.85,16.58,150.78,50.7C793.83,493.26,805,532.21,805,591c0,102.86-9.24,173.08-29.09,221-11,26.62-25.24,46.31-43.45,60.18-18.36,14-40.82,21.66-66.76,22.8C665.47,895,665.23,895,665,895Z"/><path d="M618,430c142,0,171,67,171,161,0,193-33,284-124,288-171,0-125.83-105.72-171.72-292.39A108.63,108.63,0,0,1,492.09,540c9-46.36,40.13-110,125.91-110m0-32c-24.71,0-47.44,4.51-67.54,13.4a141.55,141.55,0,0,0-48,34.74C476.39,475,465.34,509.8,460.67,533.9a141.58,141.58,0,0,0,1.53,60.35c11.43,46.5,17,88,22,124.53,7.7,57,13.79,102,37.92,136.26,14,19.86,32.56,34,56.77,43.13,22.8,8.63,51,12.83,86.13,12.83l1.41,0c58-2.55,99.81-33.79,124.28-92.85C811.37,768.2,821,696,821,591c0-28.36-2.53-52.13-7.73-72.67-6.51-25.7-17.13-46.7-32.46-64.18C747.66,416.37,694.41,398,618,398Z"/><circle cx="734.5" cy="704.5" r="30.5"/><path d="M735,691.63s-.39-.11-.63-.16l-.82-.2-1.71-.38c-1.17-.25-2.36-.49-3.56-.71-2.41-.45-4.86-.82-7.34-1.13a76.93,76.93,0,0,0-15.12-.5,67.74,67.74,0,0,0-15.21,2.81A65.89,65.89,0,0,0,676,698a57.05,57.05,0,0,1,5.67-6.09c1-1,2.09-1.87,3.17-2.79s2.24-1.75,3.42-2.54a66.77,66.77,0,0,1,15.35-8,83.7,83.7,0,0,1,17.1-4.31,67.4,67.4,0,0,1,8.89-.64c1.5,0,3,0,4.52.13.76.05,1.53.11,2.3.2l1.19.16c.43.06.75.11,1.36.23Z"/></svg>