<svg id="Layer_2" data-name="Layer 2" xmlns="http://www.w3.org/2000/svg" xmlns:xlink="http://www.w3.org/1999/xlink" viewBox="0 0 469 438"><defs><style>.cls-1{fill:url(#linear-gradient);}.cls-2{fill:url(#linear-gradient-2);}.cls-3{fill:url(#linear-gradient-3);}.cls-4{fill:url(#linear-gradient-4);}</style><linearGradient id="linear-gradient" x1="234.5" y1="243.14" x2="234.5" y2="194.86" gradientUnits="userSpaceOnUse"><stop offset="0" stop-color="#5ba8aa"/><stop offset="1" stop-color="#6bb5ba"/></linearGradient><linearGradient id="linear-gradient-2" x1="234.5" y1="178.76" x2="234.5" y2="130.48" xlink:href="#linear-gradient"/><linearGradient id="linear-gradient-3" x1="234.5" y1="307.52" x2="234.5" y2="259.24" xlink:href="#linear-gradient"/><linearGradient id="linear-gradient-4" x1="234.5" y1="387.99" x2="234.5" y2="50.01" xlink:href="#linear-gradient"/></defs><path d="M447.42,210.82l-100.59-169A16,16,0,0,0,333.08,34H135.92a16,16,0,0,0-13.75,7.81l-100.59,169a16,16,0,0,0,0,16.36l100.59,169A16,16,0,0,0,135.92,404H333.08a16,16,0,0,0,13.75-7.81l100.59-169A16,16,0,0,0,447.42,210.82Z"/><rect class="cls-1" x="91.66" y="194.86" width="285.68" height="48.28"/><rect class="cls-2" x="91.66" y="130.48" width="285.68" height="48.28"/><rect class="cls-3" x="91.66" y="259.24" width="285.68" height="48.28"/><path class="cls-4" d="M333.08,50H135.92L35.33,219,135.92,388H333.08L433.67,219Zm-39.83,273.6H175.75L115.8,219l60-104.61h117.5L353.2,219Z"/><path d="M293.25,323.61,353.2,219,293.25,114.39H175.75L115.8,219l60,104.61ZM185,130.39h99L334.76,219,284,307.61H185L134.24,219Z"/></svg>