<svg id="Layer_2" data-name="Layer 2" xmlns="http://www.w3.org/2000/svg" xmlns:xlink="http://www.w3.org/1999/xlink" viewBox="0 0 2442 438"><defs><style>.cls-1{fill:url(#linear-gradient);}.cls-2{fill:url(#linear-gradient-2);}.cls-3{fill:url(#linear-gradient-3);}.cls-4{fill:url(#linear-gradient-4);}.cls-5{fill:url(#linear-gradient-5);}.cls-6{fill:url(#linear-gradient-6);}.cls-7{fill:url(#linear-gradient-7);}.cls-8{fill:url(#linear-gradient-8);}.cls-9{fill:url(#linear-gradient-9);}.cls-10{fill:url(#linear-gradient-10);}</style><linearGradient id="linear-gradient" x1="756.65" y1="244.39" x2="756.65" y2="196.11" gradientUnits="userSpaceOnUse"><stop offset="0" stop-color="#5ba8aa"/><stop offset="1" stop-color="#6bb5ba"/></linearGradient><linearGradient id="linear-gradient-2" x1="756.65" y1="180.01" x2="756.65" y2="131.73" xlink:href="#linear-gradient"/><linearGradient id="linear-gradient-3" x1="756.65" y1="308.77" x2="756.65" y2="260.49" xlink:href="#linear-gradient"/><linearGradient id="linear-gradient-4" x1="189.82" y1="394.28" x2="189.82" y2="42.2" xlink:href="#linear-gradient"/><linearGradient id="linear-gradient-5" x1="454.75" y1="394.28" x2="454.75" y2="42.28" xlink:href="#linear-gradient"/><linearGradient id="linear-gradient-6" x1="1131.51" y1="394.28" x2="1131.51" y2="42.28" xlink:href="#linear-gradient"/><linearGradient id="linear-gradient-7" x1="1470.51" y1="394.56" x2="1470.51" y2="42.28" xlink:href="#linear-gradient"/><linearGradient id="linear-gradient-8" x1="2248.61" y1="403.66" x2="2248.61" y2="38.28" xlink:href="#linear-gradient"/><linearGradient id="linear-gradient-9" x1="756.65" y1="389.24" x2="756.65" y2="51.26" xlink:href="#linear-gradient"/><linearGradient id="linear-gradient-10" x1="1836.1" y1="395.56" x2="1836.1" y2="34.34" xlink:href="#linear-gradient"/></defs><path d="M969.57,212.07,869,43.07a16,16,0,0,0-13.75-7.81H658.08a16,16,0,0,0-13.75,7.81l-100.59,169a16,16,0,0,0,0,16.36l100.59,169a16,16,0,0,0,13.75,7.81H855.23A16,16,0,0,0,869,397.43l100.59-169A16,16,0,0,0,969.57,212.07Z"/><path d="M350.82,146.23c0-27.85-11.8-57.49-31.58-79.27C302.36,48.37,271.65,26.2,221.18,26.2H44.82a16,16,0,0,0-16,16V394.28a16,16,0,0,0,16,16H221.18c50.47,0,81.18-22.17,98.06-40.76,19.78-21.78,31.58-51.42,31.58-79.27,0-33.39-13.73-60.47-23-75A113.22,113.22,0,0,0,350.82,146.23ZM147,282.25v-16h81.79c3.33.67,11.62,8.69,11.62,16s-8.29,15.34-11.62,16H147Zm0-124v-32h81.79c3.33.67,11.62,8.69,11.62,16s-8.29,15.34-11.62,16Z"/><rect x="397.7" y="26.28" width="114.1" height="384" rx="16"/><path d="M1281.52,26.28h-300a16,16,0,0,0-16,16V120.5a16,16,0,0,0,16,16H1076V394.28a16,16,0,0,0,16,16h86.84a16,16,0,0,0,16-16V136.5h86.64a16,16,0,0,0,16-16V42.28A16,16,0,0,0,1281.52,26.28Z"/><path d="M1595.82,136.56a16,16,0,0,0,16-16V42.28a16,16,0,0,0-16-16H1345.19a16,16,0,0,0-16,16V394.56a16,16,0,0,0,16,16h250.63a16,16,0,0,0,16-16V316.27a16,16,0,0,0-16-16H1440.75V269.64h91.42a16,16,0,0,0,16-16V175.36a16,16,0,0,0-16-16h-91.42v-22.8Z"/><path d="M2397.18,22.28h-76.29a16,16,0,0,0-16,16V158.79H2192.34V38.28a16,16,0,0,0-16-16h-76.29a16,16,0,0,0-16,16V403.66a16,16,0,0,0,16,16h76.29a16,16,0,0,0,16-16V279.13h112.55V403.66a16,16,0,0,0,16,16h76.29a16,16,0,0,0,16-16V38.28A16,16,0,0,0,2397.18,22.28Z"/><path d="M2010.82,246.06h-82.45a15.77,15.77,0,0,0-14.07,8.38,92.93,92.93,0,0,1-18.51,21.94C1880.1,290.13,1862,297.1,1842,297.1c-53.17,0-86.08-42.64-86.08-82.15s32.91-82.16,86.08-82.16c20,0,38.11,7,53.8,20.73a92.78,92.78,0,0,1,18.51,21.93,15.77,15.77,0,0,0,14.07,8.38h82.45a16,16,0,0,0,16-16c0-16.25-5-34.11-14.5-51.66-9.22-17.06-22.54-33.55-38.5-47.68A198.81,198.81,0,0,0,1842,18.34c-53.41,0-102.44,18.45-138.07,52A179.29,179.29,0,0,0,1661,132.55c-10.38,24.95-15.65,52.67-15.65,82.4s5.27,57.44,15.65,82.4a179.38,179.38,0,0,0,42.89,62.26c35.63,33.5,84.66,51.95,138.07,51.95a198.77,198.77,0,0,0,131.83-50.16c16-14.12,29.28-30.61,38.5-47.68,9.49-17.55,14.5-35.41,14.5-51.66A16,16,0,0,0,2010.82,246.06Z"/><rect class="cls-1" x="613.82" y="196.11" width="285.68" height="48.28"/><rect class="cls-2" x="613.82" y="131.73" width="285.68" height="48.28"/><rect class="cls-3" x="613.82" y="260.49" width="285.68" height="48.28"/><path class="cls-4" d="M334.82,146.23c0-44-35.27-104-113.64-104H44.82V394.28H221.18c78.37,0,113.64-60,113.64-104s-27.43-76-27.43-76S334.82,190.23,334.82,146.23ZM229,314.26H131v-64h98c11.76,0,27.44,16,27.44,32S240.77,314.26,229,314.26Zm0-140H131v-64h98c11.76,0,27.44,16,27.44,32S240.77,174.23,229,174.23Z"/><rect class="cls-5" x="413.7" y="42.28" width="82.1" height="352"/><polygon class="cls-6" points="1281.52 42.28 981.5 42.28 981.5 120.5 1092.04 120.5 1092.04 394.28 1178.88 394.28 1178.88 120.5 1281.52 120.5 1281.52 42.28"/><polygon class="cls-7" points="1595.82 120.56 1595.82 42.28 1345.19 42.28 1345.19 85.33 1345.19 120.56 1345.19 175.36 1345.19 253.65 1345.19 316.27 1345.19 343.67 1345.19 394.56 1595.82 394.56 1595.82 316.27 1424.76 316.27 1424.76 253.65 1532.17 253.65 1532.17 175.36 1424.76 175.36 1424.76 120.56 1595.82 120.56"/><polygon class="cls-8" points="2320.89 38.28 2320.89 174.79 2176.34 174.79 2176.34 38.28 2100.05 38.28 2100.05 403.66 2176.34 403.66 2176.34 263.13 2320.89 263.13 2320.89 403.66 2397.18 403.66 2397.18 38.28 2320.89 38.28"/><path class="cls-9" d="M855.23,51.26H658.08l-100.59,169,100.59,169H855.23l100.59-169ZM815.4,324.86H697.91L638,220.25l59.95-104.61H815.4l60,104.61Z"/><path class="cls-10" d="M1842,313.1c-58.89,0-102.08-47.11-102.08-98.15s43.19-98.16,102.08-98.16,86.38,51,86.38,51h82.45c0-55-70.67-133.49-168.83-133.49S1661.38,101.08,1661.38,215,1743.84,395.56,1842,395.56s168.83-78.53,168.83-133.5h-82.45S1900.89,313.1,1842,313.1Z"/><path d="M815.4,324.86l60-104.61-60-104.61H697.91L638,220.25l59.95,104.61ZM707.18,131.64h99l50.78,88.61-50.78,88.61h-99L656.4,220.25Z"/></svg>