<svg id="Layer_2" data-name="Layer 2" xmlns="http://www.w3.org/2000/svg" viewBox="0 0 1280 1280"><defs><style>.cls-1{fill:red;}</style></defs><rect class="cls-1" width="1280" height="1280"/><path d="M640,816.5c-33.12,0-48.29-4.56-66.24-13.53-8.35-4.18-13.49-15.42-15.73-34.39a177.83,177.83,0,0,1-1.11-20.16c-20.95-.62-55.72-5.44-84.83-27.7C437.53,694.3,420,651.16,420,592.5v-83c0-17.86,3.34-80.57,46.25-137.63a193.75,193.75,0,0,1,67.87-57.1C564.7,299.33,600.32,291.5,640,291.5s75.3,7.83,105.88,23.27a193.75,193.75,0,0,1,67.87,57.1C856.66,428.93,860,491.64,860,509.5v83c0,58.66-17.53,101.8-52.09,128.22C778.8,743,744,747.8,723.08,748.42A177.83,177.83,0,0,1,722,768.58c-2.24,19-7.38,30.21-15.73,34.39C688.29,811.94,673.12,816.5,640,816.5Z"/><path d="M640,296.5c166,0,215,138,215,213v83c0,130-88,151-137,151,0,0,2,47-14,55s-30,13-64,13-48-5-64-13-14-55-14-55c-49,0-137-21-137-151v-83c0-75,49-213,215-213m0-10c-40.47,0-76.85,8-108.13,23.81a198.54,198.54,0,0,0-69.61,58.55,234.83,234.83,0,0,0-36.57,72.79C416.85,470.51,415,494.48,415,509.5v83c0,31.82,5.17,59.58,15.38,82.5,9,20.25,22,37,38.67,49.69C497.11,746.15,530.11,752,552,753.21c.11,4.52.4,10.12,1.09,16,2.44,20.77,8.48,33.29,18.46,38.27,18.64,9.33,34.35,14.06,68.47,14.06s49.83-4.73,68.47-14.06c10-5,16-17.5,18.46-38.27.69-5.84,1-11.44,1.09-16,21.87-1.23,54.87-7.06,82.93-28.52C827.59,712,840.61,695.25,849.62,675,859.83,652.08,865,624.32,865,592.5v-83c0-15-1.85-39-10.69-67.85a234.83,234.83,0,0,0-36.57-72.79,198.54,198.54,0,0,0-69.61-58.55C716.85,294.51,680.47,286.5,640,286.5Z"/><path class="cls-1" d="M640,480.5c-19.84,0-37.5-20.82-37.5-37.23,0-38,33.61-230,35-238.2L640,191l2.46,14c1.43,8.16,35,200.22,35,238.2C677.5,459.68,659.84,480.5,640,480.5Z"/><path class="cls-1" d="M640,205.5s35,199.57,35,237.77C675,458,658.92,478,640,478s-35-20-35-34.73c0-38.2,35-237.77,35-237.77m0-28.94-4.92,28.08C633.64,212.8,600,405.07,600,443.27c0,8.6,4.39,18.43,11.75,26.31C619.71,478.11,630,483,640,483s20.29-4.89,28.25-13.42c7.36-7.88,11.75-17.71,11.75-26.31,0-38.2-33.64-230.47-35.08-238.63L640,176.56Z"/></svg>