<svg id="Layer_2" data-name="Layer 2" xmlns="http://www.w3.org/2000/svg" xmlns:xlink="http://www.w3.org/1999/xlink" viewBox="0 0 1280 1280"><defs><style>.cls-1{fill:#fff;}.cls-2{fill:#a1a1a1;}.cls-3{fill:#e2e2e2;}.cls-4{fill:url(#radial-gradient);}.cls-5{fill:#313031;}</style><radialGradient id="radial-gradient" cx="640" cy="605.22" r="216.6" gradientTransform="translate(0 -111.69) scale(1 1.18)" gradientUnits="userSpaceOnUse"><stop offset="0.66" stop-color="#c0c1c0"/><stop offset="0.77" stop-color="#bcbdbc"/><stop offset="0.88" stop-color="#afb0af"/><stop offset="1" stop-color="#9a9c9a"/><stop offset="1" stop-color="#999b99"/></radialGradient></defs><rect class="cls-1" x="426.5" y="675.5" width="427" height="336"/><rect class="cls-2" x="426.5" y="1011.5" width="427" height="48"/><path d="M853.5,675.5v384h-427v-384h427m20-20h-467v424h467v-424Z"/><ellipse class="cls-3" cx="640" cy="788" rx="101" ry="105"/><path class="cls-4" d="M640,821.5c-34.12,0-49.83-4.73-68.47-14.06-10-5-16-17.5-18.46-38.27-.69-5.84-1-11.44-1.09-16-21.87-1.23-54.87-7.06-82.93-28.52C433.19,697.28,415,652.8,415,592.5v-83c0-18.25,3.41-82.33,47.26-140.64,28.26-37.57,82-82.36,177.74-82.36s149.48,44.79,177.74,82.36C861.59,427.17,865,491.25,865,509.5v83c0,60.3-18.19,104.78-54,132.19C782.89,746.15,749.89,752,728,753.21c-.11,4.52-.4,10.12-1.09,16-2.44,20.77-8.48,33.29-18.46,38.27C689.83,816.77,674.12,821.5,640,821.5Z"/><path d="M640,296.5c166,0,215,138,215,213v83c0,130-88,151-137,151,0,0,2,47-14,55s-30,13-64,13-48-5-64-13-14-55-14-55c-49,0-137-21-137-151v-83c0-75,49-213,215-213m0-20c-42,0-80,8.37-112.64,24.88a208.57,208.57,0,0,0-73.09,61.47,244.53,244.53,0,0,0-38.14,75.88C408.85,462.51,405,487,405,509.5v83c0,33.23,5.47,62.36,16.24,86.57C431,700.86,445,718.89,463,732.64a146,146,0,0,0,51.83,24.88,178.84,178.84,0,0,0,27.6,5c.18,2.52.41,5.15.73,7.83,2.86,24.37,10.69,39.43,23.92,46,19.6,9.8,37,15.11,72.94,15.11s53.34-5.31,72.94-15.11c13.23-6.62,21.06-21.68,23.92-46,.32-2.68.55-5.31.73-7.83a178.84,178.84,0,0,0,27.6-5A146,146,0,0,0,817,732.64c18-13.75,32-31.78,41.74-53.57C869.53,654.86,875,625.73,875,592.5v-83c0-22.52-3.85-47-11.13-70.77a244.53,244.53,0,0,0-38.14-75.88,208.57,208.57,0,0,0-73.09-61.47C720,284.87,682.05,276.5,640,276.5Z"/><path class="cls-5" d="M539.29,573.15c40.08,0,63.71,25.61,63.71,47.43s-22.61,50.27-57.54,50.27S491,631,491,617.73,499.22,573.15,539.29,573.15Z"/><path class="cls-5" d="M740.71,573.15c-40.08,0-63.71,25.61-63.71,47.43s22.61,50.27,57.54,50.27S789,631,789,617.73,780.78,573.15,740.71,573.15Z"/><path class="cls-1" d="M640,488c-11.54,0-22.87-5.33-31.9-15-8.2-8.79-13.1-19.9-13.1-29.73,0-38.63,33.72-231.31,35.15-239.5L640,147.61l9.85,56.16C651.29,212,685,404.64,685,443.27c0,9.83-4.9,20.94-13.1,29.73C662.87,482.67,651.54,488,640,488Z"/><path d="M640,205.5s35,199.57,35,237.77C675,458,658.92,478,640,478s-35-20-35-34.73c0-38.2,35-237.77,35-237.77m0-115.78L620.3,202.05c-3.61,20.6-35.3,202.4-35.3,241.22,0,12.48,5.75,25.81,15.79,36.55C611.74,491.54,625.66,498,640,498s28.26-6.46,39.21-18.18c10-10.74,15.79-24.07,15.79-36.55,0-38.82-31.69-220.62-35.3-241.22L640,89.72Z"/></svg>