<svg xmlns="http://www.w3.org/2000/svg" xmlns:xlink="http://www.w3.org/1999/xlink" viewBox="0 0 1280 1280"><defs><style>.cls-1{fill:url(#radial-gradient);}.cls-2,.cls-3{opacity:0.5;}.cls-2{fill:url(#radial-gradient-2);}.cls-3{fill:url(#radial-gradient-3);}</style><radialGradient id="radial-gradient" cx="642.74" cy="649.49" r="240.52" gradientTransform="translate(0 404.55) scale(1 0.38)" gradientUnits="userSpaceOnUse"><stop offset="0.63" stop-color="#fff"/><stop offset="0.83" stop-color="#e3e3e3"/></radialGradient><radialGradient id="radial-gradient-2" cx="719.22" cy="686.39" r="90.4" gradientTransform="matrix(1, 0.04, -0.02, 0.43, 12.64, 361.79)" gradientUnits="userSpaceOnUse"><stop offset="0.52" stop-color="#aaa"/><stop offset="0.6" stop-color="#b1b1b1"/><stop offset="0.72" stop-color="#c4c4c4"/><stop offset="0.86" stop-color="#e3e3e3"/><stop offset="0.96" stop-color="#fff"/></radialGradient><radialGradient id="radial-gradient-3" cx="879.37" cy="686.39" r="90.4" gradientTransform="matrix(-1, 0.04, 0.02, 0.43, 1427.38, 355.27)" xlink:href="#radial-gradient-2"/></defs><g id="Layer_2" data-name="Layer 2"><image width="128" height="128" transform="translate(-926.61 -220.7) scale(10)" xlink:href="../Desktop%20Subfolders/Projects/GAMES/RimWorld%20Modding/Assets/LudeonPublicArtAssets/Game%20Artsources/BiotechArtSource/Things/Pawn/Humanlike/HeadAttachments/HeavyBrow/HeavyBrow_south.png"/></g><g id="Layer_3" data-name="Layer 3"><path class="cls-1" d="M640,560.5c-49,0-170,24-170,80.5,0,25.5,5,27.5,10,30.5s73-10,160-10,155,13,160,10,10-5,10-30.5C810,584.5,689,560.5,640,560.5Z"/><path class="cls-2" d="M713.5,645c-28,0-53.6,6.23-73.08,16.5,86.8,0,154.59,13,159.58,10l1.15-.69C781,655.12,749.21,645,713.5,645Z"/><path class="cls-3" d="M566.5,645c28,0,53.6,6.23,73.08,16.5-86.8,0-154.59,13-159.58,10l-1.15-.69C499.05,655.12,530.79,645,566.5,645Z"/></g></svg>