<svg xmlns="http://www.w3.org/2000/svg" viewBox="0 0 1280 1280"><defs><style>.cls-1{fill:#fff;}</style></defs><g id="Layer_3" data-name="Layer 3"><path class="cls-1" d="M868,640c0-14.82-32.57-78-76-78-53.3,0-136.22,39.5-109.57,79s42.45,8.89,78,8.89,66.13,35.55,80.94,30.62S868,654.83,868,640Z"/><path d="M881.39,677.27C888.77,665.54,893,652,893,640c0-11-10-35.75-13.48-39.39s-43.83-26.2-69-34.82C844.37,579.68,868,627.4,868,640c0,14.81-11.84,35.55-26.65,40.49a9.69,9.69,0,0,1-3.08.47,16.94,16.94,0,0,1-4.32-.66c9,5.68,25.67,14.28,32.36,14.28S877.09,684.11,881.39,677.27Z"/></g></svg>