<svg xmlns="http://www.w3.org/2000/svg" viewBox="0 0 1280 1280"><defs><style>.cls-1{fill:#7a7875;}</style></defs><g id="Layer_3" data-name="Layer 3"><path class="cls-1" d="M787,475.5c-7.46,0-13.26-5.72-20-12.35-5.22-5.14-11.13-11-18.94-15.75-7.05-4.31-14.94-7.16-21.89-9.68-11.65-4.22-21.7-7.86-21.7-17.72,0-6.59,4.3-16.2,55.64-47.05,25.87-15.55,52.09-29.44,52.35-29.58l12.26-6.48-1.28,13.81c0,.29-2.84,30.12-7.83,59.55C806.47,464.4,797.56,475.5,787,475.5Z"/><path d="M816,350s-11,118-29,118c-8.36,0-17-16-35-27s-40-13-40-21c0-15,104-70,104-70m17.51-26.23-24.52,13c-1.08.57-26.66,14.12-52.72,29.78-15.52,9.32-28,17.46-37,24.19C705.53,401,697,409.44,697,420c0,5.45,2.17,13.15,12.53,18.88a99,99,0,0,0,14.11,5.89c6.63,2.4,14.13,5.12,20.54,9,7.07,4.32,12.65,9.83,17.58,14.69C769.32,476,776.46,483,787,483c5.26,0,12.85-2.1,19.12-12.1a74.7,74.7,0,0,0,7.28-16.74c3.37-10.47,6.62-24.82,9.64-42.65,5-29.72,7.78-58.89,7.9-60.12l2.57-27.62Z"/><path class="cls-1" d="M493,468.5c-10.56,0-19.47-11.1-28.64-65.25-5-29.43-7.8-59.26-7.83-59.55l-1.28-13.81,12.26,6.48c.26.14,26.48,14,52.35,29.58C571.2,396.8,575.5,406.41,575.5,413c0,9.86-10,13.5-21.7,17.72-6.95,2.52-14.84,5.37-21.89,9.68C524.1,445.17,518.19,451,513,456.15,506.26,462.78,500.46,468.5,493,468.5Z"/><path d="M464,343s104,55,104,70c0,8-22,10-40,21s-26.64,27-35,27c-18,0-29-118-29-118m-17.51-26.23,2.57,27.62c.12,1.23,2.86,30.4,7.9,60.12,3,17.83,6.27,32.18,9.64,42.65a74.7,74.7,0,0,0,7.28,16.74c6.27,10,13.86,12.1,19.12,12.1,10.54,0,17.68-7.05,25.24-14.51,4.93-4.86,10.51-10.37,17.58-14.69,6.41-3.91,13.91-6.63,20.54-9a99,99,0,0,0,14.11-5.89C580.83,426.15,583,418.45,583,413c0-10.56-8.53-19-22.29-29.29-9-6.73-21.46-14.87-37-24.19-26.06-15.66-51.64-29.21-52.72-29.78l-24.52-13Z"/></g></svg>