<svg xmlns="http://www.w3.org/2000/svg" viewBox="0 0 1280 1280"><defs><style>.cls-1{fill:#7a7875;}</style></defs><g id="Layer_3" data-name="Layer 3"><path class="cls-1" d="M714.74,566.62l-.67-.12c-12.28-2.24-24.3-5-36.18-14.71-12.19-9.92-16.3-24.56-18.33-34.7l-.16-.78v-.8c.42-29.47,30.7-44.36,65.75-61.61,14.78-7.27,30.07-14.78,45.32-24.17l11.43-7v13.42c0,36.58-5.57,68.07-16.12,91.06-14.95,32.6-35.65,39.44-50.38,39.44Z"/><path d="M774.41,436.12c0,70.5-21.5,123-59,123-11-2-22.11-4.47-32.78-13.15-8.9-7.23-13.22-17.85-15.72-30.35.5-35.5,55.5-47.5,107.5-79.5m15-26.85-22.86,14.07c-14.95,9.2-30.07,16.64-44.7,23.83-17.32,8.53-33.69,16.58-46,26-15.91,12.25-23.75,26.06-24,42.21l0,1.59.31,1.56c2.26,11.28,6.89,27.6,21,39.05,13.25,10.78,26.81,13.95,39.57,16.27l1.33.24h1.35A53.18,53.18,0,0,0,750,561.38c8.92-7.38,16.53-17.83,22.6-31.07,11-24,16.8-56.54,16.8-94.19V409.27Z"/></g></svg>