<svg xmlns="http://www.w3.org/2000/svg" viewBox="0 0 1280 1280"><defs><style>.cls-1{fill:#7a7875;}</style></defs><g id="Layer_3" data-name="Layer 3"><path class="cls-1" d="M759.32,607.5l-.66-.12c-12.29-2.23-24.3-5-36.18-14.71-12.2-9.92-16.31-24.55-18.33-34.7l-.16-.78v-.8c.42-29.47,30.69-44.36,65.75-61.6,14.78-7.27,30.06-14.79,45.32-24.18l11.43-7V477c0,36.58-5.57,68.07-16.12,91.06-15,32.6-35.65,39.44-50.38,39.44Z"/><path d="M819,477c0,70.5-21.5,123-59,123-11-2-22.11-4.46-32.79-13.14C718.32,579.62,714,569,711.5,556.5,712,521,767,509,819,477m15-26.84-22.86,14.07c-14.95,9.2-30.08,16.63-44.7,23.83-17.33,8.52-33.69,16.57-46,26-15.9,12.26-23.74,26.06-24,42.21l0,1.59.31,1.56c2.26,11.28,6.88,27.6,21,39,13.25,10.78,26.81,14,39.57,16.27l1.33.24H760a53.17,53.17,0,0,0,34.59-12.74c8.93-7.38,16.53-17.83,22.61-31.07,11-24,16.8-56.54,16.8-94.19V450.16Z"/><path class="cls-1" d="M520,607.5c-14.73,0-35.43-6.84-50.38-39.44-10.55-23-16.12-54.48-16.12-91.06V463.58l11.43,7c15.26,9.39,30.54,16.91,45.32,24.18,35.06,17.24,65.33,32.13,65.75,61.6v.8l-.16.78c-2,10.15-6.13,24.78-18.33,34.7-11.88,9.67-23.89,12.48-36.18,14.71l-.66.12Z"/><path d="M461,477c52,32,107,44,107.5,79.5-2.5,12.5-6.82,23.12-15.71,30.36C542.11,595.54,531,598,520,600c-37.5,0-59-52.5-59-123m-15-26.84V477c0,37.65,5.81,70.23,16.8,94.19,6.08,13.24,13.68,23.69,22.61,31.07A53.17,53.17,0,0,0,520,615h1.35l1.33-.24c12.76-2.32,26.32-5.49,39.57-16.27,14.08-11.45,18.7-27.77,21-39l.31-1.56,0-1.59c-.23-16.15-8.07-29.95-24-42.21-12.28-9.45-28.64-17.5-46-26-14.62-7.2-29.75-14.63-44.7-23.83L446,450.16Z"/></g></svg>