<svg xmlns="http://www.w3.org/2000/svg" xmlns:xlink="http://www.w3.org/1999/xlink" viewBox="0 0 1280 1280"><defs><style>.cls-1{fill:url(#radial-gradient);}.cls-2{fill:#c4c4c4;}</style><radialGradient id="radial-gradient" cx="648.65" cy="565.43" r="110.34" gradientTransform="translate(1023.22 -624.22) rotate(48.81) scale(1 1.88)" gradientUnits="userSpaceOnUse"><stop offset="0.07" stop-color="#f7f7f7"/><stop offset="1" stop-color="#aaa"/></radialGradient></defs><g id="Layer_3" data-name="Layer 3"><path class="cls-1" d="M539.5,499.5c-.57,23.87,12.77,54.53,47.33,90,29.68-5.24,58.84-13.22,78.11-35.84a32.44,32.44,0,0,0,6.65-13,458.27,458.27,0,0,1,27-75.85C593.11,386.3,570.2,399.5,503.5,399.5,512.5,422.5,541.5,445.5,539.5,499.5Z"/><path class="cls-2" d="M680.4,510.88a465.83,465.83,0,0,1,18.18-46.09c-37.88-28.19-65.11-44.55-87.54-54A359.7,359.7,0,0,0,680.4,510.88Z"/><path d="M493.69,433.14c10.8,16.95,22,34.49,20.83,65.43v.33c-.35,14.68,3,30.15,10.08,46s17.67,32,31.73,48.3l.9,1c9.69-1.58,19.68-3,29.61-4.77-34.56-35.43-47.9-66.09-47.33-90,2-54-27-77-36-100,16.79,0,30.82-.84,44.07-.84,39.4,0,72.1,7.41,151,66.13q5.13-11.22,11.15-22.84c-27.79-20.49-50.66-35.2-70.43-45.44-36.64-19-63.16-22.85-91.71-22.85v0c-6.6,0-13.19.19-20.15.39-7.57.22-15.4.45-23.93.45H466.87l13.35,34.11C483.65,417.38,488.53,425,493.69,433.14Z"/></g></svg>