<svg xmlns="http://www.w3.org/2000/svg" xmlns:xlink="http://www.w3.org/1999/xlink" viewBox="0 0 1280 1280"><defs><style>.cls-1{fill:url(#radial-gradient);}.cls-2{fill:#c4c4c4;}.cls-3{fill:url(#radial-gradient-2);}</style><radialGradient id="radial-gradient" cx="877.52" cy="433.43" r="193.28" gradientTransform="translate(63.38 860.3) rotate(-45) scale(1 0.63)" gradientUnits="userSpaceOnUse"><stop offset="0" stop-color="#f7f7f7"/><stop offset="0.21" stop-color="#eee"/><stop offset="0.54" stop-color="#d6d6d6"/><stop offset="0.96" stop-color="#aeaeae"/><stop offset="1" stop-color="#aaa"/></radialGradient><radialGradient id="radial-gradient-2" cx="1197.52" cy="433.43" r="193.28" gradientTransform="matrix(-0.71, -0.71, -0.45, 0.45, 1442.16, 1086.57)" xlink:href="#radial-gradient"/></defs><g id="Layer_2" data-name="Layer 2"><image width="128" height="128" transform="translate(-926.61 1108.3) scale(10)" xlink:href="../Desktop%20Subfolders/Projects/GAMES/RimWorld%20Modding/Assets/LudeonPublicArtAssets/Game%20Artsources/BiotechArtSource/Things/Pawn/Humanlike/HeadAttachments/HeavyBrow/HeavyBrow_south.png"/></g><g id="Layer_3" data-name="Layer 3"><path class="cls-1" d="M740.94,545a27.3,27.3,0,0,0,4.13,6.8c15.53,18.53,40.74,28.44,68.35,35.08C903.76,552.66,933.26,406.79,930.5,398.5c-8-2-81-1-119,10-24.92,7-68.32,31.9-91.75,60.75C731.53,497.68,727.28,513.07,740.94,545Z"/><path class="cls-2" d="M730.76,511.64c33.08-23.73,70.18-58.31,103.63-108.07a196.3,196.3,0,0,0-22.89,4.93c-24.92,7-68.32,31.9-91.75,60.75C726.64,485.87,728.05,498,730.76,511.64Z"/><path d="M724.4,463.87c24.16-26.53,63.75-48.8,87.1-55.37,32.15-9.31,95.09-10,113.7-10,3.38,0,5.3,0,5.3,0S903.81,548.6,815.8,585.7c12,3.09,24.54,5.49,37,7.65a167.62,167.62,0,0,0,22.42-19.43c18.25-18.76,34.5-43.35,48.28-73.1a444.25,444.25,0,0,0,31.61-97.94l5.16-29-29.46-.37c-.09,0-2.11,0-5.61,0-24.82,0-86.21,1.07-120.56,11-20.1,5.67-46.41,19.41-68.68,35.87a219,219,0,0,0-24.11,20.53A212.56,212.56,0,0,1,724.4,463.87Z"/><path class="cls-3" d="M538.33,545a27.3,27.3,0,0,1-4.13,6.8c-15.52,18.53-40.74,28.44-68.35,35.08C375.51,552.66,346,406.79,348.77,398.5c8-2,81-1,119,10,24.92,7,68.32,31.9,91.75,60.75C547.74,497.68,552,513.07,538.33,545Z"/><path class="cls-2" d="M548.51,511.64c-33.07-23.73-70.18-58.31-103.63-108.07a195.85,195.85,0,0,1,22.89,4.93c24.92,7,68.32,31.9,91.75,60.75C552.63,485.87,551.22,498,548.51,511.64Z"/><path d="M554.87,463.87c-24.16-26.53-63.75-48.8-87.1-55.37-32.15-9.31-95.09-10-113.7-10-3.38,0-5.3,0-5.3,0s26.69,150.1,114.7,187.2c-12,3.09-24.54,5.49-37,7.65a167.62,167.62,0,0,1-22.42-19.43c-18.25-18.76-34.49-43.35-48.27-73.1a444,444,0,0,1-31.62-97.94l-5.16-29,29.46-.37c.09,0,2.11,0,5.61,0,24.82,0,86.22,1.07,120.56,11,20.1,5.67,46.41,19.41,68.69,35.87a220.9,220.9,0,0,1,24.11,20.53A211.09,211.09,0,0,0,554.87,463.87Z"/></g></svg>