<svg xmlns="http://www.w3.org/2000/svg" viewBox="0 0 1280 1280"><defs><style>.cls-1{fill:#f5f5f5;}</style></defs><g id="Layer_3" data-name="Layer 3"><path class="cls-1" d="M743.94,544a27.3,27.3,0,0,0,4.13,6.8c15.53,18.53,40.74,28.44,68.35,35.08C906.76,551.66,936.26,405.79,933.5,397.5c-8-2-81-1-119,10-24.92,7-68.32,31.9-91.75,60.75C734.53,496.68,730.28,512.07,743.94,544Z"/><path d="M722.75,468.25c23.43-28.85,66.83-53.74,91.75-60.75,32.15-9.31,95.09-10,113.7-10,3.38,0,5.3,0,5.3,0S906.28,550.61,816.14,585.78c12.5,3,25.49,5.37,38.31,7.54a167,167,0,0,0,23.77-20.4c18.25-18.76,34.5-43.35,48.28-73.1a444.25,444.25,0,0,0,31.61-97.94l5.16-29-29.46-.37c-.09,0-2.11,0-5.61,0-24.82,0-86.21,1.07-120.56,11-20.1,5.67-46.41,19.41-68.68,35.87a211.38,211.38,0,0,0-28.42,25A186.11,186.11,0,0,1,722.75,468.25Z"/><path class="cls-1" d="M536.33,544a27.3,27.3,0,0,1-4.13,6.8c-15.52,18.53-40.74,28.44-68.35,35.08C373.51,551.66,344,405.79,346.77,397.5c8-2,81-1,119,10,24.92,7,68.32,31.9,91.75,60.75C545.74,496.68,550,512.07,536.33,544Z"/><path d="M557.52,468.25c-23.43-28.85-66.83-53.74-91.75-60.75-32.15-9.31-95.09-10-113.7-10-3.38,0-5.3,0-5.3,0S374,550.61,464.13,585.78c-12.5,3-25.49,5.37-38.31,7.54a167.59,167.59,0,0,1-23.77-20.4c-18.25-18.76-34.49-43.35-48.27-73.1a444,444,0,0,1-31.62-97.94l-5.16-29,29.46-.37c.09,0,2.11,0,5.61,0,24.82,0,86.22,1.07,120.56,11,20.1,5.67,46.41,19.41,68.69,35.87a212,212,0,0,1,28.41,25A186.11,186.11,0,0,0,557.52,468.25Z"/></g></svg>