<svg xmlns="http://www.w3.org/2000/svg" viewBox="0 0 1280 1280"><defs><style>.cls-1{fill:#f7f7f7;}.cls-2{fill:#aaa;}</style></defs><g id="Layer_3" data-name="Layer 3"><path class="cls-1" d="M833.94,710c-23.44,52.6-53.14,94.67-86,128.86,57.64,2.12,110.78,2.41,116.51-3.32,11-16,21-111,14-124C875.74,708.74,858.74,709,833.94,710Z"/><path d="M900.51,699.65a25,25,0,0,0-4.33-5.83c-8.85-8.84-21.13-9.55-36.26-9.55-4.56,0-9.76.11-15.47.29q-5,13.1-10.51,25.4c10.1-.41,18.91-.69,26-.69,10.3,0,16.94.59,18.58,2.23,7,13-3,108-14,124-3.45,3.45-24.07,4.72-52.51,4.72-18.82,0-41-.56-64-1.4q-12.21,12.72-24.94,24c31.32,1.37,63.14,2.38,88.94,2.38,15.9,0,28.22-.38,37.66-1.15,14.55-1.19,25.06-3.43,32.53-10.89a24.58,24.58,0,0,0,2.92-3.52c3.15-4.58,7.33-12.51,11.68-33.34,2.48-11.84,4.66-26.09,6.32-41.22,1.62-14.75,2.58-29.21,2.71-40.71C906,717.07,904.47,707,900.51,699.65Z"/><ellipse class="cls-2" cx="847.5" cy="775" rx="26.98" ry="14.66" transform="translate(22.45 1573.86) rotate(-86.52)"/></g></svg>