<svg id="Work" xmlns="http://www.w3.org/2000/svg" xmlns:xlink="http://www.w3.org/1999/xlink" viewBox="0 0 1280 1280"><defs><style>.cls-1{fill:url(#radial-gradient);}.cls-2{fill:url(#radial-gradient-2);}.cls-3{fill:#676767;}</style><radialGradient id="radial-gradient" cx="645.7" cy="631.92" r="350.33" gradientUnits="userSpaceOnUse"><stop offset="0.35" stop-color="silver"/><stop offset="0.43" stop-color="#bababa"/><stop offset="0.53" stop-color="#aaa"/><stop offset="0.64" stop-color="#919191"/></radialGradient><radialGradient id="radial-gradient-2" cx="641.41" cy="594.39" r="316.04" gradientUnits="userSpaceOnUse"><stop offset="0.54" stop-color="silver"/><stop offset="0.61" stop-color="#bcbcbc"/><stop offset="0.69" stop-color="#afafaf"/><stop offset="0.77" stop-color="#9a9a9a"/><stop offset="0.8" stop-color="#919191"/></radialGradient></defs><path class="cls-1" d="M641,487.5c-139.5,0-218.5,48.5-202,152C475.5,858,463,864,641,864s165.5-6,202-224.5C859.5,536,780.5,487.5,641,487.5Z"/><path class="cls-2" d="M698,556.07c0-8.93-40-52.57-58-52.57s-58,43.64-58,52.57c0,20.82,36,21.82,36,29.75s2,82.32,2,90.25S588,685,588,708.8c0,33.72,38,41.66,38,51.58s1,63.47,1,73.39-38,15.87-38,45.62,39,31.74,39,37.69,1,12.9,1,19.84c0,24.79-34,42.65-34,73.39,0,11.9,19,37.69,45,37.69s45-25.79,45-37.69c0-30.74-34-48.6-34-73.39,0-6.94,1-13.89,1-19.84s39-7.93,39-37.69-38-35.7-38-45.62,1-63.48,1-73.39,38-17.86,38-51.58c0-23.8-32-24.79-32-32.73s2-82.32,2-90.25S698,576.89,698,556.07Z"/><path d="M641,487.5c139.5,0,218.5,48.5,202,152C810,837.27,817.06,861,686.73,863.66A30.08,30.08,0,0,1,691,879.39c0,29.76-39,31.74-39,37.69s-1,12.9-1,19.84c0,24.79,34,42.65,34,73.39,0,11.9-19,37.69-45,37.69s-45-25.79-45-37.69c0-30.74,34-48.6,34-73.39,0-6.94-1-13.89-1-19.84s-39-7.93-39-37.69a30,30,0,0,1,4.3-15.77C465,860.7,471.87,836.26,439,639.5c-16.5-103.5,62.5-152,202-152m0-25c-95.48,0-162.39,21.69-198.9,64.48a123.87,123.87,0,0,0-26.47,52.53c-4.55,19.35-5,40.86-1.32,63.93l0,.18c2.56,15.31,4.84,29.34,7,42.91,13.54,83.4,21,129.35,43.49,159.51,12.73,17.07,29.39,28,52.45,34.38,12.74,3.53,27.35,5.75,47.25,7,1.89,13.18,8.5,24.66,19.4,33.53a82.45,82.45,0,0,0,19.88,11.56c.09,1.53.15,3,.15,4.37,0,3.41-6.16,11.65-10.65,17.66C583.49,967.75,570,985.8,570,1010.31c0,13.2,7.53,28.55,20.15,41.06,14.06,14,31.77,21.63,49.85,21.63s35.79-7.68,49.85-21.63c12.62-12.51,20.15-27.86,20.15-41.06,0-24.51-13.49-42.56-23.35-55.73-4.49-6-10.65-14.25-10.65-17.66,0-1.38.06-2.84.15-4.37A82.45,82.45,0,0,0,696,921c10.86-8.84,17.47-20.28,19.39-33.41,20.4-1.23,35.28-3.4,48.21-6.87,23.34-6.27,40.21-17.11,53.08-34.1,22.81-30.14,30.3-76.29,43.91-160.07,2.2-13.57,4.48-27.61,7-42.92l0-.18c3.68-23.07,3.23-44.58-1.32-63.93A123.87,123.87,0,0,0,839.9,527C803.39,484.19,736.48,462.5,641,462.5Z"/><path class="cls-3" d="M832.59,560.27C787.66,566.88,666.76,587.44,679,616c12,27.94,122.1,11.27,166,3.41C845.94,596.67,841.63,577,832.59,560.27Z"/><path class="cls-3" d="M685,694c6.22,22.82,92.29,26,144.81,25.85,3.25-19.3,6.73-41.18,10.81-66C786.74,657.89,678.22,669.13,685,694Z"/><path class="cls-3" d="M825.75,743C774.28,741.87,696,744.22,694,769c-1.92,23.72,66.45,33.88,115.76,38.11C816,790.84,820.83,769.91,825.75,743Z"/><path class="cls-3" d="M449.38,560.34c-9,16.73-13.33,36.42-12.4,59.16,44.26,7.9,153.59,24.34,165.52-3.5C614.7,587.54,494.67,567,449.38,560.34Z"/><path class="cls-3" d="M441.38,653.86c4.08,24.81,7.56,46.69,10.81,66,52.52.18,138.59-3,144.81-25.85C603.78,669.13,495.26,657.89,441.38,653.86Z"/><path class="cls-3" d="M456.24,743c4.93,26.87,9.74,47.79,16,64.06,49.28-4.26,117.2-14.42,115.28-38.07C585.5,744.3,507.72,741.88,456.24,743Z"/><path class="cls-3" d="M641,864c56.87,0,94.29-.61,120.08-8.57C732.56,835.09,693.78,821.18,641,821h-1c-52.6.17-91.29,14-119.78,34.2C546.05,863.37,583.63,864,641,864Z"/><path class="cls-3" d="M641,487.5c-28.8,0-55,2.07-78.34,6.26,3.38,46.88,20.87,64,77.34,64.23h1c56.54-.2,74-17.4,77.35-64.41C695.27,489.51,669.39,487.5,641,487.5Z"/></svg>