<svg id="Work" xmlns="http://www.w3.org/2000/svg" xmlns:xlink="http://www.w3.org/1999/xlink" viewBox="0 0 1280 1280"><defs><style>.cls-1{fill:#919191;}.cls-2{fill:url(#radial-gradient);}.cls-3{fill:#676767;}</style><radialGradient id="radial-gradient" cx="504.91" cy="625.7" r="490.22" gradientUnits="userSpaceOnUse"><stop offset="0.35" stop-color="silver"/><stop offset="0.43" stop-color="#bababa"/><stop offset="0.53" stop-color="#aaa"/><stop offset="0.64" stop-color="#919191"/></radialGradient></defs><path class="cls-1" d="M526.33,821.65c.36-5.17,1.82-22.2,3.22-38.7l-26.66-8.21c-1,18.28-2.09,39.28-2.49,45.11-.69,9.89-39,13.2-41.07,42.89S496,897.09,495.63,903s.11,12.93-.37,19.86c-1.72,24.73-36.87,40.19-39,70.86-.82,11.88,16.35,38.92,42.29,40.72S545.22,1011.85,546,1000c2.13-30.67-30.55-50.83-28.84-75.57.48-6.92,2-13.78,2.37-19.72s39.46-5.22,41.52-34.9S525.65,831.54,526.33,821.65Z"/><path class="cls-2" d="M583.5,468.5c56,0,216,30,216,101v79c0,60-48,212-129,212-57,0-114,1-145-26s-55-170-55-226S527.5,468.5,583.5,468.5Z"/><path d="M583.5,468.5c56,0,216,30,216,101v79c0,60-48,212-129,212H658.93c-37.44,0-74.11-.42-102.61-9.52a30.2,30.2,0,0,1,4.77,18.81c-2.06,29.68-41.11,29-41.52,34.9s-1.89,12.8-2.37,19.72c-1.71,24.74,31,44.9,28.84,75.57-.79,11.46-20.12,34.58-44.77,34.58-.9,0-1.81,0-2.72-.09-25.94-1.8-43.11-28.84-42.29-40.72,2.13-30.67,37.28-46.13,39-70.86.48-6.93,0-13.92.37-19.86s-38.36-10.61-36.3-40.29,40.38-33,41.07-42.89c.29-4.17.93-16.1,1.64-29.24C483.19,735.94,470.5,649.22,470.5,608.5c0-56,57-140,113-140m0-25c-18.35,0-36.88,6.11-55.08,18.15-15,9.94-29.65,24-42.33,40.74A219.7,219.7,0,0,0,457,553.82c-7.54,19.1-11.53,38-11.53,54.68,0,43.61,12.78,129.14,31.32,185.55-.26,4.83-.52,9.63-.75,13.73-6.56,3.4-15.34,8-23.17,15.26a56.26,56.26,0,0,0-18.51,38c-1.15,16.54,4.75,31.36,17.05,42.87a81.94,81.94,0,0,0,19,12.91c0,1.53-.06,3-.15,4.37-.24,3.41-6.95,11.19-11.85,16.88-10.74,12.46-25.45,29.53-27.15,54-.91,13.16,5.54,29,17.26,42.35,13.06,14.89,30.19,23.77,48.24,25,1.47.1,3,.15,4.45.15,17.08,0,34.15-6.89,48.06-19.41,12.68-11.42,20.78-25.79,21.65-38.44,1.7-24.45-10.51-43.39-19.43-57.21-4.07-6.31-9.64-15-9.41-18.36.1-1.38.26-2.83.45-4.35a81.79,81.79,0,0,0,20.64-10.16c10.66-7.51,17.79-17.52,21-29.33,22.68,2.87,47.72,3.2,74.7,3.2H670.5c25.56,0,49.65-10.64,71.6-31.61,17-16.22,32.36-38.41,45.76-66,21.57-44.37,36.64-101.7,36.64-139.43v-79a72.92,72.92,0,0,0-10.44-37.41c-5.84-9.91-14.16-19.26-24.75-27.79-16.87-13.6-39.94-25.55-68.58-35.53C670.9,451.41,614.66,443.5,583.5,443.5Z"/><path class="cls-3" d="M562.09,813.42c-19.21-2.93-37.67-5.42-53.35-5.4,5.26,12.07,10.88,21.36,16.76,26.48,27.85,24.25,76.67,25.91,127.63,26C641.44,829.93,606.67,820.23,562.09,813.42Z"/><path class="cls-3" d="M709,491.16C662.81,475.63,610.8,468.5,583.5,468.5c-16.92,0-33.92,7.67-49.42,19.92C545.77,513.22,572.18,545,627,545,683.41,545,702.59,514.92,709,491.16Z"/><path class="cls-3" d="M799.5,630V581.93c-34.29-2.51-85.13,4.33-131.5.07-71.24-6.54-131.44-25.8-139-5s54.58,40,129,47C708.11,628.74,763.2,633.52,799.5,630Z"/><path class="cls-3" d="M680,661c-71-8.69-131.77-28.84-138-2-9.65,41.56,157.51,65.5,246.4,56.68a334.56,334.56,0,0,0,9.11-42.5C765.69,668.45,721.36,666.06,680,661Z"/><path class="cls-3" d="M773.07,759.93c-30.2-4.41-73.38-3.06-112.07-13.93-57.41-16.14-108.14-43.92-117-20-27.84,57.82,120.12,76.4,207.08,76.85A293.08,293.08,0,0,0,773.07,759.93Z"/></svg>