<svg id="Work" xmlns="http://www.w3.org/2000/svg" xmlns:xlink="http://www.w3.org/1999/xlink" viewBox="0 0 1280 1280"><defs><style>.cls-1{fill:url(#radial-gradient);}.cls-2{fill:#676767;}.cls-3{opacity:0.3;}.cls-4{fill:#868686;}.cls-5{fill:url(#radial-gradient-2);}</style><radialGradient id="radial-gradient" cx="641.07" cy="619.89" r="365.22" gradientTransform="translate(1442.23 -21.17) rotate(90) scale(1 1.29)" gradientUnits="userSpaceOnUse"><stop offset="0.35" stop-color="silver"/><stop offset="0.43" stop-color="#bababa"/><stop offset="0.53" stop-color="#aaa"/><stop offset="0.64" stop-color="#919191"/></radialGradient><radialGradient id="radial-gradient-2" cx="640.91" cy="594.39" r="316.04" gradientUnits="userSpaceOnUse"><stop offset="0.54" stop-color="silver"/><stop offset="0.61" stop-color="#bcbcbc"/><stop offset="0.69" stop-color="#afafaf"/><stop offset="0.77" stop-color="#9a9a9a"/><stop offset="0.8" stop-color="#919191"/></radialGradient></defs><path class="cls-1" d="M639.5,488.5c-228,0-199,104-199,140s23,189,39,211,98,37,160,37,144-15,160-37,39-175,39-211S867.5,488.5,639.5,488.5Z"/><path class="cls-2" d="M823.16,749.79C791.67,749,727,750.53,727,775.5c0,22.17,51,28.54,84.47,30.34C815.48,790,819.5,770.31,823.16,749.79Z"/><path class="cls-2" d="M836.72,655.16C803.92,657,733,663.67,733,687.5c0,21.89,59.84,30.32,95,33.38C831.81,696.73,834.9,673.27,836.72,655.16Z"/><path class="cls-2" d="M833.79,562.78c-34.81,6-101.29,19.48-101.29,35.72,0,16.8,71.75,23.69,106.09,26C839.21,609.51,842.44,586,833.79,562.78Z"/><path class="cls-2" d="M455.49,747.82c3.61,20.41,7.58,40.06,11.56,56.09C500.48,802.23,553,796,553,773.5,553,748.17,486.44,747,455.49,747.82Z"/><path class="cls-2" d="M442.28,655.1c1.82,18.15,4.92,41.66,8.73,65.86,35-3,96-11.36,96-33.46C547,663.42,474.6,656.84,442.28,655.1Z"/><path class="cls-2" d="M445.21,562.78c-8.65,23.26-5.42,46.73-4.8,61.72,34.34-2.31,106.09-9.2,106.09-26C546.5,582.26,480,568.74,445.21,562.78Z"/><g class="cls-3"><path class="cls-4" d="M639.5,1054c-29.46,0-51-28.73-51-43.69,0-18.19,10.39-32.09,19.56-44.35,7.43-9.93,14.44-19.31,14.44-29,0-3.38-.26-6.86-.51-10.23-.19-2.5-.37-4.89-.45-7.23-1.34-.64-3.44-1.46-5.1-2.11-11.86-4.65-33.94-13.31-33.94-38,0-22.23,17.65-33,29.33-40.09,3.23-2,7.59-4.61,8.67-6,0-5.44-.26-21-.5-36.08s-.49-30.87-.5-36.34c-1-1.45-5.12-4.32-8.2-6.45-11.87-8.19-29.8-20.56-29.8-45.58,0-18.93,16.13-26.36,25.77-30.8a52.12,52.12,0,0,0,6.22-3.16c-.07-6-.54-25.14-1-43.75-.47-19.29-.91-37.62-1-43.8a62.81,62.81,0,0,0-7.89-3.41c-11.2-4.31-28.12-10.81-28.12-27.81,0-9.81,20-30,24-33.92,9.38-9.2,27-24.65,40-24.65s30.57,15.45,40,24.65c4,4,24,24.11,24,33.92,0,17-16.92,23.5-28.12,27.81a62.81,62.81,0,0,0-7.89,3.41c-.08,6.18-.52,24.51-1,43.8-.45,18.61-.92,37.79-1,43.75a52.12,52.12,0,0,0,6.22,3.16c9.64,4.44,25.77,11.87,25.77,30.8,0,25-17.93,37.39-29.8,45.58-3.08,2.13-7.25,5-8.2,6.45,0,5.47-.26,21.15-.5,36.34s-.48,30.64-.5,36.08c1.08,1.44,5.44,4.09,8.67,6,11.68,7.11,29.33,17.86,29.33,40.09,0,24.65-22.08,33.31-33.94,38-1.66.65-3.76,1.47-5.1,2.11-.08,2.34-.26,4.73-.45,7.23-.25,3.37-.51,6.85-.51,10.23,0,9.73,7,19.11,14.44,29,9.17,12.26,19.56,26.16,19.56,44.35C690.5,1025.27,669,1054,639.5,1054Z"/><path class="cls-4" d="M639.5,503.5c18,0,58,43.64,58,52.57,0,20.82-36,21.82-36,29.75s-2,82.32-2,90.25,32,8.93,32,32.73c0,33.72-38,41.66-38,51.58s-1,63.47-1,73.39,38,15.87,38,45.62-39,31.74-39,37.69-1,12.9-1,19.84c0,24.79,34,42.65,34,73.39,0,11.9-19,37.69-45,37.69s-45-25.79-45-37.69c0-30.74,34-48.6,34-73.39,0-6.94-1-13.89-1-19.84s-39-7.93-39-37.69,38-35.7,38-45.62-1-63.48-1-73.39-38-17.86-38-51.58c0-23.8,32-24.79,32-32.73s-2-82.32-2-90.25-36-8.93-36-29.75c0-8.93,40-52.57,58-52.57m0-12c-6.72,0-14.36,2.95-23.36,9a154.73,154.73,0,0,0-20.8,17.36,178.37,178.37,0,0,0-16.89,19c-7.89,10.46-9,15.58-9,19.21,0,6.67,2.28,16.27,13.16,24.14,6,4.35,13.11,7.08,18.8,9.27,1.28.49,2.8,1.08,4.11,1.62.16,8.24.54,23.84.93,40.14.39,15.75.78,31.92.93,40.07l-2.67,1.25c-5.3,2.44-11.9,5.47-17.63,10.57A33.13,33.13,0,0,0,575.5,708.8c0,28.17,20.28,42.16,32.39,50.52,1.84,1.27,4.17,2.88,5.63,4,.05,6.79.26,20,.48,33.9.21,13,.42,26.38.48,33.26-1.55,1.09-3.9,2.52-5.77,3.66-12,7.33-32.21,19.61-32.21,45.21a39.52,39.52,0,0,0,15.17,31.51c7.55,6.15,16.24,9.55,22.58,12l1.5.59c.08,1.21.17,2.41.25,3.61.25,3.25.5,6.62.5,9.78,0,7.74-6.14,15.94-13.24,25.44-9.73,13-20.76,27.76-20.76,47.95,0,9.66,6.25,21.86,16.3,31.83,11.61,11.52,26.07,17.86,40.7,17.86s29.09-6.34,40.7-17.86c10-10,16.3-22.17,16.3-31.83,0-20.19-11-34.94-20.76-47.95-7.1-9.5-13.24-17.7-13.24-25.44,0-3.16.25-6.53.5-9.78.08-1.2.17-2.4.25-3.61l1.5-.59c6.34-2.49,15-5.89,22.58-12a39.52,39.52,0,0,0,15.17-31.51c0-25.6-20.17-37.88-32.21-45.21-1.87-1.14-4.22-2.57-5.77-3.66.06-6.88.27-20.25.48-33.26.22-13.88.43-27.11.48-33.9,1.46-1.16,3.79-2.77,5.63-4C683.22,751,703.5,737,703.5,708.8a33.13,33.13,0,0,0-11.63-25.67c-5.73-5.1-12.33-8.13-17.63-10.57l-2.67-1.25c.15-8.15.54-24.32.93-40.07.39-16.3.77-31.9.93-40.14,1.31-.54,2.83-1.13,4.11-1.62,5.69-2.19,12.78-4.92,18.8-9.27,10.88-7.87,13.16-17.47,13.16-24.14,0-3.63-1.06-8.75-9-19.21a178.37,178.37,0,0,0-16.89-19,154.73,154.73,0,0,0-20.8-17.36c-9-6.06-16.64-9-23.36-9Z"/></g><path class="cls-5" d="M697.5,556.07c0-8.93-40-52.57-58-52.57s-58,43.64-58,52.57c0,20.82,36,21.82,36,29.75s2,82.32,2,90.25-32,8.93-32,32.73c0,33.72,38,41.66,38,51.58s1,63.47,1,73.39-38,15.87-38,45.62,39,31.74,39,37.69,1,12.9,1,19.84c0,24.79-34,42.65-34,73.39,0,11.9,19,37.69,45,37.69s45-25.79,45-37.69c0-30.74-34-48.6-34-73.39,0-6.94,1-13.89,1-19.84s39-7.93,39-37.69-38-35.7-38-45.62,1-63.48,1-73.39,38-17.86,38-51.58c0-23.8-32-24.79-32-32.73s2-82.32,2-90.25S697.5,576.89,697.5,556.07Z"/><path d="M639.5,488.5c228,0,199,104,199,140s-23,189-39,211c-11.87,16.33-60.1,28.8-109.52,34.14a32.1,32.1,0,0,1,.52,5.75c0,29.76-39,31.74-39,37.69s-1,12.9-1,19.84c0,24.79,34,42.65,34,73.39,0,11.9-19,37.69-45,37.69s-45-25.79-45-37.69c0-30.74,34-48.6,34-73.39,0-6.94-1-13.89-1-19.84s-39-7.93-39-37.69a32.1,32.1,0,0,1,.52-5.75c-49.42-5.34-97.65-17.81-109.52-34.14-16-22-39-175-39-211s-29-140,199-140m0-25c-96.83,0-160.81,18-195.62,55a106.66,106.66,0,0,0-27.51,55.65c-3,17.22-2,33.05-1.32,44.62.24,3.88.45,7.23.45,9.7,0,19.47,5.83,67.82,13.85,115,15.49,90.89,26,105.32,29.93,110.75,9.2,12.66,26.3,22.33,53.81,30.46A389.7,389.7,0,0,0,566,895.91,52.89,52.89,0,0,0,583.47,921a82.45,82.45,0,0,0,19.88,11.56c.09,1.53.15,3,.15,4.37,0,3.41-6.16,11.65-10.65,17.66-9.86,13.17-23.35,31.22-23.35,55.73,0,13.2,7.53,28.55,20.15,41.06,14.06,14,31.77,21.63,49.85,21.63s35.79-7.68,49.85-21.63c12.62-12.51,20.15-27.86,20.15-41.06,0-24.51-13.49-42.56-23.35-55.73-4.49-6-10.65-14.25-10.65-17.66,0-1.38.06-2.84.15-4.37A82.45,82.45,0,0,0,695.53,921,52.89,52.89,0,0,0,713,895.91a389.7,389.7,0,0,0,52.91-11.25c27.51-8.13,44.61-17.8,53.81-30.46,3.95-5.43,14.44-19.86,29.93-110.75,8-47.13,13.85-95.48,13.85-115,0-2.47.21-5.82.45-9.7.72-11.57,1.7-27.4-1.32-44.62a106.66,106.66,0,0,0-27.51-55.65c-34.81-37-98.79-55-195.62-55Z"/></svg>