<svg id="Work" xmlns="http://www.w3.org/2000/svg" xmlns:xlink="http://www.w3.org/1999/xlink" viewBox="0 0 1280 1280"><defs><style>.cls-1{fill:url(#radial-gradient);}.cls-2{fill:#313031;}</style><radialGradient id="radial-gradient" cx="691.78" cy="582.38" r="155.71" gradientTransform="translate(-428.54 736.66) rotate(-60.13) scale(1 1.54)" gradientUnits="userSpaceOnUse"><stop offset="0.35" stop-color="#c0c1c0"/><stop offset="0.56" stop-color="#bcbdbc"/><stop offset="0.77" stop-color="#afb0af"/><stop offset="0.99" stop-color="#9a9c9a"/><stop offset="1" stop-color="#999b99"/></radialGradient></defs><path class="cls-1" d="M722.5,860.5c-12.06,0-19.28-11.81-26.92-24.32-4-6.52-8.48-13.88-12.22-16.65-2.36-1-10.7-3-18.78-5-31.55-7.71-90.26-22.07-141.76-50.72-65.05-36.18-98.13-83.72-98.32-141.3,0-62.85,26-113.42,75.1-146.28C551.28,441.69,607.84,439,624,439c40.28,0,76,6.69,106.23,19.87,25.59,11.18,47.29,27,64.47,47.06C825.71,542.16,834,582.74,834,601c0,38.28-1.18,110-9,161.12-.64,9-1,17.36-1.38,24.77-.77,16.38-1.28,27.19-3.63,33.91-5,14.41-21.87,25.38-50,32.63C749.39,858.72,728.76,860.5,722.5,860.5Z"/><path d="M624,449c168.22,0,200,118.5,200,152,0,15.4,0,102-9,160-1.93,27.06-1.66,48.38-4.5,56.5-9.09,26-76.44,33-88,33s-21.26-31-33.89-39.5S435,772,434.5,622.5C434.5,486,559.79,449,624,449m0-20a240.24,240.24,0,0,0-61.88,8.6c-25.21,6.8-48.1,17-68,30.34-36.28,24.27-79.54,70.78-79.54,154.56v.07c.11,33.63,10.89,64.43,32,91.57,17,21.88,41.08,41.54,71.44,58.43,52.67,29.3,112.24,43.87,144.24,51.7,6,1.48,12.78,3.12,16,4.1,2.48,2.68,6.52,9.28,8.81,13a134.13,134.13,0,0,0,10.75,15.87c7.31,8.78,15.62,13.23,24.7,13.23,6.93,0,28.25-1.8,49.91-7.38,32-8.25,50.67-21,57-39,2.83-8.09,3.37-19.49,4.18-36.73.34-7.25.72-15.44,1.33-24.14C842.81,711.5,844,639.46,844,601c0-12.65-3.19-28.89-8.75-44.57a179.61,179.61,0,0,0-33-57c-18.17-21.2-41.07-37.92-68.06-49.71C702.71,436,665.62,429,624,429Z"/><path class="cls-2" d="M723.09,689.21C728.47,662.75,763.4,656.59,785,661c38.21,7.78,35.69,41.77,33.78,51.17s-7.8,36.78-44,29.4C744.31,735.37,717.7,715.67,723.09,689.21Z"/></svg>