<svg id="Work" xmlns="http://www.w3.org/2000/svg" xmlns:xlink="http://www.w3.org/1999/xlink" viewBox="0 0 1280 1280"><defs><style>.cls-1{fill:url(#radial-gradient);}.cls-2{fill:#313031;}</style><radialGradient id="radial-gradient" cx="640" cy="607.18" r="211.73" gradientTransform="matrix(0, -0.93, 0.78, 0, 169.02, 1220.76)" gradientUnits="userSpaceOnUse"><stop offset="0.66" stop-color="#c0c1c0"/><stop offset="0.77" stop-color="#bcbdbc"/><stop offset="0.88" stop-color="#afb0af"/><stop offset="1" stop-color="#9a9c9a"/><stop offset="1" stop-color="#999b99"/></radialGradient></defs><path class="cls-1" d="M640,865.17c-27.51,0-40.21-3.75-55.3-11.15-13.3-6.51-16.3-28-16.77-42.17-17.62-1.2-43.17-6.09-65.06-22.48C473.76,767.57,459,732.31,459,684.58V619.92c0-14.4,2.74-65,38.06-111,22.76-29.63,66-65,142.94-65s120.18,35.33,142.94,65c35.32,46,38.06,96.56,38.06,111v64.66c0,47.73-14.76,83-43.87,104.79-21.89,16.39-47.44,21.28-65.06,22.48C711.6,826,708.6,847.51,695.3,854,680.21,861.42,667.51,865.17,640,865.17Z"/><path d="M640,454c132,0,171,107.5,171,165.92v64.66c0,101.26-70,117.62-109,117.62,0,0,1.59,36.61-11.14,42.84S667,855.17,640,855.17s-38.18-3.89-50.9-10.13S578,802.2,578,802.2c-39,0-109-16.36-109-117.62V619.92C469,561.5,508,454,640,454m0-20c-81,0-126.74,37.45-150.87,68.87a199.41,199.41,0,0,0-40.13,117v64.66c0,26.56,4.49,49.9,13.34,69.37a110.67,110.67,0,0,0,34.54,43.42c20.42,15.29,43.59,21.38,61.73,23.63.09.88.18,1.77.29,2.67a82.2,82.2,0,0,0,4.4,19.17c3.68,9.66,9.4,16.44,17,20.17,16.11,7.89,30.4,12.16,59.7,12.16s43.59-4.27,59.7-12.16c7.6-3.73,13.32-10.51,17-20.17a82.2,82.2,0,0,0,4.4-19.17c.11-.9.2-1.79.29-2.67,18.14-2.25,41.31-8.34,61.73-23.63A110.67,110.67,0,0,0,817.66,754c8.85-19.47,13.34-42.81,13.34-69.37V619.92a199.41,199.41,0,0,0-40.13-117C766.74,471.45,721,434,640,434Z"/><path class="cls-2" d="M559.9,669.51c31.88,0,50.67,19.94,50.67,36.94s-18,39.16-45.76,39.16-43.32-31-43.32-41.38S528,669.51,559.9,669.51Z"/><path class="cls-2" d="M720.1,669.51c-31.88,0-50.67,19.94-50.67,36.94s18,39.16,45.76,39.16,43.32-31,43.32-41.38S752,669.51,720.1,669.51Z"/></svg>