<svg id="Layer_1" data-name="Layer 1" xmlns="http://www.w3.org/2000/svg" viewBox="0 0 1280 1280"><defs><style>.cls-1{fill:#3e4129;}.cls-2{fill:#555b34;}.cls-3{fill:#656d39;}.cls-4{opacity:0.25;}</style></defs><path class="cls-1" d="M1040.55,127.69C1022.14,110.75,999,102.92,973.69,105c-.29,0-.58.06-.87.09-50.62,6.53-84.68,32.06-101.23,75.86-13.52,35.8-13.63,79.07-13.72,117.26-.09,37.83-.18,77-14.5,90.61-1.87,1.78-7.54,7.2-24,6.45l-.44,0c-21.73-.49-38.35-72.87-50.49-125.72-11.64-50.7-23.68-103.14-44.18-144.82-25.57-52-61-77.55-105.51-75.9-45.09.13-107,23.47-146.53,133.52-24.58,68.37-31.14,144.11-31.14,178.08,0,18.27-.56,39.8-1.53,62.18-8-62.3-48.55-141.53-139.76-141.53-35.37,0-62.56,10.09-80.8,30-15.51,16.93-23.71,40.69-23.71,68.73,0,165.5,6.88,216.7,12.41,257.84,3.88,28.86,6.94,51.66,6.94,106,0,119.28,149.55,145.32,221.42,157.83,9.25,1.61,20.13,3.51,26.94,5.09,1.92,15.31,5.18,62.3,5.18,204.81,0,10.74-1.14,13.51-3.23,18.54-5.49,13.28-10.06,28.28-10.3,76.18,20.92,7.33,22.52,12.47,34.49,16a19.24,19.24,0,0,0,4.2-12c0-47.55,4.27-57.84,7.38-65.37,3.61-8.73,6.17-16.23,6.17-33.34,0-205.39-6.35-219.69-9.41-226.57a19.91,19.91,0,0,0-2.2-3.75c-7.39-9.85-20.62-12.15-52.58-17.71-66.18-11.52-189.35-33-189.35-119.7,0-56.95-3.38-82.08-7.29-111.17-5.37-40-12.06-89.78-12.06-252.69,0-40.38,21.52-60,65.8-60,83.73,0,102.58,93.16,102.58,125.8,0,26.11.47,63.88,2.71,95.48,1.27,17.88,2.92,31.49,5.06,41.61,1.63,7.74,6.6,31.29,27.07,31.29,21.14,0,25.35-25,28.43-43.2,2.72-16.17,5.27-38.46,7.55-66.26,3.88-47.3,6.6-106.54,6.6-144.08,0-57.64,23.65-272.9,139.35-272.9H620c.84,0,1.68,0,2.51,0,64.5,0,87.75,101.26,108.3,190.74C749.77,361,766.2,432.59,817.85,434c21.72.93,39.32-4.81,52.23-17.11,26.28-25.05,26.39-70.46,26.5-118.54.21-87,5.95-144.88,80.74-154.76,14.5-1.11,26.6,3,37,12.6,23.37,21.51,30.63,62.21,30.63,74.6V555.92c0,21.89-9,41.28-27.41,59.27-49.45,48.23-157.17,71.91-216,70.41a19.45,19.45,0,0,0-14.17,5.66c-6.08,6.08-6.29,12.12-6.93,30-.36,10-.68,24.48-1,43-.49,31.25-.87,74.65-1.15,129-.46,89.62-.49,181.27-.49,198.73,0,9.8,4,19.88,9.56,33.82,8.22,20.66,19.48,49,19.48,84.24a19.3,19.3,0,0,0,6.82,14.73c9-3.17,18.31-7.86,31.88-14.64v-.09c0-42.7-13.37-76.31-22.21-98.55-2.95-7.41-6.63-16.65-6.82-19.51,0-150.45.79-316.4,2.5-367.93,67.09-2.75,170.51-27.58,225.5-81.21,25.94-25.3,39.09-54.56,39.09-87V230.77C1083.68,214.32,1075.76,160.09,1040.55,127.69Z"/><path class="cls-2" d="M619.18,68.19C764.34,62.38,733.37,412.7,818.53,414.63c127.74,5.81-23.23-267.09,156.77-290.31,69.67-5.81,89,81.29,89,106.45V555.92c0,110.32-185.8,151-263.22,149-3.87,3.87-3.87,369.67-3.87,387.09s29,58.06,29,118.06c0,29-71.61,19.35-183.87,19.35S474,1229.45,474,1210.1c0-85.16,13.55-61.94,13.55-98.71s0-201.29-7.74-218.7C468.21,877.2,234,879.14,234,743.66S214.67,658.5,214.67,379.8c0-42.58,21.29-79.36,85.16-79.36,91,0,121.93,92.9,121.93,145.16s1.94,149,15.49,149,23.22-166.45,23.22-234.19S487.57,68.19,619.18,68.19Z"/><path class="cls-3" d="M566,137.87C598.86,89.48,672.4,120.45,705.3,283s34.84,187.74,23.23,187.74c-75.48,7.74-96.77-120-100.64-193.54S533.05,186.25,566,137.87Z"/><path class="cls-3" d="M737.75,705.92c-40.15,0-34.91,56-34.91,214.4s-7,270.42,34.91,270.42,29.67-85,29.67-262.69S777.89,705.92,737.75,705.92Z"/><path class="cls-3" d="M269.83,377.86c23.23-38.71,92.9-46.45,112.26,108.38,5.14,41.19-1.94,114.19,17.42,129.68s65.92,14.93,71.61,56.13c7.74,56.12-73.55,21.29-118.06-1.94s-9.68-77.42-25.17-162.58S246.61,416.57,269.83,377.86Z"/><path class="cls-3" d="M951.11,180.45c54.19-44.52,83.22,42.57,85.15,73.54s-29,48.39-27.09,121.93,25.16,216.77-21.29,228.39-44.52-120-44.52-199.35,23.23-102.58,23.23-139.36S896.91,225,951.11,180.45Z"/><path class="cls-4" d="M601.14,1229.41c1.74-153.27.74-411.28-21.93-547.32-22.65-135.88-39.93-413.25-48.32-568.7-16.18,19.83-28.87,44.6-38.74,71,9.25,159.29,24.9,383.76,45.06,504.71,21.88,131.27,22.89,387.66,21.25,539.88C571.24,1229.23,585.46,1229.35,601.14,1229.41Z"/><path class="cls-4" d="M719.34,1230.53c-5-154.26-15.83-424.6-35.43-616.77C666.08,439,668.21,223.89,672.37,86.21a75.32,75.32,0,0,0-42-17.73c-4.5,137.81-7.56,365.56,11.22,549.6,19.39,190.1,30.19,457.65,35.16,611.64C691.89,1230,706.15,1230.26,719.34,1230.53Z"/><path class="cls-4" d="M363.44,804.49a542.38,542.38,0,0,0,76.95,12.65c.58,0,1.15.07,1.72.07a21.29,21.29,0,0,0,1.67-42.52,502.09,502.09,0,0,1-70.14-11.54c-47.94-11.83-62.42-25.94-63.41-32.41-5.22-33.9-2.93-280.36-.81-429.93-3.12-.23-6.31-.37-9.59-.37a123,123,0,0,0-33.06,4.1c-1.89,132.12-4.75,392.85,1.37,432.68C272.85,767.82,304,789.83,363.44,804.49Z"/><path class="cls-4" d="M406.67,705.9a21.29,21.29,0,1,0,12.76-40.62c-20.26-6.36-27.17-12.76-29.23-15.28l-.57-4.1c-10.21-73.7-3.88-204.1,2.76-296.24-10.19-14.81-23.37-27.75-40-36.64-7.4,91.75-16.94,247.64-5.32,336.07C346.39,661.57,351.84,688.68,406.67,705.9Z"/><path class="cls-4" d="M809,527.84c.33,0,2.38.09,5.78.09,11.49,0,38.32-.88,65.77-8,52.19-13.6,82.06-44.19,84.11-86.13,2.72-55.49,1.71-214.41.81-307.86-17.33,3.36-31.26,9.28-42.44,17.18.83,94.31,1.59,238-.89,288.6-2.75,56-110,53.66-111.44,53.6a21.29,21.29,0,0,0-1.7,42.55Z"/><path class="cls-4" d="M908.91,567.69a632.74,632.74,0,0,1-77.51,15.49,21.29,21.29,0,1,0,5.22,42.25,661.6,661.6,0,0,0,83.06-16.55c63-17.14,97.37-39.61,105.21-68.71l.75-2.81,0-2.91c0-3.24-1.84-229,.93-393.32a65.17,65.17,0,0,0-42.27-17c-3.06,155.09-1.54,372.77-1.27,406.8C980.09,536.26,966.92,551.84,908.91,567.69Z"/></svg>