<svg xmlns="http://www.w3.org/2000/svg" viewBox="0 0 1280 1280"><defs><style>.cls-1{fill:#2f4447;}.cls-2{fill:#679298;}.cls-3{fill:#8faaab;}.cls-4{fill:#4e6365;}</style></defs><g id="Work_Layer" data-name="Work Layer"><path d="M269.17,1173a37.11,37.11,0,0,1-26.23-10.77l-66.86-66.08A37.55,37.55,0,0,1,165,1069.62V163.8a37.07,37.07,0,0,1,10.92-26.37L242.32,71A37,37,0,0,1,268.71,60L640,61.5,1011.29,60A37,37,0,0,1,1037.68,71l66.4,66.45A37.06,37.06,0,0,1,1115,163.8v905.82a37.55,37.55,0,0,1-11.08,26.53l-66.86,66.08a37.11,37.11,0,0,1-26.23,10.77Z"/><path d="M1011.29,75a22.29,22.29,0,0,1,15.78,6.54l66.4,66.45A22.33,22.33,0,0,1,1100,163.8v905.81a22.35,22.35,0,0,1-6.63,15.88l-66.85,66.07a22.31,22.31,0,0,1-15.69,6.44H269.17a22.31,22.31,0,0,1-15.69-6.44l-66.85-66.07a22.35,22.35,0,0,1-6.63-15.88V163.8A22.33,22.33,0,0,1,186.53,148l66.4-66.45A22.29,22.29,0,0,1,268.71,75h.09L640,76.5,1011.2,75h.09m0-30h-.21L640,46.5,268.92,45h-.21a52,52,0,0,0-37,15.34l-66.39,66.45a52,52,0,0,0-15.31,37v905.81a52.62,52.62,0,0,0,15.54,37.21l66.85,66.07A52,52,0,0,0,269.17,1188h741.66a52,52,0,0,0,36.78-15.11l66.85-66.07a52.62,52.62,0,0,0,15.54-37.21V163.8a52,52,0,0,0-15.31-37L1048.3,60.37a52,52,0,0,0-37-15.33Z"/><path class="cls-1" d="M1027.07,563.58A22.27,22.27,0,0,0,1011.2,557L640,558.5,268.8,557a22.27,22.27,0,0,0-15.87,6.54L186.53,630A22.33,22.33,0,0,0,180,645.8v423.81a22.35,22.35,0,0,0,6.63,15.88l66.85,66.07a22.35,22.35,0,0,0,15.69,6.44h741.66a22.35,22.35,0,0,0,15.69-6.44l66.85-66.07a22.35,22.35,0,0,0,6.63-15.88V645.8a22.33,22.33,0,0,0-6.53-15.77Z"/><path class="cls-2" d="M1027.07,444.58A22.27,22.27,0,0,0,1011.2,438L640,439.5,268.8,438a22.27,22.27,0,0,0-15.87,6.54L186.53,511A22.33,22.33,0,0,0,180,526.8V950.61a22.35,22.35,0,0,0,6.63,15.88l66.85,66.07a22.35,22.35,0,0,0,15.69,6.44h741.66a22.35,22.35,0,0,0,15.69-6.44l66.85-66.07a22.35,22.35,0,0,0,6.63-15.88V526.8a22.33,22.33,0,0,0-6.53-15.77Z"/><path class="cls-1" d="M1027.07,381.58A22.27,22.27,0,0,0,1011.2,375L640,376.5,268.8,375a22.27,22.27,0,0,0-15.87,6.54L186.53,448A22.33,22.33,0,0,0,180,463.8V887.61a22.35,22.35,0,0,0,6.63,15.88l66.85,66.07A22.35,22.35,0,0,0,269.17,976h741.66a22.35,22.35,0,0,0,15.69-6.44l66.85-66.07a22.35,22.35,0,0,0,6.63-15.88V463.8a22.33,22.33,0,0,0-6.53-15.77Z"/><path class="cls-2" d="M1027.07,263.58A22.27,22.27,0,0,0,1011.2,257L640,258.5,268.8,257a22.27,22.27,0,0,0-15.87,6.54L186.53,330A22.33,22.33,0,0,0,180,345.8V769.61a22.35,22.35,0,0,0,6.63,15.88l66.85,66.07A22.35,22.35,0,0,0,269.17,858h741.66a22.35,22.35,0,0,0,15.69-6.44l66.85-66.07a22.35,22.35,0,0,0,6.63-15.88V345.8a22.33,22.33,0,0,0-6.53-15.77Z"/><path class="cls-1" d="M1027.07,200.58A22.27,22.27,0,0,0,1011.2,194L640,195.5,268.8,194a22.27,22.27,0,0,0-15.87,6.54L186.53,267A22.33,22.33,0,0,0,180,282.8V706.61a22.35,22.35,0,0,0,6.63,15.88l66.85,66.07A22.35,22.35,0,0,0,269.17,795h741.66a22.35,22.35,0,0,0,15.69-6.44l66.85-66.07a22.35,22.35,0,0,0,6.63-15.88V282.8a22.33,22.33,0,0,0-6.53-15.77Z"/><path class="cls-2" d="M1027.07,81.58A22.27,22.27,0,0,0,1011.2,75L640,76.5,268.8,75a22.27,22.27,0,0,0-15.87,6.54L186.53,148A22.33,22.33,0,0,0,180,163.8V587.61a22.35,22.35,0,0,0,6.63,15.88l66.85,66.07A22.35,22.35,0,0,0,269.17,676h741.66a22.35,22.35,0,0,0,15.69-6.44l66.85-66.07a22.35,22.35,0,0,0,6.63-15.88V163.8a22.33,22.33,0,0,0-6.53-15.77Z"/><polygon class="cls-3" points="570.5 587.5 570.5 447.29 430.5 446.29 430.5 307.5 570.5 307.5 570.5 167.5 710.5 167.5 710.5 307.5 849.5 307.5 849.5 448.5 710.5 448.5 710.5 587.5 570.5 587.5"/><path class="cls-4" d="M680.5,197.5v140h139v81h-139v139h-80v-140l-140-1v-79h140v-140h80m60-60h-200v140h-140V476.07l59.57.43,80.43.57V617.5h200v-139h139v-201h-139v-140Z"/></g></svg>