<svg xmlns="http://www.w3.org/2000/svg" xmlns:xlink="http://www.w3.org/1999/xlink" viewBox="0 0 640 640"><defs><style>.cls-1{fill:url(#linear-gradient);}.cls-2{fill:#383732;}.cls-3{fill:#4f554f;}.cls-4{fill:#3e3b33;}</style><linearGradient id="linear-gradient" x1="116.02" y1="390.52" x2="523.65" y2="390.52" gradientUnits="userSpaceOnUse"><stop offset="0" stop-color="#393833"/><stop offset="0.01" stop-color="#393833"/><stop offset="0.2" stop-color="#46453e"/><stop offset="0.39" stop-color="#4a4942"/><stop offset="0.66" stop-color="#4a4942"/><stop offset="0.84" stop-color="#43423c"/><stop offset="1" stop-color="#393833"/></linearGradient></defs><g id="Layer_1" data-name="Layer 1"><path d="M319.83,628.11c-88.64,0-141-32.67-169.28-60.08C116.9,535.44,106,500.73,106,489V166.66a94.94,94.94,0,0,1-.49-9.56c0-38.8,22.82-75,64.26-101.83C209.88,29.28,263,15,319.35,15S428.81,29.28,468.9,55.27c41.44,26.87,64.26,63,64.26,101.83,0,.85,0,1.72,0,2.62a9.94,9.94,0,0,1,.53,3.2V489c0,11.7-10.89,46.41-44.54,79C460.81,595.44,408.47,628.11,319.83,628.11Z"/><path d="M319.34,25C431.91,25,523.16,84.12,523.16,157.1c0,2-.08,3.89-.21,5.82h.7V489c0,19.41-42.71,129.08-203.82,129.08S116,508.44,116,489V166.15a85,85,0,0,1-.49-9.05c0-73,91.25-132.14,203.81-132.14m0-20c-58.25,0-113.3,14.89-155,41.92C143.27,60.55,126.6,76.65,114.8,94.74,102,114.33,95.53,135.31,95.53,157.1c0,3.26.16,6.64.49,10V489c0,15.5,12.91,52.61,47.57,86.18,19.31,18.71,42.54,33.53,69,44,31.5,12.51,67.57,18.85,107.19,18.85s75.69-6.34,107.2-18.85c26.5-10.52,49.73-25.34,69-44,34.66-33.57,47.58-70.68,47.58-86.18V162.92a20.34,20.34,0,0,0-.5-4.44c0-.46,0-.92,0-1.38,0-21.79-6.48-42.77-19.27-62.36-11.8-18.09-28.47-34.19-49.55-47.86C432.65,19.85,377.6,5,319.34,5Z"/><path class="cls-1" d="M319.83,162.92H116V489c0,19.41,42.7,129.08,203.81,129.08S523.65,508.44,523.65,489V162.92Z"/><path class="cls-2" d="M523.65,391.09C494.4,435.67,453,466.14,400.37,481.74c-43.93,13-80.19,10.28-80.54,10.25s-36.6,2.77-80.54-10.25c-52.65-15.6-94-46.07-123.27-90.65v47.38a241.34,241.34,0,0,0,36.36,32.7A256.71,256.71,0,0,0,231,509.66a283.11,283.11,0,0,0,78.66,11.71,96.87,96.87,0,0,0,10.16-.37,96.87,96.87,0,0,0,10.16.37,283.11,283.11,0,0,0,78.66-11.71,256.71,256.71,0,0,0,78.63-38.49,241.9,241.9,0,0,0,36.37-32.7Z"/><path class="cls-2" d="M523.65,267.83C494.4,312.41,453,342.88,400.37,358.48c-43.93,13-80.19,10.28-80.54,10.25s-36.6,2.77-80.54-10.25c-52.65-15.6-94-46.07-123.27-90.65v47.38a241.34,241.34,0,0,0,36.36,32.7A256.71,256.71,0,0,0,231,386.4a283.11,283.11,0,0,0,78.66,11.71,96.87,96.87,0,0,0,10.16-.37,96.87,96.87,0,0,0,10.16.37,283.11,283.11,0,0,0,78.66-11.71,256.71,256.71,0,0,0,78.63-38.49,241.9,241.9,0,0,0,36.37-32.7Z"/><ellipse class="cls-3" cx="319.34" cy="157.1" rx="203.81" ry="132.14"/><ellipse class="cls-4" cx="319.34" cy="152.25" rx="169.91" ry="99.48"/><path class="cls-2" d="M484.2,176.41c-3.43-53.09-75-95.5-162.85-95.5-90,0-163,44.54-163,99.48,0,1.35.06,2.68.14,4,22.84,39.16,86.22,67.33,160.83,67.33C399,251.73,465.76,219.67,484.2,176.41Z"/></g></svg>