<svg xmlns="http://www.w3.org/2000/svg" viewBox="0 0 640 640"><defs><style>.cls-1{fill:#635d5a;}.cls-2{fill:#4f554f;}.cls-3{fill:#8b8785;}.cls-4{fill:#63453b;}.cls-5{fill:#4a4942;}</style></defs><g id="Layer_1" data-name="Layer 1"><rect x="15.34" y="83.73" width="610" height="472.75"/><path d="M612.84,96.23V544h-585V96.23h585m25-25H2.84V569h635V71.23Z"/><rect class="cls-1" x="27.84" y="397.98" width="585" height="146.01"/><rect class="cls-2" x="58.99" y="427.18" width="522.7" height="87.6"/><rect class="cls-3" x="27.84" y="96.23" width="585" height="301.75"/><rect class="cls-2" x="58.99" y="135.17" width="522.7" height="233.69"/><path class="cls-4" d="M270.21,504.08H244.9c-18.49-10.71-28.23-8.76-28.23-8.76-14.32,0-23.18,9.12-28.61,19.46h199.6c-9-33.39-34.81-30.17-52.24-30.17C314,484.61,297,439.35,277,459.3s13.63,18.5,13.63,29.2S270.21,504.08,270.21,504.08Z"/><path class="cls-4" d="M491.87,427.18c-3.9,12.09-5.3,31.15,24.6,31.15,32,0,46.32-20.22,61.95-31.15Z"/><path class="cls-4" d="M27.84,515.38c21.2-35.49-7.79-57.05,29.2-94,0,0,33.09,2.92,59.37-23.36H47.31s-9.74-23.36-9.74-100.26c0,0-1.46-54,2-57.43s6.81-8.76,6.81-21.41-8.76-16.55-8.76-31.15V164.37s9.74-2.92,9.74-14.6-19.47-23.36-19.47-38V515.38Z"/><path class="cls-5" d="M59,135.17V368.86H84.82c26.1-13.44,58.85-36.6,58.85-68.22,0,0,49.64,7.79,49.64-25.31,0,0-17.52-20.44-17.52-38s48.67-41.85,47.7-55.48c-1-13.37,21.52-12.71,38.92-46.72Z"/><path class="cls-5" d="M258.53,224.72l5.84,46.72s54.51-60.35,173.26-54.51c0,0-31.15-28.23-104.15-27.25C333.48,189.68,296.49,194.54,258.53,224.72Z"/><path class="cls-5" d="M581.69,305.1C564.33,309,533.92,315.59,498,323c-7.79,2-32.12-11.68-70.08-35,0,0,23.28,59,83.71,80.87h70.08Z"/></g></svg>