<svg xmlns="http://www.w3.org/2000/svg" xmlns:xlink="http://www.w3.org/1999/xlink" viewBox="0 0 2199 1317"><defs><style>.cls-1{opacity:0.8;}.cls-2{fill:#63453b;}.cls-3{fill:#474240;}.cls-4{fill:#363636;}.cls-5{fill:#313031;}.cls-6{fill:url(#radial-gradient);}.cls-7{fill:#4e544e;}.cls-8{fill:#383732;}.cls-9{fill:#4a3418;}.cls-10{fill:url(#radial-gradient-2);}.cls-11{fill:url(#radial-gradient-3);}.cls-12{fill:#474a47;}.cls-13{fill:#422800;}.cls-14{fill:url(#radial-gradient-4);}.cls-15{fill:url(#radial-gradient-5);}.cls-16{fill:url(#radial-gradient-6);}.cls-17{fill:url(#radial-gradient-7);}.cls-18{fill:url(#radial-gradient-8);}.cls-19{fill:#635d5a;}.cls-20{fill:url(#radial-gradient-9);}.cls-21{fill:url(#radial-gradient-10);}.cls-22{fill:url(#radial-gradient-11);}.cls-23{fill:url(#radial-gradient-12);}</style><radialGradient id="radial-gradient" cx="-58.61" cy="575.61" r="780.24" gradientUnits="userSpaceOnUse"><stop offset="0" stop-color="#383732"/><stop offset="1" stop-color="#4e544e"/></radialGradient><radialGradient id="radial-gradient-2" cx="816.35" cy="810.39" r="312.46" gradientUnits="userSpaceOnUse"><stop offset="0.32" stop-color="#322715"/><stop offset="1" stop-color="#4b361c"/></radialGradient><radialGradient id="radial-gradient-3" cx="114.35" cy="938.74" r="737.34" xlink:href="#radial-gradient"/><radialGradient id="radial-gradient-4" cx="1358.04" cy="603.8" r="795.34" gradientUnits="userSpaceOnUse"><stop offset="0.28" stop-color="#5b5b5b"/><stop offset="0.3" stop-color="#595959"/><stop offset="0.52" stop-color="#474747"/><stop offset="0.75" stop-color="#3c3c3c"/><stop offset="1" stop-color="#383838"/></radialGradient><radialGradient id="radial-gradient-5" cx="1627.48" cy="665.19" r="634.81" gradientUnits="userSpaceOnUse"><stop offset="0.32" stop-color="#2b2b2b"/><stop offset="1" stop-color="#3f3f3f"/></radialGradient><radialGradient id="radial-gradient-6" cx="740.71" cy="548.43" r="331.18" xlink:href="#radial-gradient-2"/><radialGradient id="radial-gradient-7" cx="1795.39" cy="811.96" r="224.48" xlink:href="#radial-gradient-2"/><radialGradient id="radial-gradient-8" cx="1642.78" cy="884.74" r="164.95" xlink:href="#radial-gradient-2"/><radialGradient id="radial-gradient-9" cx="1275.74" cy="997.43" r="107.74" xlink:href="#radial-gradient-2"/><radialGradient id="radial-gradient-10" cx="1339.91" cy="997.43" r="97.16" xlink:href="#radial-gradient-2"/><radialGradient id="radial-gradient-11" cx="1433.83" cy="1017.78" r="131.54" xlink:href="#radial-gradient-2"/><radialGradient id="radial-gradient-12" cx="1811.67" cy="310.89" r="339.66" xlink:href="#radial-gradient-5"/></defs><g id="Layer_2" data-name="Layer 2"><image class="cls-1" width="320" height="192" transform="translate(50) scale(6.67)" xlink:href="../Desktop%20Subfolders/Projects/GAMES/RimWorld%20Modding/Assets/LudeonPublicArtAssets/Game%20Artsources/IdeologyArtSource/Things/Building/Ruins/AncientWarwalkerShell.png"/></g><g id="Layer_1" data-name="Layer 1"><path d="M1899.32,1277.43c-16.55,0-27.13-10.78-34.85-18.65-.7-.71-1.4-1.43-2.11-2.14s-1.86-1.9-4-4.28c-23.11-.84-37.52-5.48-47.38-15-11.82-11.47-12.59-26-13.2-37.67-.17-3.19-.34-6.29-.69-9.32a19.89,19.89,0,0,1-4.88-6.78c-.44-1-.93-2-1.51-3.19a64.87,64.87,0,0,0-6-9.75c0-.07-.11-.14-.16-.22-.44-.58-.89-1.13-1.34-1.69l-.37-.48.08.1c-.48-.58-.94-1.1-1.39-1.62l-.5-.57c-.39-.44-.85-.91-1.3-1.38l-.54-.57-1.36-1.33-.58-.56c-.43-.39-.88-.8-1.34-1.2l-.6-.52c-.5-.42-1-.81-1.45-1.19l-.6-.47c-.51-.4-1-.76-1.47-1.11l-.64-.46c-.47-.34-1-.68-1.48-1l-.61-.4-1.54-1-.62-.37c-.5-.29-1-.6-1.57-.89l-.54-.29c-.56-.3-1.11-.58-1.66-.85l-.46-.22c-.62-.3-1.2-.57-1.78-.82l-.45-.19c-.52-.23-1.11-.48-1.71-.71l-.29-.11a51,51,0,0,0-18-3.47,36.58,36.58,0,0,0-12,1.88l-1,.32c-2.44.93-9.61,4.45-25.35,17.19-.71,8.66-3.06,18.45-11.09,25.63-6.58,5.88-14.62,8-23.67,8.89-1.27,16.57-15.54,45.25-63.13,49.48-.59,0-1.18.08-1.77.08s-1,0-1.49-.06c-2.37-.17-237.29-17.68-319.43-17.68-11.42,0-17.21.35-20,.64-.72.07-1.44.11-2.15.11a19.46,19.46,0,0,1-17-9.65,68.91,68.91,0,0,0-18.83-18.53c-.49.25-1,.47-1.49.68-15.3,6.26-93,37.49-120.57,37.49h-721a20.12,20.12,0,0,1-8.56-1.92c-21.37-10.12-209.57-99.44-237.34-120a19.93,19.93,0,0,1-6.88-9.19l-26-71a20,20,0,0,1,5.34-21.69l45.35-41.15c-6.68-25.66-28.89-92.17-84.85-120.15a20,20,0,0,1-10.22-23.64l15-50a20,20,0,0,1,14.19-13.62c1.37-.35,134.18-34.42,277-68.46l-.13-3.78c-18.78,5.69-45.18,12.58-70.69,15.48a19,19,0,0,1-2.26.13c-1,0-2,0-2.95,0l-.9,0h-.13l-1.84-.1-.9-.08h-.18l-1.75-.16-1-.12-1.73-.23-1-.16-1.62-.28-1-.19-1.63-.35-.81-.18c-.65-.15-1.23-.3-1.81-.46l-.67-.17c-1.57-.44-3.15-.94-4.67-1.49l-.3-.12c-.67-.25-1.28-.48-1.87-.72l-.49-.2-1.61-.7-.56-.26-1.4-.68-.65-.33c-.4-.2-.86-.45-1.31-.69l-.47-.26c-.47-.26-.92-.53-1.37-.8l10.15-17.23-10.24,17.18-.25-.15-1.5-.94-.13-.09a52.71,52.71,0,0,1-4.6-3.4l-.18-.15c-.38-.32-.76-.64-1.11-1l-.26-.23-.89-.82-.25-.24-.83-.81-.29-.29-.77-.8-.24-.26-.75-.84-.16-.18c-.51-.59-1-1.22-1.51-1.83l-.62-.82-.53-.75c-.16-.22-.44-.64-.48-.69-.15-.23-.29-.44-.41-.64-.47-.73-.8-1.31-1-1.67a20,20,0,0,1-2.41-8.58c0-.18-.06-1.22-.13-2.85L159.9,708.08a20,20,0,0,1-24.2-7.72C133,696.1,68.31,594.6,73.52,471.65A20,20,0,0,1,84,454.91c10.44-5.66,22.24-13.63,24.76-16.71.41-.54,1.62-2.41,2.59-3.91,9.25-14.36,29.24-45.41,74.5-67.88a20,20,0,0,1-6.64-26.9c.95-1.66,10-16.75,33.81-36.14,27.78-22.64,63.67-41.88,106.85-57.28,2.31-13.69,10.16-29.7,29.72-39.48,13.4-6.7,123.1-51.64,227.81-92.24C793.83,30.43,817.24,30.43,826.06,30.43a32.86,32.86,0,0,1,3.65.19A20,20,0,0,1,846,58.15c-1.6,3.87-3.18,8-4.54,11.79l2.37.44,1.39.24,1.86.32,1.05.17,1.45.23,1,.15,2.66.38,1,.14,2.65.34,3.2.36.94.1,2.55.25.34,0,3.77.32.82.06,2.15.16,1,.06q2.12.14,4.32.24l.61,0,2.31.09,1.14,0c1.62.06,3.29.1,5,.12h.29l2.35,0h3.77c6.18,0,12.45-.28,18.62-.7,43.28-3,59.64-14.23,62.12-16.13A17.07,17.07,0,0,1,985.63,51a21.74,21.74,0,0,1,12,3.86c.13.09,3.31,2.21,7.79,5.41l3,2.15,1.77,1.3,1.7,1.26,1.57,1.18,2,1.53,1.7,1.32,1.65,1.3,1.66,1.33,1.8,1.48.42.34,1.58,1.34,1.68,1.45.45.4c.53.47,1.07.95,1.6,1.44l.1.09c.5.46,1,.91,1.47,1.37l.4.38,1.27,1.24.33.33c.5.5,1,1,1.47,1.51l.31.33c.43.46.82.89,1.2,1.32l.34.39c.33.37.63.73.92,1.07,62.77,5.18,218.93,17.83,296.53,22,24.57-14.64,48.1-14.64,61.2-14.64l3.85,0c2,0,4.39,0,7,0,69.63,0,121.94,24,155.45,71.48,24.84,34.53,59.65,75.65,84.53,75.65l2,0,2.18,0c28.14,0,44-19.06,47.07-56.64,3.68-44.84,22-68.2,36.74-79.9,16.65-13.22,32.52-15.14,35.53-15.39.55,0,1.11-.07,1.66-.07a20.14,20.14,0,0,1,2.79.2c65.15,9.17,105.39,52.08,127,75.13,4.25,4.52,7.91,8.44,10.49,10.72l2,1.83C2024.1,275.9,2038.5,311.56,2038.5,331.5s-6.61,39.74-13.59,55.26l14.17,25.78c18.78,34,35.05,63.78,35.14,63.95L2120,559.87a20,20,0,0,1,2.34,7.36l26.07,227.93.11.11a20,20,0,0,1,2.77,25.06l10,87.9a20,20,0,0,1-4.45,15,246,246,0,0,1-16.85,18.4c.85,67.69-2.28,121.42-9.32,159.81-6.05,32.94-15,55.06-27.34,67.62-8,8.17-17.71,12.48-28,12.48-.79,0-1.48,0-2.07,0h-.05c-5.81,0-54.31.66-79.5,1s-38.83,8.9-50.45,20.45c3.37,5.62,6.56,12.82,7,21.19.78,13.91-5.59,26.74-19.46,39.23C1920.37,1272.83,1910,1277.43,1899.32,1277.43Z"/><path d="M826.06,50.43a12.62,12.62,0,0,1,1.44.07s-12,29-10,34c0,0,1.44.52,4.16,1.31l1.65.46.34.09.83.23.6.16,1.26.32.92.23.88.22.9.21.9.22,1.65.37,1,.22,1.08.23,1.06.23,1.9.38,1.19.23,1.16.22,1.29.23,1.5.27,2,.34,1.16.19,1.57.25,1.14.17,2.87.41,1.11.15,1.84.23,1,.13,3.48.4,1,.11,2.1.21,1,.09,4,.35.88.07,2.32.16,1.07.07c1.52.1,3.06.18,4.64.26l.65,0,2.49.1,1.2,0c1.75.06,3.53.1,5.35.13h.29l2.55,0h4c6.29,0,12.91-.27,19.86-.75,58-4,75-22,75-22s3,2,7.27,5l.91.65.6.43.73.52.61.45,1,.75.64.46,1,.76.56.42c.34.26.69.51,1,.78l.45.33,1.44,1.1.44.33,1.12.87.47.37,1.5,1.18.15.12,1.37,1.11.44.35,1.2,1,.32.27c.5.41,1,.82,1.46,1.23l.32.27,1.14,1,.39.34,1.37,1.24h0c.44.4.86.8,1.28,1.2l.34.32,1,1,.25.24c.39.39.77.78,1.13,1.16l.23.25.83.91.27.3c.32.37.63.74.92,1.1h0c.29.35.54.69.79,1l.19.28c.19.27.37.54.53.8,0,.07.09.14.14.21.18.32.35.63.5.92,0,.07.05.14.08.2.11.24.2.47.28.69s0,.16.08.24a4.88,4.88,0,0,1,.17.79,10.17,10.17,0,0,0-1.22.57c58,4.82,235.44,19.33,315.4,23.38,20.79-14.43,40.85-14.95,55.82-14.95,2.69,0,6.37-.08,10.84-.08,30.39,0,97.32,3.8,139.16,63.08,57.54,80,86.79,84.05,100.82,84.05,1.58,0,3-.05,4.18-.05,12,0,61-2,67-75s54-77,54-77c71,10,109,65,127,81s122,107,122,142c0,20.34-8.78,41.68-16.14,56l0,0,.12,0,19,34.68c18.86,34.17,35,63.69,35.09,63.85l45.86,83.47,26.89,235.11c3.27,3.07,5.11,4.89,5.11,4.89l-4,4.55,11,96.45a219.64,219.64,0,0,1-21.56,22.66c3.83,220.27-34.26,228.39-44.55,228.39-.82,0-1.46,0-1.89,0-6,0-80,1-80,1-41.65.54-59.6,20.39-75.85,38.82,1.71,2.31,3,4.09,3.85,5.18,9,12,16,24-4,42-7.18,6.46-13.07,8.93-18.18,8.93-9.13,0-15.77-7.88-22.82-14.93-1.66-1.66-4.85-5.22-9.07-10l-.93,0c-66,0-40.78-27.88-53.26-60.1l-2.74,3.1q-.93-2.1-1.94-4.11a85.48,85.48,0,0,0-7.85-12.74l-.09-.13c-.61-.82-1.24-1.61-1.88-2.4l-.43-.54c-.59-.72-1.19-1.41-1.8-2.11l-.6-.68c-.59-.65-1.19-1.28-1.79-1.91-.23-.25-.46-.49-.7-.73-.59-.61-1.2-1.19-1.8-1.77l-.77-.73c-.61-.56-1.22-1.11-1.84-1.65l-.81-.71c-.62-.52-1.25-1-1.88-1.54l-.84-.66c-.63-.5-1.28-1-1.92-1.45l-.85-.61c-.66-.47-1.32-.92-2-1.36l-.84-.55c-.68-.44-1.37-.87-2.06-1.29l-.8-.47c-.71-.42-1.42-.83-2.14-1.22l-.74-.4c-.75-.4-1.5-.78-2.25-1.15l-.64-.31c-.8-.38-1.59-.75-2.39-1.1l-.49-.21c-.85-.37-1.71-.72-2.57-1l-.25-.1a70.64,70.64,0,0,0-25.14-4.79,56.81,56.81,0,0,0-18.48,3c-.48.17-1,.32-1.44.5-9.49,3.6-23.48,14-38,26.24-.18,21.74-3.33,24.42-27.5,24.72-6.08,5.74-11.77,11.25-16.7,16.11l9.21.93s0,28-45,32c0,0-237.07-17.74-320.92-17.74-9.52,0-17.08.23-22.08.74,0,0-12.73-21.21-37.53-31.59l-7.47,5.59s-88,36-113,36h-721s-207-98-234-118l-26-71,54-49s-18-105-98-145l15-50S233.82,754,384.14,718.34L382.5,671.5s-48,18-92,23c-.77,0-1.53,0-2.27,0l-.71,0c-.49,0-1,0-1.46-.08l-.8-.06-1.3-.12-.8-.1-1.21-.15-.76-.12-1.17-.2-.7-.13-1.19-.25-.59-.14-1.29-.32-.4-.11q-1.69-.46-3.21-1l-.21-.08-1.24-.48-.35-.15-1-.45-.37-.17-.94-.45-.36-.18-.89-.48a3.07,3.07,0,0,1-.31-.17c-.31-.17-.6-.34-.89-.52l-.23-.13c-.34-.21-.66-.41-1-.62l-.08,0a29.54,29.54,0,0,1-2.8-2.07l-.11-.09-.66-.57-.16-.13-.55-.51-.16-.16-.49-.48-.15-.15-.45-.46-.12-.13-.42-.47-.09-.1c-.31-.36-.59-.7-.83-1l-.12-.16-.2-.27-.16-.21-.11-.16-.16-.23-.06-.08a2.52,2.52,0,0,0-.15-.24h0c-.21-.32-.31-.51-.31-.51s-1-20.38-1-31l-103,41s-64-99-59-217c0,0,24-13,31-22s27-52,91-75c0,0,2-15-19-26,0,0,30-52,143-89,0,0-5-24,19-36C382.22,212.64,781.86,50.41,826.06,50.43m0-40c-10.69,0-28.28,2.16-101.54,27.76-40.36,14.1-92.29,33.46-154.36,57.53-107,41.51-215.46,86-229.53,93-18.25,9.13-31.38,24-37.58,42.25-40.89,15.54-75.35,34.63-102.68,56.9-26,21.2-36.63,38.41-38.5,41.64a40,40,0,0,0-4.12,29.84c-37.12,23.57-55.17,51.59-63.23,64.11l-1.14,1.76c-3.62,3-12.82,8.81-18.91,12.11a40,40,0,0,0-20.91,33.48C48.06,600,116,706.74,118.91,711.22a40,40,0,0,0,48.38,15.44l57.36-22.83.11.16.08.11c.12.17.24.33.36.51l0,0,.56.76.43.55c.68.87,1.4,1.74,2.14,2.6l.32.37,1,1.13,0,0,.31.33-.05,0c.35.38.71.76,1.1,1.15l.35.35c.37.38.77.77,1.19,1.17l.32.3.05,0c.1.1.2.2.31.29-86.79,21.4-150.82,37.82-151.78,38.07A40,40,0,0,0,53.19,779l-15,50a40,40,0,0,0,20.42,47.27c42,21,62.51,68.51,71.15,95.81l-36.14,32.79a40,40,0,0,0-10.68,43.37l26,71a40,40,0,0,0,13.75,18.39c5.93,4.39,19.81,14.68,133.34,70.28,54.73,26.81,106.83,51.49,107.35,51.73a39.92,39.92,0,0,0,17.12,3.85h721c11.16,0,29.32-2.42,79.36-20.34,15.84-5.67,30.35-11.3,39.36-14.86a47.49,47.49,0,0,1,5.15,6.08c7,12.45,19.61,19.15,33.61,19.15a44.34,44.34,0,0,0,4.58-.24c2-.2,6.88-.53,18-.53,81.39,0,315.58,17.45,317.94,17.63,1,.07,2,.11,3,.11,1.18,0,2.36,0,3.54-.16,48.44-4.3,70.09-30.11,77.85-52.15A52.71,52.71,0,0,0,1704.4,1207c10-9,14.45-19.85,16.44-29.79,8.75-6.68,12.82-8.78,13.77-9.23l.37-.12a16.7,16.7,0,0,1,5.44-.79,30.83,30.83,0,0,1,10.83,2.14l.28.11,1.06.44.38.16,1,.47.4.19,1,.49.3.16.14.08c.27.15.62.34,1,.58l0,0,.36.21c.3.18.64.39,1,.62l.43.28,1,.67.41.3,1,.73.3.24.12.1.89.72.19.17.24.21.87.77.09.09.35.34c.25.23.58.55.82.79l0,0,.41.43.81.86.42.48c.27.3.56.64.78.9l.36.45c.25.31.59.73.85,1.07l.06.08.12.16a45.63,45.63,0,0,1,4.15,6.76c.43.84.78,1.58,1.08,2.26a39.36,39.36,0,0,0,3.78,6.75c0,.77.08,1.56.12,2.36.68,12.73,1.8,34,19.25,51,14.38,14,33.93,18.72,52.27,20.21l.9.92c8.45,8.61,24.18,24.64,49.12,24.64,15.67,0,30.79-6.46,44.94-19.2,18.4-16.56,27.17-35.13,26-55.2a60.41,60.41,0,0,0-2.55-14.26c6.62-4,14.52-6.12,26.26-6.27,28.63-.39,72.13-1,78.9-1,.59,0,1.45,0,2.47,0,15.8,0,30.42-6.38,42.29-18.46,15.45-15.72,25.85-40.52,32.74-78,7-38,10.24-90.23,9.73-155.33,4.2-4.42,8.28-9,12.19-13.76a40,40,0,0,0,8.9-30l-9.39-82.11a40.07,40.07,0,0,0-4.2-36.74L2142.24,565a40,40,0,0,0-4.68-14.72l-45.84-83.42c-.82-1.5-16.67-30.48-35.14-64l-9.46-17.21c7.56-19.1,11.38-37.24,11.38-54.14s-7.33-34.84-23.08-56.71c-9.61-13.35-22.9-28.89-39.49-46.19-28.26-29.46-59.18-56.87-70.82-67.19l-2-1.81c-1.89-1.68-5.6-5.63-9.18-9.45-11-11.69-27.51-29.34-49.69-45.09-27.52-19.55-57.51-31.72-89.12-36.17a40,40,0,0,0-5.58-.39c-1.11,0-2.22,0-3.32.14-5.65.47-25.67,3.28-46.31,19.66-17.82,14.16-40,41.94-44.24,93.92-3.14,38.28-19.34,38.28-27.13,38.28l-2.55,0-1.63,0c-1.11,0-4.08,0-11.67-5.14-10.57-7.16-29-23.76-56.6-62.16-23.18-32.76-54.83-55.83-94.08-68.57-23.35-7.58-48.75-11.26-77.63-11.26-2.75,0-5.23,0-7.22,0l-3.62,0c-13.16,0-38.63,0-65.89,14.35-75.9-4.28-217.19-15.66-282.48-21l-1.34-1.31-.47-.44,0,0-1.8-1.68-.12-.11-1.76-1.58-.49-.43c-.49-.43-1-.86-1.49-1.29l0,0-.36-.31-1.81-1.53-.36-.29,0-.05-1.45-1.19-.1-.08-.44-.36h0l0,0-1.51-1.21-.23-.19-1.79-1.41-.43-.34-.11-.08-1.31-1-.09-.08-.37-.28-1.66-1.27-.06,0-.48-.36-1.17-.88-.62-.46-1.12-.83,0,0-.21-.15-.44-.32-1.16-.85-.46-.34-.2-.14-.84-.61-.67-.48-1-.72c-4.64-3.31-7.93-5.52-8.29-5.76a40,40,0,0,0-49,3.58c-2.26,1.43-16.2,9.4-51,11.79-5.76.4-11.61.62-17.38.66h-3.52l-2.13,0h-.35c-1.48,0-3-.06-4.63-.12l-1,0L877.55,54h-.17L877,54H877c-1.31-.06-2.66-.14-4-.22l-.31,0-.61,0-2-.14-.38,0-.36,0-1.93-.16a40,40,0,0,0-35.47-42.57,52.94,52.94,0,0,0-5.85-.32h0Z"/><path class="cls-2" d="M1730.5,1125.5s43-6,74,32-14,75,62,75c54-2,50-69,127-70,0,0,74-1,80-1s53,10,46-248c-10-201-127-509-127-509s26-38,26-73-104-126-122-142-56-71-127-81c0,0-48,4-54,77s-55,75-67,75-41,5-105-84c-48-68-129-63-150-63s-52,1-81,40S1730.5,1125.5,1730.5,1125.5Z"/><path class="cls-3" d="M1003.5,103.5s308,26,365,26c0,0,16,39,27,39h55s114,85,138,132-136,104-136,104l-504-136Z"/><polygon class="cls-4" points="1122.5 540.5 1020.5 805.5 1108.5 918.5 1501.5 861.5 1303.5 547.5 1122.5 540.5"/><path class="cls-5" d="M1116.5,633.5l-44,148s-132-25.39-141-120.2S1116.5,633.5,1116.5,633.5Z"/><path class="cls-6" d="M255.5,648.5l-103,41s-64-99-59-217c0,0,24-13,31-22s27-52,91-75c0,0,2-15-19-26,0,0,30-52,143-89,0,0-5-24,19-36s433-178,469-174c0,0-12,29-10,34,0,0,36,13,94,9s75-22,75-22,36,24,37,33c0,0-40,14-25,128,0,0,452,144,485,145,0,0-77,236-97,283,0,0-416.83-9.3-506,9,0,0-197,44-199,44s-297,15-297,15l-2-57s-48,18-92,23c-26,0-34-15-34-15S255.5,659.12,255.5,648.5Z"/><path class="cls-5" d="M1067.5,875.5s208-53,434-59,169,145,74,187S1137.5,1045.5,1067.5,875.5Z"/><path class="cls-7" d="M646.5,596.5l69-33-229,52L256.81,680c1.67,2.61,10.54,14.49,33.69,14.49,44-5,92-23,92-23l88-20Z"/><path class="cls-8" d="M805.5,500.5s-22-45-22-139c0-69,12-73,22-69,29,15,6.5,47.5,8,86s15,99,22,121C826.5,500.5,805.5,500.5,805.5,500.5Z"/><path class="cls-8" d="M998.5,232.5c-15-114,25-128,25-128-.72-6.44-19.33-20.54-29.88-28.06-14.54,11.25-33.14,36.25-36.12,91.06-3,56,14,65,14,65s5,8,26,10c2.59,0,3.81-3.38,4.3-8.95Z"/><path class="cls-3" d="M821.65,85.8c-6.24,4.41-10.64,9.09-11.15,13.7v21s49.37-19,81.14-26.25C855.8,94.5,831,88.51,821.65,85.8Z"/><path class="cls-9" d="M1110.5,757.5s104-17,150-22,47-9,56,27-7,37-45,43-132,20-132,20Z"/><path class="cls-10" d="M727.5,672.5s357-73,421-83,70-16,75,16-4,29-61,41-262,60-262,60S745.5,756.5,727.5,672.5Z"/><path class="cls-11" d="M1406.5,868.5l-17,188-175,131s-88,36-113,36h-721s-207-98-234-118l-26-71,54-49s-18-105-98-145l15-50s557-143,631-139c0,0,53,57,184,6,0,0,48,3,76,26,0,0,9,28,7,43,0,0,67,1,89,7s91,34,117,54-13,53-13,53l-66,53S1376.5,877.5,1406.5,868.5Z"/><path class="cls-7" d="M183.5,1044.5s22-31,29-48l221-37s34,14,48,64l173-3s74-95,204-125,157,15,162,44c0,0-96-47-156-11,0,0-84-8-204,110l-170,2-73-41Z"/><path class="cls-7" d="M1271,1145.17l-40.54-13.67-163,37-691-10L120.92,1034.12l-.42.38,26,71c27,20,234,118,234,118h721c25,0,113-36,113-36Z"/><path class="cls-8" d="M1069.52,1168l29.77,55.46h2.21c25,0,113-36,113-36l56.54-42.33-40.54-13.67Z"/><path class="cls-9" d="M1787.5,1137.5s78,94,89,105,21,24,41,6,13-30,4-42-78-106-78-106Z"/><path class="cls-9" d="M1876.5,1007.5s78,94,89,105,32,23,52,5,18-33,9-45-77-110-77-110Z"/><path class="cls-12" d="M1954.5,403.5s118,482,109,565c0,0,40-12,78-58l-39-341-100-182Z"/><path class="cls-13" d="M450.5,714.5s-39-97-52-155-26-66,16-76,43-4,61,48,51,170,51,170Z"/><path class="cls-8" d="M1020.5,939.5c-5-29-32-74-162-44q-4.2,1-8.32,2a258.76,258.76,0,0,0,7.43,30.92,58.33,58.33,0,0,1,6.89,0C924.5,892.5,1020.5,939.5,1020.5,939.5Z"/><path class="cls-8" d="M480.59,1020.44C466.08,973,433.5,959.5,433.5,959.5l-3.53.59-11.82,39.77,65,36.51A136.46,136.46,0,0,0,480.59,1020.44Z"/><path class="cls-14" d="M1340.5,622.5l136,259,208,16,368-114s16.28-249.92,4.14-297.46c0,0-86.14-157.54-93.14-166.54l-116,10-399.14,58Z"/><path class="cls-15" d="M1506.5,486.5s-64,33-64,105-13.42,74.81-13.42,74.81-12.58,2.19-12.58,28.19,25,86,87,82,73-3,100-16l97-1,113,46,235-48s31-22,31-89c0,0-4-55-42-89,0,0-18-53-41-74s-75-35-148-32c-41.92-1.44-84.31-40.18-137-32,0,0,56,40,70,81,0,37,4,48,4,48s64-3,72,81c0,0-8,22-63-5a258.31,258.31,0,0,1-47-15c-26-11-75-54-106-63s-57-27-107-36C1534.5,532.5,1522.5,525.5,1506.5,486.5Z"/><path class="cls-16" d="M325.5,635.5c-9-33-32-32,60-60,373-105,675-127,721-135s52-4,57,27,2,24-53,33-631,124-699,144S334.5,668.5,325.5,635.5Z"/><path class="cls-17" d="M1577.5,574.5c27-13,26-13,50,10s178,193,178,193l-61,39s-138-164-157-189S1550.5,587.5,1577.5,574.5Z"/><path class="cls-18" d="M1430.2,629.78c27-13,26-13,50,10S1646.5,852.5,1646.5,852.5l-39.3,41.28S1459.5,705.5,1440.5,680.5,1403.2,642.78,1430.2,629.78Z"/><path class="cls-7" d="M1620.5,1215.5s71-74,100-85,72,4,90,45l324-366s-80-79-125-79-110,8-137,47c0,0-15-27-45-27-37,0-86,35-105,69h-57l-164,163v211Z"/><path class="cls-13" d="M1539.5,1127.5h106c34,0,37-3,37,27,0,26-3,27-35,27s-114,6-114,6Z"/><path class="cls-8" d="M1810.5,1175.5l17.47-19.74,2.87-3.24c-9-10.36-53.84-57.69-123.34-55l14.44,32.5C1750.91,1120,1792.79,1135.17,1810.5,1175.5Z"/><path class="cls-19" d="M995.5,1026.5l81,12,7-90,14-21h321l18,38,163,5,15,89,19,31-78,5,3,94,89,9s0,28-45,32c0,0-294-22-343-17,0,0-27-45-79-36C1180.5,1177.5,1038.5,1122.5,995.5,1026.5Z"/><path class="cls-3" d="M1087.73,942.16c39.88,21.5,103.2,53,160.77,70.34,93,28,264,42,264,42v-29s61.15,26.1,102.31,34.51l-.31-.51-15-89-163-5-18-38h-321Z"/><path class="cls-3" d="M1212.5,877.5c0,4,18,66,18,66l25-6s-13-67-15-69-11-4-19-1S1212.5,873.5,1212.5,877.5Z"/><path class="cls-20" d="M1244.5,977.5l-15-124h51s14,101,11,120Z"/><polygon class="cls-21" points="1315.5 950.5 1303.5 853.5 1354.5 853.5 1370.5 973.5 1315.5 950.5"/><path class="cls-13" d="M1436,990.5l106-2s8,2,8,17v10s-77,3-114-14Z"/><path class="cls-22" d="M1376.5,834.5h44s12,19,21,169l-51-24S1381.5,860.5,1376.5,834.5Z"/><polygon class="cls-23" points="1441.5 384.5 1554.5 273.5 1805.5 265.5 1963.5 319.5 1906.5 360.5 1457.5 391.5 1441.5 384.5"/></g></svg>