<svg id="Layer_1" data-name="Layer 1" xmlns="http://www.w3.org/2000/svg" xmlns:xlink="http://www.w3.org/1999/xlink" viewBox="0 0 1280 1280"><defs><style>.cls-1{fill:url(#radial-gradient);}.cls-2{fill:url(#linear-gradient);}.cls-3{fill:url(#linear-gradient-2);}.cls-4{fill:url(#radial-gradient-2);}.cls-5{fill:url(#linear-gradient-3);}.cls-6{fill:url(#linear-gradient-4);}.cls-7{fill:url(#radial-gradient-3);}.cls-8{fill:url(#radial-gradient-4);}.cls-9{fill:#4b4c47;}.cls-10{fill:url(#radial-gradient-5);}.cls-11{fill:url(#radial-gradient-6);}</style><radialGradient id="radial-gradient" cx="427.22" cy="440.74" r="598.34" gradientTransform="translate(0 193.43) scale(1 0.56)" gradientUnits="userSpaceOnUse"><stop offset="0.16" stop-color="#818181"/><stop offset="0.37" stop-color="#868686"/><stop offset="0.63" stop-color="#959595"/><stop offset="0.91" stop-color="#aeaeae"/><stop offset="1" stop-color="#b7b7b7"/></radialGradient><linearGradient id="linear-gradient" x1="576.72" y1="1168.03" x2="838.54" y2="1168.03" gradientUnits="userSpaceOnUse"><stop offset="0.02" stop-color="#61625e"/><stop offset="0.14" stop-color="#565753"/><stop offset="0.36" stop-color="#484944"/><stop offset="0.54" stop-color="#43443f"/></linearGradient><linearGradient id="linear-gradient-2" x1="378.26" y1="1151.11" x2="644.5" y2="1151.11" gradientUnits="userSpaceOnUse"><stop offset="0.02" stop-color="#61625e"/><stop offset="0.17" stop-color="#565753"/><stop offset="0.46" stop-color="#484944"/><stop offset="0.69" stop-color="#43443f"/></linearGradient><radialGradient id="radial-gradient-2" cx="320.32" cy="596.41" r="311.88" gradientTransform="translate(0 -180.2) scale(1 1.3)" gradientUnits="userSpaceOnUse"><stop offset="0.22" stop-color="#818181"/><stop offset="0.46" stop-color="#848484"/><stop offset="0.61" stop-color="#8d8d8d"/><stop offset="0.75" stop-color="#9c9c9c"/><stop offset="0.87" stop-color="#b1b1b1"/><stop offset="0.89" stop-color="#b7b7b7"/></radialGradient><linearGradient id="linear-gradient-3" x1="460.81" y1="781.83" x2="270.54" y2="787.54" gradientUnits="userSpaceOnUse"><stop offset="0.31" stop-color="#43443f"/><stop offset="0.46" stop-color="#484944"/><stop offset="0.64" stop-color="#565753"/><stop offset="0.74" stop-color="#61625e"/></linearGradient><linearGradient id="linear-gradient-4" x1="439.08" y1="440.36" x2="372.23" y2="418.08" gradientUnits="userSpaceOnUse"><stop offset="0.25" stop-color="#43443f"/><stop offset="0.47" stop-color="#484944"/><stop offset="0.73" stop-color="#565753"/><stop offset="0.87" stop-color="#61625e"/></linearGradient><radialGradient id="radial-gradient-3" cx="225.3" cy="457.17" r="295.81" gradientUnits="userSpaceOnUse"><stop offset="0.4" stop-color="#b6baa7"/><stop offset="0.53" stop-color="#abae9d"/><stop offset="0.77" stop-color="#8d9081"/><stop offset="0.89" stop-color="#7c7e71"/></radialGradient><radialGradient id="radial-gradient-4" cx="625.71" cy="1212.39" r="1808.01" gradientTransform="translate(0 693.37) scale(1 0.43)" gradientUnits="userSpaceOnUse"><stop offset="0.17" stop-color="#7c7e71"/><stop offset="0.24" stop-color="#9c9f8e"/><stop offset="0.31" stop-color="#afb3a0"/><stop offset="0.35" stop-color="#b6baa7"/></radialGradient><radialGradient id="radial-gradient-5" cx="524.07" cy="446.09" r="697.88" gradientTransform="translate(0 156.02) scale(1 0.65)" gradientUnits="userSpaceOnUse"><stop offset="0.18" stop-color="#7c7e71"/><stop offset="0.22" stop-color="#848678"/><stop offset="0.41" stop-color="#a8ac9a"/><stop offset="0.52" stop-color="#b6baa7"/></radialGradient><radialGradient id="radial-gradient-6" cx="418.61" cy="401.61" r="593.74" gradientTransform="translate(0 237.51) scale(1 0.41)" xlink:href="#radial-gradient"/></defs><path d="M829.23,614.41l1.52,30c82.73-6.13,145.75-20.89,145.75-20.89s-52.43,50.92-142.7,80.94l1.57,31a463.79,463.79,0,0,0,81.51-34.35c50.6-27.26,79.32-54.92,80.52-56.08l77.65-75.42L969.66,594.29C968.9,594.47,908.11,608.47,829.23,614.41Z"/><path d="M844.11,444.66q-11.54,6.3-22.88,12.08l1.66,32.73c89.91-44.17,157.61-97,157.61-97s-48.39,95.57-154.14,165.33l1.75,34.39a500.35,500.35,0,0,0,84.47-64.89C976,467.06,1006,408.51,1007.26,406.05l60.66-119.78L962.05,368.84C961.57,369.22,912.49,407.25,844.11,444.66Z"/><path d="M836.82,1255.56c-14.23,0-112.34-23.79-113.33-24-19.33-4.69-47.14-11.63-69.84-18-7.73-2.18-13.92-4-18.92-5.61-5.15,17.6-9.62,24-17.1,26.71a20.55,20.55,0,0,1-7.14,1.12c-15.71,0-76-13.94-125.21-27.42-29.67-8.13-55.32-16-74.16-22.92-32.92-12-41.26-19.1-44.55-27.31-.33-.82-.63-1.66-.91-2.51H364.5c-1.07,0-2.13,0-3.15-.11-10.13-.78-20.44-8.49-34.48-25.77-19-23.35-42.27-61.7-60.82-100.07-15.21-31.48-32.66-74.22-29.42-99.06,2-15.07,15.37-36,39.87-62.27V826.5c0-16.63,9.23-26.36,16-33.46,7.52-7.91,11.29-11.88,8.37-25.37,0-.08,0-.15,0-.23-1.17-5.86-3.05-22.4-4.33-38.94h-27c-17.17,0-38.55,0-51.49-20.14-9.72-15.12-13.51-40-13.51-88.86,0-17.43.32-32,1-44.71-8.35,5.4-16.25,13.52-23.61,24.3-19.08,27.95-32.44,71.46-37.62,122.52-5.61,55.35-1.5,116.08,11.87,175.6a15,15,0,0,1-24.08,14.95C128.44,909.22,43,837.93,21.58,636.08c0-.15,0-.3,0-.45-4.28-56.62,4.83-113,27.07-167.51,17.68-43.33,43.63-85.56,77.15-125.51C182.6,274.86,241,237.4,243.46,235.84a15,15,0,0,1,21.84,18.53C243.38,305.94,212.5,386,212.5,402.5v1.18c0,20.57,0,47.82,23.57,67,14.65-17.08,35-27.18,60.75-30.08a81.62,81.62,0,0,1,9-.5c13.4,0,27.63,3.16,42.48,9.41l25.08-77.26c-33.34-17.16-65-48.63-66.53-50.13a15,15,0,0,1,5-24.54c7.78-3.19,14.22-8.82,15.38-12.11-1.84-3.15-7.66-9.6-12-14.42-18.25-20.19-48.79-54-48.79-103.54a15,15,0,0,1,14.39-15c.42,0,8-.32,19.61-.52l.71-3.5c-8.79-8.72-26.32-26.25-43.69-44.4-14.47-15.11-26-27.73-34.38-37.52-16-18.76-18.94-25.5-19-32a16.2,16.2,0,0,1,4.72-11.66,15.74,15.74,0,0,1,11.41-4.55c4,0,12.23,0,121.84,34.84,66.72,21.21,152,49.39,234.07,77.33,64.57,22,157.57,54.2,234,82.74,111.1,41.52,118.51,49.79,122.5,54.24a15,15,0,0,1-11.17,25H760.29l-81.52,92.89a15,15,0,0,1-11.27,5.11c-7,0-14.91-1.5-24.1-3.23-7.59-1.43-16.18-3-24.53-3.77H477.44L431.35,512.7c.68.77,1.36,1.54,2,2.32,52,8.06,121,18.48,178.12,18.48,66.48,0,149.55-26.25,240.24-75.92,69.34-38,119-76.52,119.54-76.91a15,15,0,0,1,22.6,18.61c-1.2,2.36-30.08,58.67-91.63,117.17-36.17,34.38-76.21,62.38-119,83.22a438.73,438.73,0,0,1-80.62,29.93Q731.12,632,762.44,632c110.5,0,209.65-22.88,210.64-23.12a15.4,15.4,0,0,1,3.42-.39A15,15,0,0,1,987,634.26c-1.14,1.1-28.41,27.35-77.18,53.63-44.86,24.17-117.33,53-207.87,53-58.44,0-117.93-11.9-176.81-35.38a426.27,426.27,0,0,1-69.22-33.72c-10.89,10.47-24.71,20.52-40.38,29.36,5.82,13.68,12.35,29.62,18.09,45.14,31.85-17.11,58.35-25.77,78.92-25.77,40.2,0,90.47,22.84,149.41,67.9,48.85,37.34,103.4,89.89,157.75,152C868,995.6,914.08,1056,949.35,1110.4c25.4,39.19,56.61,92.88,61,126.13a15,15,0,0,1-25.6,12.45c-.32-.32-33-33.06-101-65.14-5.07,11.28-10.91,24-16.28,35.06-14,28.9-18.34,33.88-25.83,36A17.24,17.24,0,0,1,836.82,1255.56Z"/><path d="M220.3,33.34c26.86,0,675.6,215.61,701.2,244.16h-168l-86,98c-11,0-29.19-5.46-48-7l-3.81-.32a23.23,23.23,0,0,0,3.81.32H466.86L414.2,516.14c3.93,4.18,7.73,8.48,11.36,12.84,57,8.86,126.8,19.52,185.94,19.52,169,0,369-156,369-156S867.7,615.26,610.22,628.85C658.48,642.35,711.77,647,762.44,647,876.13,647,976.5,623.5,976.5,623.5S871.11,725.87,701.9,725.87c-51.58,0-109.14-9.53-171.4-34.37a416.17,416.17,0,0,1-77.11-38.92c-13.64,16.06-34.92,30.8-57.17,41.76,8.72,19.93,20.9,49,29.16,73.79,33.14-19.59,64.49-32.63,87.12-32.63,158,0,470,405,483,503,0,0-38-38.86-119.32-74.58-12.54,28.42-33.82,75.19-38.68,76.58a2.81,2.81,0,0,1-.68.06c-14.6,0-207.42-45.23-212.25-53.14h0c-4.37,18.25-8.69,31.86-12.07,33.09a6.4,6.4,0,0,1-2,.22c-24.39,0-222.28-49-230-68.22a34.76,34.76,0,0,1-2.21-14.1,56.77,56.77,0,0,1-13.79,2.17c-.68,0-1.35,0-2-.07-26-2-117-162-111-208,1.69-13,17.07-34.3,40-58.24V826.5c0-25,32-25,24-62-1.32-6.61-3.95-31.1-5-51h-41c-37,0-50-4-50-94,0-24.31.59-46.87,2.84-67-76.88,11.74-119.86,174.26-80.84,348,0,0-84-68-105-266-18-238,215-386,215-386s-54,127-54,154c0,23.45-.74,65,42.31,88.63,11.75-19.79,30.12-32.41,58.69-35.63a66.42,66.42,0,0,1,7.36-.41c16.42,0,34.05,5.82,51.42,15.45l34.55-106.43c-35.07-13.35-74.33-52.61-74.33-52.61s25-10,25-27-61-51-61-117c0,0,13.13-.53,31.33-.66l4.67-23.34s-105-103-98-110a1.24,1.24,0,0,1,.8-.16m0-30h0a30.85,30.85,0,0,0-31.12,31.29c.06,13,7.32,23.81,22.56,41.68,8.53,10,20.29,22.83,35,38.16,8.45,8.82,16.85,17.42,24.27,24.94A30,30,0,0,0,251.5,167.5a134.74,134.74,0,0,0,10.83,53,30,30,0,0,0-26.92,2.66c-2.53,1.61-62.83,40.28-121.14,109.79C79.75,374.11,53,417.68,34.72,462.45,11.59,519.15,2.13,577.8,6.59,636.76c0,.3,0,.6.08.9,5,47.16,13.91,91.23,26.49,131C43.37,800.9,56,830.47,70.77,856.52c25.68,45.4,49.25,65.19,51.85,67.3a30,30,0,0,0,48.15-29.89C143,770.29,160.45,665.36,189.51,615.15c0,1.43,0,2.88,0,4.35,0,52.67,4.31,79,15.89,97a55.23,55.23,0,0,0,32.67,23.91c10.39,2.88,21.23,3.12,31.44,3.12h13.21c1.1,11.51,2.37,21.87,3.37,26.88,0,.16.06.31.1.46.84,3.88.6,5.69.49,5.93-.48,1.1-3.13,3.9-5.07,5.94-7.52,7.92-20.1,21.17-20.1,43.79v35.94c-32.37,35.65-38.25,54.72-39.75,66.18-1.72,13.2.79,30,7.67,51.36,5.33,16.55,13.12,35.44,23.13,56.16,19,39.35,43,78.82,62.67,103,15.2,18.71,27.61,28.16,40.61,30.68,7.1,11,21.18,19.09,50.15,29.65,24.29,8.86,54.37,17.56,75.33,23.3,28.39,7.77,106.94,28,129.18,28a35.18,35.18,0,0,0,12.27-2c12.13-4.41,18.11-14.53,21.4-22.3,1.74.5,3.54,1,5.42,1.54,22.91,6.47,50.91,13.45,70.37,18.18,25,6.07,51.21,12.12,71.89,16.59,36.42,7.86,41.57,7.86,45,7.86a32.42,32.42,0,0,0,8.93-1.21c14.65-4.19,21.64-16,35.2-43.89,3.28-6.74,6.72-14.09,10.06-21.36,54.82,27.86,81.82,54.16,83.09,55.41a29.69,29.69,0,0,0,21.43,9.11,30,30,0,0,0,29.72-34.07c-3.84-28.91-25.13-73.43-63.3-132.31-35.66-55-82.18-116-131-171.75-55-62.82-110.3-116.07-159.93-154q-18.53-14.16-36.11-25.58a458.22,458.22,0,0,0,67,5,447.09,447.09,0,0,0,122.51-17.14,463.16,463.16,0,0,0,92.47-37.63c50.6-27.26,79.32-54.92,80.52-56.08a30,30,0,0,0-27.74-50.73c-.91.21-87,20.05-187.41,22.48q3.81-1.77,7.59-3.61c44.16-21.52,85.45-50.39,122.74-85.83C976,467.06,1006,408.51,1007.26,406.05a30,30,0,0,0-45.21-37.21c-.48.38-49.56,38.41-117.94,75.82C755.79,493,675.36,518.5,611.5,518.5c-50.65,0-111.38-8.43-160.6-16L488,398.5H618.2c7.4.68,15,2.12,22.42,3.51,9.52,1.8,18.5,3.49,26.88,3.49a30,30,0,0,0,22.55-10.21l77-87.79H921.5a30,30,0,0,0,22.34-50c-5.88-6.55-15.1-12.68-47-26.25-19.79-8.44-47.2-19.21-81.47-32-76.55-28.6-169.7-60.86-234.37-82.89-82.11-28-167.53-56.18-234.37-77.43C234.87,3.35,226.46,3.34,220.33,3.34Zm7.17,399.38c.14-1.9,2-16.9,25.69-78.36,12.93-33.54,25.79-63.82,25.92-64.12a30.5,30.5,0,0,0,2-6.88,318.88,318.88,0,0,0,23.05,27.73l2.27,2.52-.18.08a29.52,29.52,0,0,0-18.35,21.6,29.94,29.94,0,0,0,8.39,27.42c3.5,3.51,29,28.58,59.06,46.62l-16.5,50.84a115.15,115.15,0,0,0-33-5.08,94.83,94.83,0,0,0-10.72.6c-23.39,2.63-43,10.5-58.61,23.46-8.15-12.32-9-27.73-9-45.46v-1ZM434.35,707.3a219.81,219.81,0,0,0,23.38-17.06q16.78,9.56,33.89,17.47c-14.87,2.95-31.57,8.85-50,17.65-2.41-6.15-4.88-12.22-7.29-18.06Z"/><path class="cls-1" d="M317.42,497.42c23.88-3.84,155.5,81.25,264.08,122.08,158.18,59.49,395,4,395,4s-179.51,174.33-446,68C386.36,637.29,293.54,501.26,317.42,497.42Z"/><path class="cls-2" d="M636.5,1095.5s-16.85,83.83-11.93,91.92S830.5,1242.5,837.5,1240.5s48-98,48-98Z"/><path class="cls-3" d="M388.5,1105.5s-16,27-8,47,221,72,232,68,32-139,32-139Z"/><path class="cls-4" d="M262.5,500.5c-66-20-65-71-65-98s54-154,54-154-233,148-215,386c21,198,105,266,105,266-42-187,11-361,99-348C349.5,567.5,328.5,520.5,262.5,500.5Z"/><path class="cls-5" d="M310.5,689.5c-2,14,3,65,5,75,8,37-24,37-24,62v74s143-61,143-93-49-137-49-137S312.5,675.5,310.5,689.5Z"/><polygon class="cls-6" points="399.5 340.5 349.5 494.5 410.5 526.5 471.5 355.5 399.5 340.5"/><path class="cls-7" d="M298.5,455.5c-71,8-79,74-79,164s13,94,50,94h60c46,0,139-49,139-95C468.5,559.5,369.5,447.5,298.5,455.5Z"/><path class="cls-8" d="M251.5,932.5c6-46,184-197,261-197,158,0,470,405,483,503,0,0-126-129-411-133-143-2-196,37-222,35S245.5,978.5,251.5,932.5Z"/><path class="cls-9" d="M219.5,33.5c7-7,676,215,702,244h-168l-86,98c-11,0-29.19-5.46-48-7-81.65-6.68-213-24-213-24l-94-176,5-25S212.5,40.5,219.5,33.5Z"/><path class="cls-10" d="M281.5,167.5s123-5,138,12,8,127,38,127h73c31,0,58,62,89,62h-207c-38,0-95-57-95-57s25-10,25-27S281.5,233.5,281.5,167.5Z"/><path d="M759,294c-77.61-29.93-228.5-68.5-228.5-68.5C572.5,276.63,558,272,725,345Z"/><path class="cls-11" d="M317.5,519.5c21-12,178,29,294,29,169,0,369-156,369-156s-120,237-395,237C431.5,629.5,296.5,531.5,317.5,519.5Z"/></svg>