<svg xmlns="http://www.w3.org/2000/svg" xmlns:xlink="http://www.w3.org/1999/xlink" viewBox="0 0 1280 1280"><defs><style>.cls-1{fill:url(#linear-gradient);}.cls-2{fill:#e5e5e5;}.cls-3{fill:url(#radial-gradient);}.cls-4{fill:url(#radial-gradient-2);}</style><linearGradient id="linear-gradient" x1="297" y1="981" x2="1001" y2="981" gradientUnits="userSpaceOnUse"><stop offset="0" stop-color="#787878"/><stop offset="0.08" stop-color="#949494"/><stop offset="0.17" stop-color="#acacac"/><stop offset="0.27" stop-color="#bdbdbd"/><stop offset="0.37" stop-color="#c7c7c7"/><stop offset="0.5" stop-color="#cacaca"/><stop offset="0.63" stop-color="#c7c7c7"/><stop offset="0.73" stop-color="#bdbdbd"/><stop offset="0.83" stop-color="#acacac"/><stop offset="0.92" stop-color="#949494"/><stop offset="1" stop-color="#787878"/></linearGradient><radialGradient id="radial-gradient" cx="664.42" cy="611.91" r="447.34" gradientTransform="translate(0 143.51) scale(1 0.78)" gradientUnits="userSpaceOnUse"><stop offset="0.5" stop-color="#fafafa"/><stop offset="0.63" stop-color="#f3f3f3"/><stop offset="0.81" stop-color="#dedede"/><stop offset="1" stop-color="#c4c4c4"/></radialGradient><radialGradient id="radial-gradient-2" cx="654.75" cy="334.18" r="242.9" gradientTransform="translate(0 29.52) scale(1 0.91)" gradientUnits="userSpaceOnUse"><stop offset="0.74" stop-color="#fafafa"/><stop offset="0.92" stop-color="#c4c4c4"/></radialGradient></defs><g id="Layer_3" data-name="Layer 3"><path d="M649,1255c-271.07,0-323.38-57-354.63-91-2.79-3-5.43-5.91-7.88-8.32A15,15,0,0,1,282,1145V731c0-.17,0-.35,0-.52.28-19.69,9-57,63.8-88.46C407,606.84,509.05,589,649,589s242,17.84,303.19,53c54.76,31.46,63.52,68.77,63.8,88.46,0,.17,0,.35,0,.52v414a15,15,0,0,1-4.49,10.7c-2.45,2.41-5.09,5.28-7.88,8.32C972.38,1198.05,920.07,1255,649,1255Z"/><path d="M649,604c319.53,0,351.71,93.73,352,127h0v414c-30,29.5-61,95-352,95s-322-65.5-352-95V731h0c.29-33.27,32.47-127,352-127m0-30c-142.61,0-247.13,18.51-310.66,55-25.66,14.74-44.8,32.48-56.9,52.72-11.55,19.32-14.24,36.89-14.43,48.41,0,.29,0,.57,0,.86v414a30,30,0,0,0,9,21.39c2.18,2.15,4.58,4.76,7.35,7.78,15.73,17.12,39.5,43,95.65,63,61.91,22.07,150.23,32.8,270,32.8s208.12-10.73,270-32.8c56.16-20,79.93-45.91,95.66-63,2.77-3,5.17-5.63,7.35-7.78a30,30,0,0,0,9-21.39V731c0-.29,0-.57,0-.86-.19-11.52-2.88-29.09-14.43-48.41-12.1-20.24-31.24-38-56.9-52.72-63.53-36.5-168-55-310.66-55Z"/><path class="cls-1" d="M649,722l-352,9v414c30,29.5,61,95,352,95s322-65.5,352-95V731Z"/><path class="cls-2" d="M649,604c-321,0-352,94.6-352,127.46S444,839,649,839s352-74.68,352-107.54S970,604,649,604Z"/><path class="cls-3" d="M654.56,832.29c-114.85,0-143.79-70.82-169.33-133.29-25-61.09-46.53-113.85-140.11-113.85a15.28,15.28,0,0,1-15.25-14.29c-.25-3.76-5.21-92.83,63.08-165.7,56.23-60,144.25-90.45,261.61-90.45s205.38,30.43,261.61,90.45C984.46,478,979.5,567.1,979.25,570.86A15.28,15.28,0,0,1,964,585.15c-93.58,0-115.14,52.76-140.11,113.85C798.35,761.47,769.41,832.29,654.56,832.29Z"/><path d="M654.56,330C979.62,330,964,569.87,964,569.87,756.07,569.87,863.48,817,654.56,817S553.06,569.87,345.12,569.87c0,0-15.62-239.87,309.44-239.87m0-30.57c-64.61,0-121.45,9.2-168.95,27.35-41.52,15.87-76.45,38.72-103.81,67.92C309,472.36,314.35,567.83,314.61,571.85a30.58,30.58,0,0,0,30.51,28.59c83.32,0,101.2,43.76,126,104.34,13.54,33.12,27.54,67.36,54.23,94.83,31.37,32.27,73.64,48,129.25,48s97.89-15.69,129.25-48C810.5,772.14,824.5,737.9,838,704.78c24.76-60.58,42.65-104.34,126-104.34a30.58,30.58,0,0,0,30.51-28.59c.26-4,5.58-99.49-67.19-177.15C900,365.5,865,342.65,823.51,326.78c-47.49-18.15-104.34-27.35-169-27.35Z"/><path class="cls-4" d="M653.76,498C527.1,498,442,393.92,442,239c0-78.89,21.05-132.24,64.37-163.09C547.08,46.91,600.81,43,648,43s100.92,3.91,141.63,32.91C833,106.76,854,160.11,854,239,854,398.76,777.27,498,653.76,498Z"/><path d="M648,58c99.82,0,191,20,191,181,0,147-67.19,244-185.24,244S457,386,457,239C457,78,548.18,58,648,58m0-30c-31.27,0-56,2-77.68,6.19-28.92,5.62-52.68,15.27-72.66,29.5-23.19,16.52-40.89,39.29-52.59,67.67C432.91,160.86,427,196.06,427,239c0,79,21,146.76,60.77,196a207.23,207.23,0,0,0,72.57,57.67C588.77,506.15,620.2,513,653.76,513s64.64-6.93,92.11-20.59C772.8,479,796,459.35,814.76,434,850.25,386,869,318.62,869,239c0-42.94-5.91-78.14-18.07-107.64-11.7-28.38-29.4-51.15-52.59-67.67-20-14.23-43.74-23.88-72.66-29.5C704,30,679.27,28,648,28Z"/><circle cx="574.48" cy="326.2" r="30.5"/><path d="M575.66,313.37l-.62-.19-.81-.23-1.69-.47c-1.16-.31-2.33-.61-3.52-.89-2.38-.57-4.81-1.06-7.27-1.5a77.91,77.91,0,0,0-15.07-1.26,68.55,68.55,0,0,0-15.35,2,66.13,66.13,0,0,0-15,5.9,58.49,58.49,0,0,1,6-5.8c1-.93,2.19-1.76,3.31-2.62s2.32-1.64,3.54-2.37a66.79,66.79,0,0,1,15.73-7.19,83.18,83.18,0,0,1,17.29-3.45,69.8,69.8,0,0,1,8.92-.2c1.5.06,3,.18,4.51.36.76.09,1.52.19,2.29.32l1.17.21c.43.09.75.16,1.35.31Z"/><circle cx="721.54" cy="326.51" r="30.5"/><path d="M715.56,296.64c.61-.15.93-.21,1.35-.3l1.18-.21c.77-.14,1.53-.24,2.29-.33,1.51-.17,3-.3,4.5-.35a66.28,66.28,0,0,1,8.92.2,82.26,82.26,0,0,1,17.29,3.44,67,67,0,0,1,15.73,7.19c1.22.74,2.38,1.57,3.54,2.37s2.26,1.69,3.32,2.63a57.37,57.37,0,0,1,6,5.8,66,66,0,0,0-14.95-5.91,68.44,68.44,0,0,0-15.34-2,77.06,77.06,0,0,0-15.07,1.25c-2.46.44-4.89.94-7.27,1.5-1.19.29-2.37.58-3.52.89l-1.7.47-.8.24a5,5,0,0,0-.62.19Z"/></g></svg>