<svg xmlns="http://www.w3.org/2000/svg" xmlns:xlink="http://www.w3.org/1999/xlink" viewBox="0 0 1280 1280"><defs><style>.cls-1{fill:url(#radial-gradient);}.cls-2{fill:url(#radial-gradient-2);}</style><radialGradient id="radial-gradient" cx="2464.29" cy="-1464.8" r="438.7" gradientTransform="translate(-1473 4228.56) scale(1 2.42)" gradientUnits="userSpaceOnUse"><stop offset="0.61" stop-color="#fff"/><stop offset="0.7" stop-color="#fafafa"/><stop offset="0.79" stop-color="#ebebeb"/><stop offset="0.9" stop-color="#d4d4d4"/><stop offset="1" stop-color="#b5b5b5"/></radialGradient><radialGradient id="radial-gradient-2" cx="2378.34" cy="-1742.28" r="252.04" gradientTransform="translate(-1473 2153)" xlink:href="#radial-gradient"/></defs><g id="Layer_1" data-name="Layer 1"><path class="cls-1" d="M375.83,1067.54a5,5,0,0,1-4.82-6.36c.56-2,55.53-198.07,55.53-289.18,0-252.62-93.06-300.17-94-300.62a5,5,0,0,1-2.53-6.25c.26-.69,26.1-69.17,79.2-136.67C440.48,288.72,475,257,511.72,234.27c46.13-28.55,95.92-43,148-43,9.17,0,18.55.36,27.89,1.09a5,5,0,0,1,4.58,5.51,51.34,51.34,0,0,0,.32,13.53c1.73,10.8,3.08,20.24,4.28,28.57,8.86,61.67,9.39,65.36,92.59,153.18l.16.18c50.19,58.38,104.82,91.21,167,100.39a5,5,0,0,1,4.08,6.31c-1.66,5.9-3.57,11.84-5.66,17.65a4.4,4.4,0,0,1-.21.5C910.31,609.55,866.65,720,835,821.09c-31.24,99.75-47.37,178.9-44.23,217.16a5,5,0,0,1-5,5.41h-.35c-40.42-2.8-81.12-4.22-121-4.22-176.13,0-286.29,27.67-287.39,28A4.72,4.72,0,0,1,375.83,1067.54Z"/><path d="M659.73,196.24c9.38,0,18.55.38,27.5,1.07a55.91,55.91,0,0,0,.36,14.85c14.59,91.54,2.65,83.58,98.17,184.4C844.73,465.15,904,491,955.82,498.64c-1.61,5.68-3.45,11.46-5.56,17.32-94.19,193.69-171.14,441.77-164.5,522.7-43.23-3-83.79-4.23-121.31-4.23-178.93,0-288.63,28.11-288.63,28.11S431.54,864.87,431.54,772c0-258.69-96.84-305.13-96.84-305.13s100.82-270.63,325-270.63m0-10C606.7,186.24,556,201,509.09,230c-37.25,23.07-72.18,55.15-103.81,95.35-53.59,68.11-78.9,135.19-79.95,138a9.82,9.82,0,0,0,5,12.49c1.1.58,23.25,12.66,45.23,53.59,21,39.06,46,112.84,46,242.54,0,90.44-54.79,285.86-55.34,287.82a10,10,0,0,0,9.62,12.72,9.67,9.67,0,0,0,2.49-.32c.26-.06,27.75-7,76.56-13.89,45-6.34,117.94-13.9,209.58-13.9,39.72,0,80.3,1.42,120.62,4.2l.69,0a10,10,0,0,0,10-10.82c-3.08-37.64,13-116.1,44-215.26,31.61-100.89,75.17-211.06,119.51-302.25a9.32,9.32,0,0,0,.42-1c2.13-5.92,4.07-12,5.77-18a10,10,0,0,0-8.16-12.61c-60.94-9-114.57-41.29-163.94-98.71l-.32-.36c-82.11-86.66-82.45-89.06-91.27-150.45-1.2-8.35-2.56-17.81-4.29-28.65a46.5,46.5,0,0,1-.29-12.21,10,10,0,0,0-9.17-11c-9.45-.73-19-1.1-28.27-1.1Z"/><path d="M957.56,484.78a183.65,183.65,0,0,1-7.3,31.18c-94.19,193.69-171.14,441.77-164.5,522.7-43.24-3-83.79-4.23-121.31-4.23-178.92,0-288.63,28.11-288.63,28.11S431.54,864.87,431.54,772c0-258.69-96.84-305.13-96.84-305.13s100.82-270.63,325-270.63c9.38,0,21.89.66,40.46,11.27,18.57-19.9,44.66-43.32,59.7-59.7-29.19-6.63-81.54-4.64-100.16-4.64-61.16,0-119.47,16.9-173.31,50.24-41.55,25.72-80.24,61.16-115,105.33-57.7,73.34-85.31,146.53-86.46,149.61l-16.92,45.42,41.7,20c3,2.19,17.77,14,32.76,45.78,16.41,34.75,36,99.83,36,212.46,0,70.07-38.79,223.09-53.73,276.14l-25.06,89L388.94,1114c2.08-.52,107.4-26.46,275.51-26.46,38.74,0,78.32,1.38,117.65,4.1l61.59,4.26-5-61.54c-2-24.59,8-89.74,42.19-198.86,31-99,73.69-206.94,117.14-296.29l1.25-2.56,1-2.68c4-11,9.16-27.54,11.76-38.53C1003.26,489.91,976.79,487.62,957.56,484.78Z"/><path d="M659.73,196.24c9.38,0,18.55.38,27.5,1.07a55.91,55.91,0,0,0,.36,14.85c12.72,79.79,5.29,84,66.42,150.52L649.11,578.31,341.28,471.08a47.4,47.4,0,0,0-6.58-4.21s100.82-270.63,325-270.63m0-10C606.7,186.24,556,201,509.09,230c-37.25,23.07-72.18,55.15-103.81,95.35-53.59,68.11-78.9,135.19-79.95,138a9.83,9.83,0,0,0,5,12.49,42.7,42.7,0,0,1,5,3.27,10.11,10.11,0,0,0,2.62,1.38L645.82,587.75a10,10,0,0,0,12.28-5.06L763,367.06a10,10,0,0,0-1.63-11.14c-50.81-55.29-52.15-64.67-59.63-116.71-1.2-8.34-2.56-17.8-4.29-28.63a46.5,46.5,0,0,1-.29-12.21,10,10,0,0,0-9.17-11c-9.45-.73-19-1.1-28.27-1.1Z"/><path class="cls-2" d="M753.12,369.53a5.81,5.81,0,0,1-.83-.07c-70.54-11.79-129.92-30.93-176.48-56.9-41.36-23.06-64.68-47.28-77-63.55a5,5,0,0,1,1.18-7.15c49.42-33.59,103.15-50.62,159.7-50.62,9.17,0,18.55.36,27.89,1.09a5,5,0,0,1,4.58,5.51,51.34,51.34,0,0,0,.32,13.53c1.72,10.79,3.08,20.23,4.28,28.55,7.66,53.34,9,63,60.9,119.38a5,5,0,0,1,.81,5.57l-.9,1.84A5,5,0,0,1,753.12,369.53Z"/><path d="M659.73,196.24c9.38,0,18.55.38,27.5,1.07a55.91,55.91,0,0,0,.36,14.85c12.72,79.79,5.29,84,66.42,150.52l-.89,1.85C594.57,338,528.75,280.32,502.84,246c43.36-29.47,95.5-49.76,156.89-49.76m0-10c-57.57,0-112.25,17.32-162.51,51.49a10,10,0,0,0-2.36,14.3c12.57,16.64,36.4,41.42,78.51,64.9,47.07,26.24,107,45.58,178.1,57.46a10.21,10.21,0,0,0,1.65.14,10,10,0,0,0,9-5.63l.9-1.84a10,10,0,0,0-1.63-11.14c-50.81-55.29-52.15-64.67-59.63-116.71-1.2-8.34-2.56-17.8-4.29-28.63a46.5,46.5,0,0,1-.29-12.21,10,10,0,0,0-9.17-11c-9.45-.73-19-1.1-28.27-1.1Z"/><path d="M916.54,489.38a237.25,237.25,0,0,0,39.28,9.26c-1.61,5.68-3.45,11.46-5.56,17.32C895,629.51,845.76,761.75,815.76,868.05c-8.71-152.16-5.46-271.83-6.12-305.66,67-21.89,82.91-59,106.9-73m0-10a10,10,0,0,0-5,1.36c-8.8,5.13-16.1,12.42-24.55,20.86-16.55,16.55-37.16,37.15-80.43,51.29a10,10,0,0,0-6.89,9.7c.15,7.56.1,19.87,0,35.45-.22,53.35-.64,152.66,6.1,270.58a10,10,0,0,0,19.61,2.15C857,758.65,907.07,627.64,959.25,520.33a9.32,9.32,0,0,0,.42-1c2.13-5.92,4.07-12,5.77-18a10,10,0,0,0-8.16-12.61,228.61,228.61,0,0,1-37.62-8.87,10.11,10.11,0,0,0-3.11-.5Z"/><path d="M801,833.69s1.33,65,8,82.25,6.64-42.45,6.64-42.45S799.69,857.57,801,833.69Z"/></g></svg>