<svg xmlns="http://www.w3.org/2000/svg" xmlns:xlink="http://www.w3.org/1999/xlink" viewBox="0 0 1280 1280"><defs><style>.cls-1{fill:url(#radial-gradient);}.cls-2{fill:url(#radial-gradient-2);}.cls-3{fill:url(#radial-gradient-3);}.cls-4{fill:#fff;}</style><radialGradient id="radial-gradient" cx="-2753.23" cy="2072.42" r="596.43" gradientTransform="translate(3377.87 -1527.26)" gradientUnits="userSpaceOnUse"><stop offset="0.44" stop-color="#fff"/><stop offset="0.56" stop-color="#fafafa"/><stop offset="0.7" stop-color="#ebebeb"/><stop offset="0.85" stop-color="#d4d4d4"/><stop offset="1" stop-color="#b5b5b5"/></radialGradient><radialGradient id="radial-gradient-2" cx="-2582.77" cy="2153.39" r="413.2" gradientTransform="translate(3377.87 -1527.26)" gradientUnits="userSpaceOnUse"><stop offset="0.44" stop-color="#b9b9b9"/><stop offset="0.68" stop-color="#b4b4b4"/><stop offset="0.96" stop-color="#a6a6a6"/><stop offset="1" stop-color="#a3a3a3"/></radialGradient><radialGradient id="radial-gradient-3" cx="-2932.13" cy="2066.5" r="401.69" xlink:href="#radial-gradient-2"/></defs><g id="Layer_1" data-name="Layer 1"><path class="cls-1" d="M553.39,1099.89c-77,0-136.94-21-178.11-62.46-53.72-54.07-55.43-123.33-55.47-130.07-2.53-65.37,26.62-203.09,56.67-310.72,17.38-62.22,35.63-117.55,52.8-160,27.42-67.84,44.28-83.42,54.57-89.24a16,16,0,0,1,7.88-2.07,15.72,15.72,0,0,1,4.6.68c.84.25,84.7,25.54,168.6,57.22,49.59,18.72,89.6,36,118.94,51.44,42.31,22.22,62.58,40.33,65.71,58.73,4.5,26.45-6.38,122.79-29.2,218.76C798.85,822.74,759.26,947.21,693,1025.72,651.44,1074.93,604.47,1099.89,553.39,1099.89Z"/><path d="M491.73,361.33S824.5,461.4,833.81,516.08s-61.67,567.81-280.42,567.81S335.81,907,335.81,907C331,788.15,438.2,391.58,491.73,361.33m0-32A32,32,0,0,0,476,333.47c-11.84,6.7-22.72,19.14-34.25,39.15-8.53,14.82-17.71,34.35-27.29,58-17.38,43-35.83,98.9-53.37,161.69C332.94,693.1,301.12,836,303.82,907.74c0,4.65.67,23.34,7.28,47.84,9.69,35.89,28,68.09,52.83,93.13,20.62,20.75,45.91,37,75.19,48.17,32.95,12.61,71.4,19,114.27,19,29.49,0,58-7.62,84.81-22.66,23.62-13.25,46.17-32.5,67-57.19C773.52,955.12,814,828.14,836,735.86A1311.65,1311.65,0,0,0,861.5,595.93c2.89-23.33,7.23-65.41,3.85-85.22-4.1-24.11-26.24-45.11-74-70.21-29.91-15.71-70.53-33.28-120.73-52.24-84.42-31.87-166.2-56.54-169.64-57.57a31.9,31.9,0,0,0-9.21-1.36Z"/><path class="cls-2" d="M653.3,1008c-78.45,0-86.36-7.3-89.33-10-3.13-2.88-4-8.25.31-28.33,2.75-12.84,7.55-31,14.26-53.9,11.26-38.48,28.07-91.07,50-156.32,37.26-111,76.87-221.81,77.26-222.91a5,5,0,0,1,4.71-3.32,5.63,5.63,0,0,1,1.07.11l122.2,26.61a5,5,0,0,1,3.92,5.33c-2.14,23.67-11.4,109-40.52,212.89-27,96.39-62.33,175-102.12,227.43a5,5,0,0,1-3.86,2C677.78,1007.86,665,1008,653.3,1008Z"/><path d="M710.47,538.19l122.21,26.6C823.57,665.4,781.38,883.58,691,1002.54c-11.39.27-24.44.48-37.73.48-38.25,0-78.39-1.74-85.95-8.72-15.13-14,143.11-456.11,143.11-456.11m0-10a10,10,0,0,0-9.41,6.63c-.4,1.11-40,111.92-77.3,223-21.91,65.31-38.74,118-50,156.5-6.74,23-11.57,41.3-14.35,54.26-4.39,20.45-4.11,28.17,1.18,33.06,4,3.7,11.33,7.43,37.43,9.6,14.22,1.18,32.83,1.77,55.31,1.77,11.77,0,24.55-.16,38-.48a10,10,0,0,0,7.73-3.95c21.64-28.51,41.89-64.34,60.17-106.51C775,865.66,789.36,824.41,802,779.48c29.24-104.33,38.54-190,40.69-213.79A10,10,0,0,0,834.81,555L712.6,528.42a9.71,9.71,0,0,0-2.13-.23Z"/><path class="cls-3" d="M445.68,966.6c-19.31,0-70.59-20-110.2-36.7a5,5,0,0,1-3-3.88,140.15,140.15,0,0,1-1.67-18.89c-3.94-98.91,69.31-392.21,126.48-506.37a5,5,0,0,1,3.34-2.64,5.44,5.44,0,0,1,1.13-.13,5,5,0,0,1,3,1L575,483a5,5,0,0,1,1.85,5.09c-.27,1.16-26.81,117.43-54.85,233.35-57.21,236.46-64.5,240.94-68.42,243.35-1.95,1.21-4.55,1.79-7.94,1.79Z"/><path d="M461.76,403,572,487S466.13,951.25,451,960.56a10.55,10.55,0,0,1-5.32,1c-19.29,0-75-22.23-108.26-36.3A134.16,134.16,0,0,1,335.81,907c-4-99.36,70.22-392.73,126-504m0-10a10.25,10.25,0,0,0-2.26.26,10,10,0,0,0-6.68,5.27c-26.67,53.25-58.87,149.9-86.14,258.53C339.22,766.43,324,859.93,325.81,907.24a146.79,146.79,0,0,0,1.72,19.51,10,10,0,0,0,6,7.76c58.25,24.61,96,37.09,112.15,37.09,4.34,0,7.8-.83,10.56-2.53,4.07-2.5,7-7.2,13.83-28.49,4.16-13,9.51-31.65,15.88-55.35,10.68-39.74,24.46-94.45,40.95-162.59C555,606.69,581.5,490.38,581.76,489.22A10,10,0,0,0,578.07,479L467.82,395a10,10,0,0,0-6.06-2.05Z"/><path class="cls-4" d="M748.87,597.24c-28.19,0-62.57-8.38-99.43-24.25-34.86-15-70.36-35.91-102.67-60.46-33.71-25.61-62.18-54-82.34-82-23.39-32.5-35.25-63.62-35.25-92.5,0-35.54,37.07-83.44,48.44-97.27,15-18.25,53.26-60.68,85.08-60.68h52.36c12.88,0,19.22,12.08,21.93,17.24,3.25,6.19,6.71,14.44,11.08,24.88,27.65,65.94,92.38,220.35,300.17,272.52a16,16,0,0,1,12.1,15.51c0,21.5-22.46,43.45-61.62,60.24C858.48,587.74,805.26,597.24,748.87,597.24Z"/><path d="M615.06,196.11c21,0,51.2,244.34,329.28,314.15,0,26.77-73.3,71-195.47,71-108.21,0-303.68-136.13-303.68-243.18,0-43.05,80.28-141.95,117.51-141.95h52.36m0-32H562.7c-16.4,0-34,7.48-53.74,22.88-14.3,11.15-29.42,26.24-43.71,43.64-15.65,19.06-52.06,67.69-52.06,107.43,0,32.3,12.87,66.57,38.25,101.85,21.08,29.28,50.69,58.8,85.65,85.36,33.33,25.33,70,46.91,106,62.42,38.84,16.72,75.41,25.55,105.75,25.55,75,0,126.31-15.25,156.16-28,46-19.71,71.31-46.32,71.31-74.94a32,32,0,0,0-24.2-31C752.12,429,691.81,285.17,662.83,216c-4.53-10.79-8.1-19.32-11.67-26.13a64.29,64.29,0,0,0-8.29-12.56c-10-11.52-21.72-13.24-27.81-13.24Z"/></g></svg>