<svg id="Layer_1" data-name="Layer 1" xmlns="http://www.w3.org/2000/svg" xmlns:xlink="http://www.w3.org/1999/xlink" viewBox="0 0 1280 1280"><defs><style>.cls-1{fill:url(#radial-gradient);}.cls-2{fill:url(#radial-gradient-2);}.cls-3{fill:#828282;}</style><radialGradient id="radial-gradient" cx="648.1" cy="708.02" r="608.9" gradientUnits="userSpaceOnUse"><stop offset="0.49" stop-color="#f7f7f7"/><stop offset="0.8" stop-color="#c3c4c3"/></radialGradient><radialGradient id="radial-gradient-2" cx="651.75" cy="156.29" r="641.96" xlink:href="#radial-gradient"/></defs><path class="cls-1" d="M862.61,567.75c0-34.24-2.2-64-6.27-89.77a278.58,278.58,0,0,1-432.63,0c-4.07,25.81-6.27,55.53-6.27,89.77,0,71.49-91.39,199.74-91.39,316.93s33.17,217.42,52.33,241S428.5,1178,640,1178s242.48-28.75,261.65-52.33S954,1001.87,954,884.68,862.61,639.24,862.61,567.75Z"/><path class="cls-2" d="M640,610.24c-44.83,0-88.77-10.56-130.62-31.39-35.68-17.76-69-42.47-99.15-73.44-55.55-57.15-85.52-121-85.52-152.14,0-33.39,42.05-98.56,97.83-151.58C463.42,162.84,546,97.68,640,97.68s176.6,65.16,217.46,104c55.77,53,97.83,118.19,97.83,151.58,0,31.1-30,95-85.53,152.14-30.11,31-63.47,55.68-99.14,73.44C728.8,599.68,684.85,610.24,640,610.24Zm.74-169.1c76.08,0,138-61.9,138-138s-61.9-138-138-138h-1.48c-76.08,0-138,61.9-138,138s61.9,138,138,138h1.48Z"/><path d="M640,102.68c157,0,310.29,190.15,310.29,250.59s-120.87,252-310.29,252-310.29-191.53-310.29-252S483,102.68,640,102.68m0,57.5h-.74a143,143,0,0,0,0,286h1.48a143,143,0,0,0,0-286H640m0-67.5c-38.23,0-78.37,10.69-119.29,31.76-34.52,17.78-69.66,43.24-101.62,73.62-57.59,54.75-99.38,120-99.38,155.21,0,17.38,8.18,42.11,23,69.62,11.25,20.82,31.46,52.64,63.9,86,30.51,31.38,64.32,56.42,100.5,74.43,42.55,21.18,87.24,31.92,132.85,31.92s90.3-10.74,132.85-31.92c36.18-18,70-43.05,100.5-74.43,32.43-33.36,52.65-65.18,63.89-86,14.87-27.51,23.05-52.24,23.05-69.62,0-35.18-41.8-100.46-99.38-155.21-32-30.38-67.1-55.84-101.62-73.62C718.39,103.37,678.26,92.68,640,92.68Zm0,77.5h.74c73.32,0,133,59.65,133,133s-59.66,133-133,133h-1.48c-73.33,0-133-59.66-133-133s59.65-133,133-133H640Z"/><path class="cls-3" d="M949.16,924.42C934,926.58,808.81,993.76,640,993.76s-294-67.18-309.13-69.34-25.49,8.16-25.49,24.38,26.06,32.9,32.2,37.83,79.1,70.9,302.42,70.9,296.29-66,302.42-70.9S974.64,965,974.64,948.8,964.33,922.27,949.16,924.42Z"/><path d="M990.66,901c.13-5.48.2-10.93.2-16.32,0-73.16-30.23-145.86-56.91-210-17.73-42.65-34.48-82.94-34.48-106.93,0-15.92-.47-31.28-1.39-45.88,52.3-55.9,89.09-124.79,89.09-168.6,0-49.9-54.11-123.68-107.73-174.67C835.14,136.48,745.12,65.83,640,65.83S444.92,136.48,400.62,178.6c-53.63,51-107.74,124.77-107.74,174.67,0,43.81,36.79,112.7,89.1,168.6-.92,14.6-1.39,30-1.39,45.88,0,24-16.75,64.28-34.49,106.93-26.67,64.14-56.9,136.84-56.9,210q0,8.05.2,16.24a57.4,57.4,0,0,0-5.81,5.76c-9.69,11.08-15,26-15,42.12,0,24.78,16.86,43.18,31.12,55.13,11.31,64.24,30.9,121.37,50.1,145,14.06,17.31,33.18,35,77.45,47.28,45.31,12.56,114.92,18.66,212.8,18.66s167.49-6.1,212.8-18.66c44.27-12.26,63.38-30,77.45-47.28,19.19-23.63,38.79-80.76,50.1-145,14.25-11.95,31.12-30.35,31.12-55.13C1011.5,929.08,1003.54,912.09,990.66,901Zm-44.29,82.68c-11,71.29-31.26,125.48-44.69,142C882.51,1149.27,851.56,1178,640,1178s-242.49-28.75-261.65-52.33c-13.43-16.53-33.74-70.72-44.69-142-9.4-6.94-28.28-21.08-28.28-34.88,0-14.78,8.59-24.63,21.59-24.63h.29c-.8-12.88-1.24-26.08-1.24-39.49,0-117.19,91.39-245.44,91.39-316.93,0-21.64.88-41.47,2.56-59.65-57.74-56.87-90.26-123.48-90.26-154.83,0-60.44,153.3-250.59,310.29-250.59S950.32,292.83,950.32,353.27c0,31.35-32.53,98-90.26,154.83,1.67,18.18,2.55,38,2.55,59.65,0,71.49,91.4,199.74,91.4,316.93,0,13.41-.44,26.61-1.24,39.49h.29c13,0,21.58,9.85,21.58,24.63C974.64,962.6,955.77,976.74,946.37,983.68Z"/></svg>