<svg xmlns="http://www.w3.org/2000/svg" xmlns:xlink="http://www.w3.org/1999/xlink" viewBox="0 0 640 640"><defs><style>.cls-1{fill:url(#radial-gradient);}.cls-2{stroke:#000;stroke-linecap:round;stroke-linejoin:round;stroke-width:20px;fill:url(#radial-gradient-2);}</style><radialGradient id="radial-gradient" cx="271.65" cy="191.55" r="183.1" gradientUnits="userSpaceOnUse"><stop offset="0" stop-color="#fff"/><stop offset="0.24" stop-color="#fbfbfb"/><stop offset="0.47" stop-color="#f0f0f0"/><stop offset="0.69" stop-color="#ddd"/><stop offset="0.91" stop-color="#c3c3c3"/><stop offset="1" stop-color="#b5b5b5"/></radialGradient><radialGradient id="radial-gradient-2" cx="516.71" cy="240.02" r="435.97" gradientUnits="userSpaceOnUse"><stop offset="0.44" stop-color="#fff"/><stop offset="0.57" stop-color="#fbfbfb"/><stop offset="0.7" stop-color="#f0f0f0"/><stop offset="0.83" stop-color="#ddd"/><stop offset="0.95" stop-color="#c3c3c3"/><stop offset="1" stop-color="#b5b5b5"/></radialGradient></defs><g id="Layer_1" data-name="Layer 1"><path class="cls-1" d="M130,288c-18.35,0-45.32-13.67-68.71-34.83C35,229.42,20,202.39,20,179c0-25.55,11.75-53.94,31.43-75.92C73.38,78.52,102,65,132,65c65.29,0,115,64,115,96,0,24-36.64,66.87-44,75.23C189.3,251.79,154.78,288,130,288Z"/><path d="M132,75c59,0,105,59,105,86S162,278,130,278,30,225,30,179,73,75,132,75m0-20C99.11,55,67.85,69.71,44,96.41,22.67,120.18,10,151.05,10,179c0,14.54,4.71,29.74,14,45.18,7.51,12.5,18.09,25.09,30.6,36.4C74.55,278.67,104.86,298,130,298c12.22,0,26.1-6.09,42.41-18.62,12.06-9.28,25.25-21.91,38.11-36.55a320.09,320.09,0,0,0,31.3-41.67C255.4,179,257,167.65,257,161c0-12.9-5.8-25.94-10.66-34.62a145.05,145.05,0,0,0-25.86-32.93C194.63,68.65,163.21,55,132,55Z"/><path class="cls-2" d="M528.47,150.5c-35-17-72.13-26.5-152.5-26.5-203,0-242,178-242,205,0,50,35,119,35,148s11,88,85,88c61,0,44-76,44-106,0-18,1-47,64-47,6,0,75-80,86-80s35,84,108,84c0-162,53-172,53-190,0-.19,0-.39,0-.6l.51.1C616.42,156.74,556.12,147.49,528.47,150.5Z"/><path d="M456.49,347.12a18.1,18.1,0,0,1-6-1.56,9.24,9.24,0,0,1-3.17-2.32c-1.47-1.69-1.16-3.63-1.46-5.46-.34-3.69-.5-7.36-.57-11a149.82,149.82,0,0,1,1.35-21.82,156,156,0,0,1,11.77-41.62c.68-1.66,1.49-3.27,2.25-4.89s1.53-3.24,2.41-4.8l2.55-4.72,2.74-4.61,1.39-2.28,1.48-2.22,3-4.43,3.18-4.27L479,229l1.68-2.06,3.38-4.07c1.16-1.33,2.36-2.62,3.54-3.93,2.34-2.61,4.86-5.06,7.37-7.5s5.21-4.69,7.8-7c1.33-1.13,2.74-2.16,4.1-3.25S509.58,199,511,198c-2,2.88-4.11,5.58-6.07,8.41L502,210.65c-1,1.4-2,2.79-2.88,4.25-1.83,2.88-3.77,5.66-5.45,8.61-.88,1.45-1.78,2.88-2.63,4.34l-2.46,4.41-1.25,2.19-1.15,2.24-2.29,4.46-2.15,4.52-1.07,2.26-1,2.29-2,4.57-1.79,4.63c-.63,1.52-1.12,3.1-1.68,4.65s-1.13,3.09-1.59,4.67a173.22,173.22,0,0,0-4.95,19A168.07,168.07,0,0,0,464.86,307a164.48,164.48,0,0,0-.56,19.33c.12,3.2.32,6.39.67,9.53l.28,2.35a3.79,3.79,0,0,1-.47,2.43,9.91,9.91,0,0,1-2.33,2.76,32.7,32.7,0,0,1-5,3.49Z"/><path d="M161,479.5l.79-4.61.33-1.53c.1-.45.19-.76.28-1.15.37-1.45.67-1.94,1-1.89.59,0,1.18.06,1.8.07,1.21,0,2.45,0,3.69,0s2.48-.07,3.72-.1l3.73-.22a127,127,0,0,0,14.75-2,98.68,98.68,0,0,0,14.15-4l3.39-1.3c1.11-.49,2.18-1,3.28-1.52l1.65-.74,1.57-.87,3.15-1.72-.55.4a21.52,21.52,0,0,0,3.26-2.91,28,28,0,0,0,2.73-3.86,48.68,48.68,0,0,0,2.39-4.95c.75-1.81,1.49-3.72,2.27-5.7,1.54-4,3.17-8.16,5.13-12.23a90.79,90.79,0,0,1,6.78-11.8,95.34,95.34,0,0,1,18.07-19.57A127.81,127.81,0,0,1,280,383a223.76,223.76,0,0,0-17.08,18.79,106.22,106.22,0,0,0-13.09,20.62,88.93,88.93,0,0,0-4.37,11.11c-1.22,3.81-2.26,7.7-3.3,11.83q-.76,3.11-1.75,6.39a66.36,66.36,0,0,1-2.49,6.83,39.48,39.48,0,0,1-4,7,38,38,0,0,1-5.71,6.1l-.13.11-.42.29a86.3,86.3,0,0,1-15.66,8.8c-1.35.65-2.73,1.16-4.12,1.68s-2.76,1.11-4.17,1.53l-4.22,1.31c-1.41.41-2.84.73-4.26,1.1A119.76,119.76,0,0,1,178,489.38l-4.36.34c-1.45.06-2.9.16-4.37.18s-2.93.07-4.41.05c-.74,0-1.5,0-2.25-.05-.37,0-.75-.49-1.06-2-.07-.39-.15-.71-.21-1.17l-.19-1.56L161,483l-.05-1.08,0-1.44Z"/></g></svg>