<svg id="Layer_2" data-name="Layer 2" xmlns="http://www.w3.org/2000/svg" xmlns:xlink="http://www.w3.org/1999/xlink" viewBox="0 0 1280 1280"><defs><style>.cls-1{fill:#ba6dcc;opacity:0;}.cls-2{fill:url(#linear-gradient);}.cls-3{fill:#fff;}.cls-4{opacity:0.04;}</style><linearGradient id="linear-gradient" x1="912.45" y1="791.88" x2="230.65" y2="423.25" gradientUnits="userSpaceOnUse"><stop offset="0.04" stop-color="#e7e6e7"/><stop offset="0.62" stop-color="#e5e4e5"/><stop offset="0.83" stop-color="#dedede"/><stop offset="0.98" stop-color="#d3d2d3"/><stop offset="1" stop-color="#d0d0d0"/></linearGradient></defs><rect class="cls-1" width="1280" height="1280"/><path class="cls-2" d="M774.24,944.45c-80,0-143.9-90.74-200.3-170.78-13.82-19.63-26.88-38.16-39.11-53.73-10.4-13.26-22.44-27.65-35.2-42.89-38.62-46.17-82.41-98.5-107.69-151-14.81-30.74-21.74-58.16-21.18-83.81.67-30.93,12.4-58.27,34.87-81.24l.19-.2c20.88-20.87,44.91-31.46,71.42-31.46,38.72,0,80.09,22.61,126.49,69.11,36.08,36.16,68.53,80.08,92.22,112.15,8.66,11.73,16.14,21.85,22.07,29.26,7,8.74,18.26,20.94,31.3,35.06,27.23,29.48,64.52,69.86,93.9,112.73,36.92,53.88,53.62,100,51,141-2.13,34-17.5,63.25-45.66,87l-.4.32c-23.41,18.91-48.3,28.5-74,28.5Z"/><path class="cls-3" d="M477.24,354.36c85.72,0,181.83,151.86,221.26,201.14,48,60,254,240,134,341-19.87,16-39.31,23-58.25,23-85,0-160.06-138.91-219.75-215-73-93-220-235-131-326,17-17,35.1-24.14,53.74-24.14m0-50c-32.92,0-63.72,13.41-89.1,38.78l-.39.4A148.3,148.3,0,0,0,356.56,390a141.4,141.4,0,0,0-10.8,51.74c-.64,29.69,7.1,60.82,23.66,95.2,26.63,55.29,71.48,108.88,111,156.17,12.62,15.08,24.55,29.34,34.71,42.28,11.82,15.07,24.7,33.35,38.34,52.7C580,825.67,610,868.29,642.91,902c44.34,45.4,87.29,67.48,131.34,67.48,31.51,0,61.68-11.46,89.66-34.05l.79-.65c16.84-14.17,30-30.43,39.21-48.32a142,142,0,0,0,15.31-56.2c2.93-46.78-15.18-98-55.38-156.69C833.44,629.17,795.43,588,767.69,558,755,544.2,744,532.31,737.54,524.27c-5.62-7-13-17-21.48-28.51-24.16-32.69-57.25-77.47-94.63-114.95-51.33-51.44-98.49-76.45-144.19-76.45Z"/><path class="cls-4" d="M698.5,555.5c-10.19-12.73-24.16-32.32-40.76-54.36a105.21,105.21,0,0,0-23.61,10.38C621.52,519,606,529,587.91,541.8c-45.69,32.51-71.18,58-76.2,63.13-.53.55-1.06,1.08-1.61,1.61a101.36,101.36,0,0,0-17.19,23.27c21.93,26.82,43.93,52.19,61.59,74.69,17.08,21.76,35.41,48.66,54.88,76A105,105,0,0,0,648.49,766c17.24-10.63,40-25.24,64-42.33,50.51-36,73.32-59.09,73.32-59.09a44.91,44.91,0,0,0,4.32-5.83C754.18,614.89,715.93,577.28,698.5,555.5Z"/></svg>