<svg id="Layer_2" data-name="Layer 2" xmlns="http://www.w3.org/2000/svg" xmlns:xlink="http://www.w3.org/1999/xlink" viewBox="0 0 1280 1280"><defs><style>.cls-1{fill:#ba6dcc;opacity:0;}.cls-2{fill:url(#linear-gradient);}.cls-3{opacity:0.02;}.cls-4{fill:url(#linear-gradient-2);}.cls-5{opacity:0.04;}.cls-6{fill:#fff;}</style><linearGradient id="linear-gradient" x1="1047.9" y1="960.08" x2="351.39" y2="409.55" gradientUnits="userSpaceOnUse"><stop offset="0.03" stop-color="#e7e6e7"/><stop offset="0.05" stop-color="#e4e4e4"/><stop offset="0.19" stop-color="#d9d8d9"/><stop offset="0.38" stop-color="#d2d2d2"/><stop offset="0.92" stop-color="#d0d0d0"/></linearGradient><linearGradient id="linear-gradient-2" x1="649.37" y1="503.28" x2="652.89" y2="720.45" gradientUnits="userSpaceOnUse"><stop offset="0.04" stop-color="#e7e6e7"/><stop offset="0.62" stop-color="#e5e4e5"/><stop offset="0.83" stop-color="#dedede"/><stop offset="0.98" stop-color="#d3d2d3"/><stop offset="1" stop-color="#d0d0d0"/></linearGradient></defs><rect class="cls-1" width="1280" height="1280"/><path class="cls-2" d="M278,342c116-83,248,77,384,177s513,303,355,429C895,1063,698,830,573,729S162,425,278,342Z"/><path class="cls-3" d="M618.21,485a100.77,100.77,0,0,0-13.42,7.58c-12.16,8.19-27.14,19-44.37,32.94-43.61,35.25-67.25,62.51-71.89,68-.49.59-1,1.16-1.49,1.73a98.17,98.17,0,0,0-22.11,48C505,675.61,543.48,705.15,573,729c14.63,11.82,30.25,25.46,46.63,40.13a100.21,100.21,0,0,0,24-12.32c16.61-11.59,38.45-27.5,61.37-46,48.22-39,69.34-63.75,69.34-63.75s12.89-16.14,12.29-43.54C738.55,571.25,693.72,542.32,662,519,647.35,508.23,632.75,496.76,618.21,485Z"/><path class="cls-4" d="M165,607c0-111,323-119,545-124s427-44,427,119S829,714,674,720,165,733,165,607Z"/><path class="cls-5" d="M547,488.1a92.54,92.54,0,0,0-20.11,50.39c-1.11,14.64-1.79,33.11-1.26,55.25,1.36,56.07,9.46,91.4,11.21,98.45.19.75.36,1.48.52,2.23a89.53,89.53,0,0,0,12.25,28.26c47.14,0,90.55-1.37,124.44-2.68,28.4-1.1,61.94-.28,97.77.78A92.55,92.55,0,0,0,792.5,668c1.13-20.24,2-47.26,1.31-76.72-1.5-62-9.11-93.8-9.11-93.8s-2.05-7.35-9.23-16.73c-21.53.94-43.42,1.77-65.47,2.27C659.24,484.14,603.2,485.44,547,488.1Z"/><path class="cls-6" d="M347.35,318.92c85.12,0,176.93,90,271.31,166.42,31.54-1,62.3-1.69,91.34-2.34,77.45-1.74,152.83-7.63,218.15-7.63,121.93,0,208.85,20.5,208.85,126.63,0,86.22-86.18,112.56-190.3,119.14C1040,800.93,1096.87,884.3,1017,948c-23.2,21.87-49.11,31.15-76.73,31.15-117.59,0-266-168.36-367.27-250.15q-3.86-3.12-7.93-6.37c-5.24,0-10.51,0-15.86,0C380.82,722.68,165,705.38,165,607c0-49.22,63.51-78.19,153.56-95.62C256.43,443.92,224.57,380.23,278,342c22.54-16.13,45.69-23.08,69.35-23.08m0-50h0c-35.26,0-68.38,10.9-98.44,32.42-35.13,25.13-45.19,56.46-47.45,78.32-2.82,27.36,4.72,57.26,22.41,88.88q3.78,6.75,8.18,13.67c-18.71,6.46-34.94,13.67-48.93,21.7-19.89,11.41-35.68,24.88-46.93,40A105.24,105.24,0,0,0,115,607a110.64,110.64,0,0,0,17.3,59.87c9.74,15.47,23.56,29.3,41,41.13,27,18.23,62.89,32.15,109.79,42.55,65.91,14.6,154.82,22.05,264.29,22.13,21.43,17.7,45.49,39.6,70.84,62.67,45.68,41.58,97.45,88.7,149.51,125.34,29.71,20.92,56.68,36.52,82.46,47.72,31.7,13.76,62,20.74,90,20.74a158.53,158.53,0,0,0,58.35-10.85,164.35,164.35,0,0,0,51.15-32.5c17.16-14,30.53-29.62,39.75-46.54A125,125,0,0,0,1105,881c.32-18.73-3.47-38.15-11.27-57.71-6.53-16.37-16.1-33.34-28.43-50.44q-6.13-8.49-13.21-17.14a254.38,254.38,0,0,0,52.1-20c25.49-13.41,45.49-30.93,59.45-52.06C1179.14,660.14,1187,632.68,1187,602c0-34.77-7.59-65.11-22.55-90.18-14.6-24.47-36.09-43.88-63.88-57.7-22.47-11.17-49.07-18.83-81.34-23.39-25.46-3.61-55.25-5.36-91.08-5.36-37.82,0-77.92,1.87-120.38,3.84-32.21,1.5-65.51,3.05-98.9,3.8-24.53.55-48.68,1.11-73,1.8-9.83-8.1-19.68-16.33-29.31-24.38C566.87,377.26,525.84,343,485.18,317c-23.32-14.88-44.71-25.94-65.39-33.79-25-9.48-49.32-14.29-72.44-14.29Z"/></svg>