<svg id="Layer_2" data-name="Layer 2" xmlns="http://www.w3.org/2000/svg" xmlns:xlink="http://www.w3.org/1999/xlink" viewBox="0 0 1280 1280"><defs><style>.cls-1{fill:#ba6dcc;opacity:0;}.cls-2{fill:url(#linear-gradient);}.cls-3{fill:url(#linear-gradient-2);}.cls-4{fill:#fff;}</style><linearGradient id="linear-gradient" x1="919.9" y1="402.05" x2="656.65" y2="661.59" gradientUnits="userSpaceOnUse"><stop offset="0.04" stop-color="#e7e6e7"/><stop offset="0.19" stop-color="#e0dfe0"/><stop offset="0.55" stop-color="#d4d4d4"/><stop offset="0.92" stop-color="#d0d0d0"/></linearGradient><linearGradient id="linear-gradient-2" x1="948.39" y1="462.46" x2="492.37" y2="799.88" gradientUnits="userSpaceOnUse"><stop offset="0.04" stop-color="#e7e6e7"/><stop offset="0.62" stop-color="#e5e4e5"/><stop offset="0.83" stop-color="#dedede"/><stop offset="0.98" stop-color="#d3d2d3"/><stop offset="1" stop-color="#d0d0d0"/></linearGradient></defs><rect class="cls-1" width="1280" height="1280"/><path class="cls-2" d="M533,156c118-52,227,249,266,340s249,420,156,505S623,671,590,600,415,208,533,156Z"/><path class="cls-3" d="M328,332c91-91,248,118,364,272s352,361,201,490C755,1208,500,771,480,736,425,659,237,423,328,332Z"/><path class="cls-4" d="M560.62,150C667.69,150,763.07,412.15,799,496c39,91,249,420,156,505a43.35,43.35,0,0,1-14,8.72c-3.6,30.45-18.32,58.88-48,84.28-15.85,13.09-33.24,18.92-51.65,18.92C699.52,1112.92,497.7,767,480,736c-55-77-243-313-152-404,15.33-15.33,32.53-22.15,51.09-22.14,38.67,0,83.25,29.57,129.1,73.38C480.64,283.41,471.46,183.12,533,156a67.81,67.81,0,0,1,27.62-6m0-50a117.75,117.75,0,0,0-47.78,10.24c-25.33,11.16-45.49,30.65-58.3,56.36-10.13,20.31-15.94,45-17.3,73.36a314.42,314.42,0,0,0,.25,32.51c-20.18-8.39-39.73-12.62-58.39-12.62-32.49,0-62.38,12.71-86.46,36.78a130.11,130.11,0,0,0-33.75,58.6c-5.21,19.15-6.63,40.47-4.22,63.36,3.76,35.67,16.51,75.45,39,121.62,37.51,77.1,94.73,155.17,128.92,201.82,5.86,8,11,15,15.33,21,10.72,18.59,66.13,113,136.8,203.73,42.51,54.57,83.12,98.25,120.68,129.84,23.52,19.78,46.46,35.3,68.18,46.11,26.88,13.37,53.06,20.16,77.8,20.16a129.06,129.06,0,0,0,43.65-7.48,133.06,133.06,0,0,0,39.84-22.89l.64-.53c30.81-26.32,51.06-57.06,60.44-91.64,1-.8,1.89-1.63,2.81-2.47,15.79-14.44,27.06-32.94,33.49-55,5.15-17.72,7.17-38,6-60.33-1.87-35-11.38-76-29.07-125.14-30.19-83.92-78.86-175.77-114.39-242.84-17.49-33-32.59-61.49-39.78-78.29-3.6-8.39-7.88-18.79-12.83-30.83-22-53.38-55.14-134-96-202.8-24.06-40.51-47.38-71.34-71.28-94.26C631.36,116.29,596.29,100,560.62,100Z"/></svg>