<svg id="Layer_2" data-name="Layer 2" xmlns="http://www.w3.org/2000/svg" viewBox="0 0 1280 1280"><defs><style>.cls-1{fill:#8f393f;}.cls-2{fill:#633639;}</style></defs><path class="cls-1" d="M404.5,177.5c-313,28-296,325-296,429-12,376,242,536,634,536s428-243,429-392c.44-65.74-40-301-132-369-53.18-39.3-214-70.26-361-117C571.15,230.38,478.31,170.9,404.5,177.5Z"/><path class="cls-2" d="M257.5,581.5c25-180,165-213,230-213s138,54,248,92,359,17,347,231c-22,227-144,210-241,210S232.5,761.5,257.5,581.5Z"/></svg>