<svg id="Layer_2" data-name="Layer 2" xmlns="http://www.w3.org/2000/svg" viewBox="0 0 1280 1280"><defs><style>.cls-1{fill:#fff;}.cls-2{fill:#cfcfcf;}</style></defs><path class="cls-1" d="M692.32,186.34c13.15,17.67,27.62,128.13,39.5,156.22a4.26,4.26,0,0,0,7.7.27c20-38.94,85.21-259.13,227.65-213.76a4.27,4.27,0,0,1,2.16,1.55c82,111.39-89.82,187.89-87.83,191.88s79-57,122,36c102,198-106,262-155,277S687.91,1025.13,590,1114a4.27,4.27,0,0,1-1.19.77c-29,12.53-71.42.77-81.34,8.71s-5,147.14-123.9,139.08a4.37,4.37,0,0,1-2-.67c-75.38-48.12,6.92-134.46.94-146.41s-57.33,35.38-91.33-23.82a4.36,4.36,0,0,1-.56-2.52c6.93-79.05,67.82-127.17,82.08-146.58a4.28,4.28,0,0,0-2.55-6.71c-26.37-5.71-78.46,8.81-95.44-68.47a4.32,4.32,0,0,1,0-1.79c17.15-83.8,203.88-180.22,219.82-211.11s-15-126,22-170c31.7-37.69,61.19-32.09,72.77-34.11a4.25,4.25,0,0,0,2.23-7.19c-12.64-12.25-77.06-13-29-120.7,51-114.38,111-135.83,125.89-137.83A4.19,4.19,0,0,1,692.32,186.34Z"/><path class="cls-2" d="M779.5,406.5c88,39-17,228-43,262s-74,63-97,106,15,187-66,203-58-88-66-102-38-17-38-56,86-130,108-163c43-70,25-102,51-151S691.5,367.5,779.5,406.5Z"/></svg>