<svg xmlns="http://www.w3.org/2000/svg" viewBox="0 0 1280 1280"><defs><style>.cls-1,.cls-3{fill:#4d4d4d;}.cls-1,.cls-2{opacity:0;}.cls-2,.cls-4{fill:#434343;}</style></defs><g id="Layer_2" data-name="Layer 2"><path class="cls-1" d="M692.32,186.34c13.15,17.67,27.62,128.13,39.5,156.22a4.26,4.26,0,0,0,7.7.27c20-38.94,85.21-259.13,227.65-213.76a4.27,4.27,0,0,1,2.16,1.55c82,111.39-89.82,187.89-87.83,191.88s79-57,122,36c102,198-106,262-155,277S687.91,1025.13,590,1114a4.27,4.27,0,0,1-1.19.77c-29,12.53-71.42.77-81.34,8.71s-5,147.14-123.9,139.08a4.37,4.37,0,0,1-2-.67c-75.38-48.12,6.92-134.46.94-146.41s-57.33,35.38-91.33-23.82a4.36,4.36,0,0,1-.56-2.52c6.93-79.05,67.82-127.17,82.08-146.58a4.28,4.28,0,0,0-2.55-6.71c-26.37-5.71-78.46,8.81-95.44-68.47a4.32,4.32,0,0,1,0-1.79c17.15-83.8,203.88-180.22,219.82-211.11s-15-126,22-170c31.7-37.69,61.19-32.09,72.77-34.11a4.25,4.25,0,0,0,2.23-7.19c-12.64-12.25-77.06-13-29-120.7,51-114.38,111-135.83,125.89-137.83A4.19,4.19,0,0,1,692.32,186.34Z"/><path class="cls-2" d="M779.5,406.5c88,39-17,228-43,262s-74,63-97,106,15,187-66,203-58-88-66-102-38-17-38-56,86-130,108-163c43-70,25-102,51-151S691.5,367.5,779.5,406.5Z"/></g><g id="alt"><path class="cls-3" d="M995.41,33.26,804.77,131.58a2.29,2.29,0,0,0-1,1L738,268.47a2.28,2.28,0,0,1-4.24-.33L680.53,93.07a2.29,2.29,0,0,0-3.46-1.23L544.18,180.78a2.28,2.28,0,0,0-1,1.7l-13.6,158.24a2.29,2.29,0,0,0,.94,2l61.27,44a2.29,2.29,0,0,1-.81,4.09L482.77,416.11a2.28,2.28,0,0,0-1.77,2.22v190.4a2.29,2.29,0,0,1-.8,1.74L216.25,836.26a2.28,2.28,0,0,0,.44,3.77l131.07,67.08a2.29,2.29,0,0,1,.87,3.28L230.8,1091.83a2.28,2.28,0,0,0,1.76,3.52l117.32,8.16A2.28,2.28,0,0,1,352,1106l-10.28,151.21a2.29,2.29,0,0,0,3.44,2.13l120-71.1a2.24,2.24,0,0,0,1.05-1.41L487,1103.45a2.28,2.28,0,0,1,2.45-1.72L590,1112.1a2.3,2.3,0,0,0,2.29-1.28l252-517.2a2.22,2.22,0,0,1,.65-.81l219.67-169.76a2.29,2.29,0,0,0,.64-2.85L974.27,242a2.26,2.26,0,0,0-2.34-1.22l-79.67,10.92a2.28,2.28,0,0,1-2.34-3.3l108.57-212A2.28,2.28,0,0,0,995.41,33.26Z"/><path class="cls-4" d="M768.57,326.21,650.52,374.26a2.3,2.3,0,0,0-1.3,1.36L574.49,587.45a2.55,2.55,0,0,1-.29.57l-155,216a2.29,2.29,0,0,0,.89,3.4L489.41,840a2.27,2.27,0,0,1,1.31,2l3.15,76.1a2.27,2.27,0,0,0,.71,1.57l53.34,50.25a2.3,2.3,0,0,0,3.35-.22L609.45,898a2.36,2.36,0,0,0,.5-1.22L624.17,748a2.27,2.27,0,0,1,.55-1.29L732,624a2.17,2.17,0,0,0,.36-.55l77.09-168.2a2.3,2.3,0,0,0,.11-1.61l-38-126A2.28,2.28,0,0,0,768.57,326.21Z"/></g></svg>