<svg id="Layer_2" data-name="Layer 2" xmlns="http://www.w3.org/2000/svg" viewBox="0 0 1280 1280"><defs><style>.cls-1{fill:#ab0f0f;}.cls-2{fill:#7d1d1d;}</style></defs><path class="cls-1" d="M473.5,296.5c-23,5-18-78-97-78s-41,96-76,125-110,33-111,92,72,80,72,80-78,32-78,80c8,150,58,163,60,179s-33,24-34,65c4,87,96,63,163,107s94,161,137,165,50-131,59-131,20,75,42,76,38-41,46-39-3,86,88,71c121-25,101-133,124-165s242-129,211-175-116-91-115-100,55-5,55-75-57-77-57-77c2-104-53-77-45-97s117-126,48-181c-115-75-122,77-136,82s-25-41-87-42-49-51-111-46S496.5,291.5,473.5,296.5Z"/><path class="cls-2" d="M592.5,486.5c-17,3-17-24-82-24s-135,40-149,137,85,159,85,159-23,116,95,116c202,0,238-141,238-206,0-32,71-43,71-137s-68-65-94-70,1-39-76-39S609.5,483.5,592.5,486.5Z"/></svg>