<svg xmlns="http://www.w3.org/2000/svg" viewBox="0 0 1280 1280"><defs><style>.cls-1,.cls-3{fill:#4d4d4d;}.cls-1,.cls-2{opacity:0;}.cls-2,.cls-4{fill:#434343;}</style></defs><g id="Layer_2" data-name="Layer 2"><path class="cls-1" d="M473.5,296.5c-23,5-18-78-97-78s-41,96-76,125-110,33-111,92,72,80,72,80-78,32-78,80c8,150,58,163,60,179s-33,24-34,65c4,87,96,63,163,107s94,161,137,165,50-131,59-131,20,75,42,76,38-41,46-39-3,86,88,71c121-25,101-133,124-165s242-129,211-175-116-91-115-100,55-5,55-75-57-77-57-77c2-104-53-77-45-97s117-126,48-181c-115-75-122,77-136,82s-25-41-87-42-49-51-111-46S496.5,291.5,473.5,296.5Z"/><path class="cls-2" d="M592.5,486.5c-17,3-17-24-82-24s-135,40-149,137,85,159,85,159-23,116,95,116c202,0,238-141,238-206,0-32,71-43,71-137s-68-65-94-70,1-39-76-39S609.5,483.5,592.5,486.5Z"/></g><g id="alt"><path class="cls-3" d="M461.64,264.28l-111-80.92a2,2,0,0,0-2.94.7L284.32,307.45a2,2,0,0,1-.54.66l-130,101.19a2,2,0,0,0-.18,3L239.31,497a2,2,0,0,1-.16,3l-86.09,68.46a2,2,0,0,0-.66,2.14L216,776.26a2,2,0,0,1-.14,1.51l-35.4,67.67a2,2,0,0,0,.29,2.26l68.71,75.65a2,2,0,0,0,.77.52l108.68,40.7a2,2,0,0,1,.85.6l139.38,170.38a2,2,0,0,0,3.36-.44l60.25-133.78a2,2,0,0,1,3.55-.14l41.89,75.8a2,2,0,0,0,3,.56l45.94-39a2,2,0,0,1,2.77.19L727,1114.08a2,2,0,0,0,2.46.41l120-67.39a2.06,2.06,0,0,0,.92-1.13l35.21-108.72a2,2,0,0,1,.7-1l226.87-170.61a2,2,0,0,0,.18-3L989.8,643.23a2,2,0,0,1-.26-2.54l57-84.34a2,2,0,0,0-.1-2.36L986.9,479.8a2,2,0,0,1-.44-1.25V401.34a2,2,0,0,0-1.27-1.85l-45.91-17.95a2,2,0,0,1-1.24-2.2l36.29-201.58a2,2,0,0,0-3.13-2L845.52,268.18a2,2,0,0,1-2.73-.35l-53.65-66a2,2,0,0,0-2.14-.65l-60.73,19a2,2,0,0,1-2-.48L664,160a2,2,0,0,0-2.33-.34L463.74,264.43A2,2,0,0,1,461.64,264.28Z"/><path class="cls-4" d="M343.45,509.39,590,469.18a2,2,0,0,0,1.12-.59l104-109.23a2,2,0,0,1,3,.16L758.93,439a2,2,0,0,0,1,.7L881.87,477a2,2,0,0,1,1.19,2.82L795.45,648.59a1.42,1.42,0,0,0-.08.18L728.64,816.93a2,2,0,0,1-.76.94L559,927.59a2,2,0,0,1-2.69-.49L434.42,760.66a2.23,2.23,0,0,1-.26-.48L341.91,512.05A2,2,0,0,1,343.45,509.39Z"/></g></svg>