<svg xmlns="http://www.w3.org/2000/svg" viewBox="0 0 1280 1280"><defs><style>.cls-1,.cls-3{fill:#4d4d4d;}.cls-1,.cls-2{opacity:0;}.cls-2,.cls-4{fill:#434343;}</style></defs><g id="Layer_2" data-name="Layer 2"><path class="cls-1" d="M316.5,93.5c78,0,129,121,144,121s22-26,50-31c94,34,142,146,180,171s141,25,179,119c-8,79-60,105-58,164s27,75,25,117-28,46-26,60,130,116,91,309c-130-24-171-139-178-160-223,5-219-37-236-36s-104,104-227,113c-5-135,54-228,79-256s2-127-7-146-66-40-70-67c19-86,91-162,89-194s-63-60-66-112S298.5,118.5,316.5,93.5Z"/><path class="cls-2" d="M518.5,420.5c27,5,132,105,131,147s-42,33-39,79,75,127,72,156c-33,1-108-46-120-70s-7-89-18-127-39-37-49-121C495.5,455.5,506.5,432.5,518.5,420.5Z"/></g><g id="alt"><path class="cls-3" d="M340.14,369.71,264,284.2a2.32,2.32,0,0,1-.56-1.78l26-228.07a2.28,2.28,0,0,1,3.78-1.46L455.42,195.42a2.28,2.28,0,0,0,3.37-.4l48-68a2.28,2.28,0,0,1,3.6-.17L684.59,330a2.23,2.23,0,0,0,.65.53L911.56,452.91a2.28,2.28,0,0,1,.94,3.06L824.44,625.81a2.27,2.27,0,0,0-.15,1.75l56.54,175.89a2.3,2.3,0,0,1-1.58,2.91L818.56,823a2.28,2.28,0,0,0-1.28,3.49l93.6,137a2.18,2.18,0,0,1,.38,1l23.07,197a2.29,2.29,0,0,1-3.4,2.26l-146-82.76a2.28,2.28,0,0,1-.88-.89l-45.67-83.44a2.26,2.26,0,0,0-2.07-1.19l-168.53,5.27a2.37,2.37,0,0,1-1.16-.28l-79.42-42.84a2.26,2.26,0,0,0-2.1,0L248.92,1075.15a2.28,2.28,0,0,1-3.2-2.72L328.26,805a2,2,0,0,0,.1-.6L332,687.72a2.27,2.27,0,0,0-.5-1.5L245,578.73a2.28,2.28,0,0,1-.29-2.4L340.5,372.2A2.28,2.28,0,0,0,340.14,369.71Z"/><path class="cls-4" d="M483.53,307.55,448.21,425.29a2.23,2.23,0,0,0,.09,1.57l86.34,198.43a2.11,2.11,0,0,1,.18.78L545.4,813.35a2.26,2.26,0,0,0,1.12,1.84L751.94,935.51a2.29,2.29,0,0,0,3.18-3l-130.78-253a2.28,2.28,0,0,1,.12-2.31L731.73,514.63a2.29,2.29,0,0,0-.44-3L487.19,306.45A2.29,2.29,0,0,0,483.53,307.55Z"/></g></svg>