<svg id="Layer_2" data-name="Layer 2" xmlns="http://www.w3.org/2000/svg" viewBox="0 0 1280 1280"><defs><style>.cls-1{fill:#fff;}.cls-2{fill:#d5d5d5;}</style></defs><path class="cls-1" d="M316.5,93.5c78,0,129,121,144,121s22-26,50-31c94,34,142,146,180,171s141,25,179,119c-8,79-60,105-58,164s27,75,25,117-28,46-26,60,130,116,91,309c-130-24-171-139-178-160-223,5-219-37-236-36s-104,104-227,113c-5-135,54-228,79-256s2-127-7-146-66-40-70-67c19-86,91-162,89-194s-63-60-66-112S298.5,118.5,316.5,93.5Z"/><path class="cls-2" d="M518.5,420.5c27,5,132,105,131,147s-42,33-39,79,75,127,72,156c-33,1-108-46-120-70s-7-89-18-127-39-37-49-121C495.5,455.5,506.5,432.5,518.5,420.5Z"/></svg>