<svg id="Layer_1" data-name="Layer 1" xmlns="http://www.w3.org/2000/svg" viewBox="0 0 1280 1280"><defs><style>.cls-1{fill:#fff;}.cls-2{fill:#9c9e9c;}.cls-3{fill:#666;}.cls-4{fill:#ddd;}</style></defs><path class="cls-1" d="M1082.34,523.13V171.42s97.53,102.46,97.53,246.3V523.13Z"/><path class="cls-1" d="M999.59,592.1v132c0,47.29-95.57,168.47-95.57,168.47h306.39V592.1Z"/><rect class="cls-2" x="216.36" y="509.34" width="813.76" height="102.46"/><rect class="cls-3" x="216.36" y="573.38" width="813.76" height="38.42"/><rect class="cls-1" x="980.87" y="490.62" width="257.13" height="140.88"/><path class="cls-1" d="M229.52,481.76H41v39.4c24.88,0,106.22,38.43,106.22,38.43S65.88,598,41,598v39.4H229.52c20.09,0,78.47-77.82,78.47-77.82S249.61,481.76,229.52,481.76Z"/><path class="cls-4" d="M109,523.13c-9.24-4.86-39.6-11.16-68-16.3v14.33c24.88,0,106.22,38.43,106.22,38.43S65.88,598,41,598V626.5c45.91-18.45,133-54.79,133-64.94C174,547.76,127.7,533,109,523.13Z"/><rect class="cls-4" x="980.87" y="592.1" width="257.13" height="39.41"/><path class="cls-4" d="M999.59,592.1v132c0,47.29-95.57,168.47-95.57,168.47h30.53c44.53-40.23,95.58-100.52,95.58-165.51v-135Z"/><path class="cls-4" d="M1082.34,509.34h97.53V417.72h-97.53Z"/><rect class="cls-4" x="980.87" y="490.62" width="257.13" height="18.72"/><path d="M1082.34,171.42s97.53,102.46,97.53,246.3v72.9H1238V631.5h-27.59V892.58H904s95.57-121.18,95.57-168.47V631.5H980.87V611.8H264.12c-13.53,14.14-26.89,25.61-34.6,25.61H41V598c.78,0,1.61,0,2.49-.11s1.82-.18,2.8-.32,2-.32,3.08-.52a170.17,170.17,0,0,0,20.82-5.75l2.14-.71c32.87-11.17,74.89-31,74.89-31s-42-19.85-74.89-31l-2.14-.71a170.17,170.17,0,0,0-20.82-5.75c-1.07-.2-2.1-.37-3.08-.52s-1.91-.24-2.8-.32-1.71-.11-2.49-.11v-39.4H229.52c8.07,0,22.32,12.55,36.47,27.58H980.87V490.62h101.47V171.42m0-29.55a29.54,29.54,0,0,0-29.54,29.55V461.07H980.87a29.56,29.56,0,0,0-27.51,18.72H278.44c-20.05-19.7-34.31-27.59-48.92-27.59H41a29.56,29.56,0,0,0-29.56,29.56v39.4a29.57,29.57,0,0,0,29.49,29.56h.14c.19,0,.52,0,1,.12s1.11.17,1.74.29a139.74,139.74,0,0,1,17.05,4.77l1.94.65c2.79.94,5.65,2,8.56,3-2.91,1.06-5.77,2.08-8.56,3l-1.94.65a137.62,137.62,0,0,1-17,4.76c-.64.13-1.22.22-1.74.3s-.84.11-1,.12h-.15A29.56,29.56,0,0,0,11.44,598v39.4A29.56,29.56,0,0,0,41,667H229.52c13.9,0,25.6-7.81,33.2-13.68a170.32,170.32,0,0,0,13.67-11.93H953A29.67,29.67,0,0,0,970,659v65.1c0,2.12-1.2,22.51-42.9,85.69-22.93,34.76-46.08,64.18-46.32,64.48A29.56,29.56,0,0,0,904,922.13h306.39A29.55,29.55,0,0,0,1240,892.58V661a29.56,29.56,0,0,0,27.59-29.49V490.62A29.56,29.56,0,0,0,1238,461.07h-28.57V417.72a367.75,367.75,0,0,0-16.54-107.83,430.27,430.27,0,0,0-36-83.69c-25.9-46.31-52.05-74-53.15-75.16a29.59,29.59,0,0,0-21.42-9.17Z"/></svg>