<svg id="Layer_2" data-name="Layer 2" xmlns="http://www.w3.org/2000/svg" viewBox="0 0 1280 1280"><defs><style>.cls-1{fill:#ccc;}.cls-2{fill:#999;}</style></defs><path class="cls-1" d="M802.51,486.5a15.67,15.67,0,0,1-1.66-.09l-290-32a15,15,0,0,1-12.76-10.74,223.74,223.74,0,0,1-7-40.74c-2.42-31.62,2.92-56.38,15.87-73.62,8.86-11.77,26-25.81,57.53-25.81,28.92,0,46.61,8.34,62.21,15.7,12.21,5.75,21.85,10.3,35.79,10.3,15.15,0,21.89-2.92,30.43-6.61,10.17-4.4,21.71-9.39,44.57-9.39h.17c24.6.27,44.33,9.21,58.64,26.58,36.81,44.66,21.61,130.49,20.94,134.12A15,15,0,0,1,802.51,486.5Z"/><path d="M564.5,318.5c48,0,61,26,98,26s36-16,75-16c91,1,65,143,65,143l-290-32s-35-121,52-121m0-30c-37.7,0-58.61,17.29-69.52,31.8-15.21,20.23-21.54,48.42-18.84,83.78a236.33,236.33,0,0,0,7.54,43.76,30,30,0,0,0,25.53,21.48l290,32a30.91,30.91,0,0,0,3.32.18A30,30,0,0,0,832,476.9a295.77,295.77,0,0,0,3.9-51.82c-.54-40.83-10-72.64-28-94.54-17-20.64-41.24-31.72-70.06-32h-.33c-26,0-40.16,6.14-50.53,10.62-7.75,3.36-12.42,5.38-24.47,5.38-10.58,0-18.06-3.53-29.39-8.87C616.92,298,596.78,288.5,564.5,288.5Z"/><path class="cls-2" d="M796.39,369.77c-9.26-23-26.79-40.92-58.89-41.27-39,0-38,16-75,16s-50-26-98-26c-19.24,0-32.51,5.93-41.51,15.15,32.21,28.53,77.92,56.85,132.51,56.85C703.44,390.5,756.52,379.91,796.39,369.77Z"/><path class="cls-1" d="M797.5,634.5c-35.36,0-151.08-7-258.35-23-60.57-9.08-108.91-19.62-143.7-31.32-30.89-10.39-71.95-27.88-71.95-59.64,0-32.45,13.52-76,77.91-99.38,32.42-11.76,74.52-17.47,128.71-17.47,12.79,0,24.35.3,33.63.54,6.29.17,11.73.31,15.75.31,58.49,0,156.27,8.57,239.31,32.72,45.71,13.29,82,29.83,107.87,49.15,32.39,24.2,48.82,52.84,48.82,85.13,0,26.73-14.36,43.94-43.89,52.64C906.62,631.5,867.76,634.5,797.5,634.5Z"/><path d="M530.12,418.65c21.35,0,39.09.85,49.38.85,119,0,381,35,381,152,0,38-34,48-163,48-71,0-459-28-459-99,0-91.6,117.52-101.85,191.62-101.85m0-30h0c-56,0-99.74,6-133.82,18.37-25.73,9.33-46.19,22.49-60.81,39.11-17.91,20.36-27,45.38-27,74.37,0,13,5.13,32,29.55,49.18,12.8,9,30,17.07,52.62,24.68,35.61,12,84.82,22.72,146.26,31.93,108,16.2,224.83,23.21,260.57,23.21,71.8,0,111.88-3.18,138.35-11,18-5.31,31.24-13.27,40.42-24.36,9.44-11.4,14.23-25.75,14.23-42.67a105.89,105.89,0,0,0-15.86-55.72c-9.12-15-22.23-28.91-39-41.43C908.34,454,870.44,436.61,823,422.82c-84.56-24.59-184-33.32-243.5-33.32-3.82,0-9.17-.14-15.36-.3-9.37-.25-21-.55-34-.55Z"/><path class="cls-2" d="M346.37,483.53c-5,10.55-7.87,22.78-7.87,37,0,71,388,99,459,99,129,0,163-10,163-48A74.6,74.6,0,0,0,957.38,550c-54.06,17.12-120.1,33-179.38,33C512.68,583,395.68,524.36,346.37,483.53Z"/></svg>