<svg id="Layer_2" data-name="Layer 2" xmlns="http://www.w3.org/2000/svg" viewBox="0 0 1280 1280"><defs><style>.cls-1{fill:#999;}.cls-2{fill:#ccc;}.cls-3{fill:#333;}.cls-4{fill:#0c0c0c;}</style></defs><path class="cls-1" d="M903,409c-26,0-67,51-98,61s-168,59.15-168,59.15S500,480,469,470s-72-61-98-61-39,21-39,52c0,63,111,151,240,151H702c129,0,240-88,240-151C942,430,929,409,903,409Z"/><path class="cls-2" d="M770,589c-51,12-99.64,10.83-133,11-33.36-.17-82,1-133-11S368,523,336.67,484.61C359,543.89,458.51,612,572,612H702c113.49,0,213-68.11,235.33-127.39C906,523,821,577,770,589Z"/><path d="M461.65,493.29a15,15,0,0,1-13.17-22.47L497.12,386a15,15,0,1,1,26,14.92L474.5,485.75A15,15,0,0,1,461.65,493.29Z"/><path d="M814.35,493.29a15,15,0,0,0,13.17-22.47L778.88,386a15,15,0,1,0-26,14.92l48.64,84.84A15,15,0,0,0,814.35,493.29Z"/><path class="cls-2" d="M751,387.5c-5-29-2-69-44-69s-43,12-70,12-28-12-70-12-39,40-44,69-56,95-54,103,30,69,168,69,166-61,168-69S756,416.5,751,387.5Z"/><path class="cls-1" d="M707,318.5c-42,0-43,12-70,12s-28-12-70-12c-29.25,0-36.67,19.4-40.17,41,38.81,15.19,87.79,31.44,110.17,31.44s71.36-16.25,110.17-31.44C743.67,337.9,736.25,318.5,707,318.5Z"/><path class="cls-3" d="M637,533.5c-73.57,0-128-32.7-160.46-52.23l-3.16-1.9a2.5,2.5,0,0,1-.89-3.39c3.33-5.79,7.89-13.06,12.72-20.76,5-8,10.66-17,15.84-25.8a2.49,2.49,0,0,1,3.05-1.06c2.3.88,4.72,1.83,7.27,2.83C539.18,442.06,581.2,458.5,637,458.5s97.82-16.44,125.63-27.31c2.55-1,5-1.95,7.27-2.83a2.49,2.49,0,0,1,3.05,1.06c5.18,8.8,10.84,17.83,15.84,25.8,4.83,7.7,9.39,15,12.72,20.76a2.51,2.51,0,0,1-.88,3.39l-3.17,1.9C765,500.8,710.57,533.5,637,533.5Z"/><path class="cls-4" d="M770.79,430.69c10.2,17.3,21.8,34.81,28.55,46.53C768.28,495.84,712.37,531,637,531s-131.28-35.16-162.34-53.78C481.41,465.5,493,448,503.21,430.69,530.47,441.16,575.56,461,637,461s106.53-19.84,133.79-30.31m0-5A4.9,4.9,0,0,0,769,426c-2.3.88-4.73,1.83-7.28,2.83C734.09,439.67,692.33,456,637,456s-97.09-16.33-124.72-27.14c-2.55-1-5-1.95-7.28-2.83a4.9,4.9,0,0,0-1.79-.34,5,5,0,0,0-4.31,2.47c-5.17,8.76-10.82,17.78-15.8,25.73-4.85,7.72-9.42,15-12.77,20.84a5,5,0,0,0,1.76,6.78l3.17,1.9C491.18,493,513,506.1,540.1,516.84,572.19,529.55,604.79,536,637,536s64.81-6.45,96.9-19.16C761,506.1,782.82,493,798.74,483.41l3.17-1.9a5,5,0,0,0,1.76-6.78c-3.35-5.82-7.92-13.12-12.77-20.84-5-7.95-10.63-17-15.8-25.73a5,5,0,0,0-4.31-2.47Z"/><path d="M707,318.5c42,0,39,40,44,69,3.63,21,31.46,61.54,45.7,85.25,3.26-1.1,6.06-2,8.3-2.75,31-10,72-61,98-61s39,21,39,52c0,63-111,151-240,151H572c-129,0-240-88-240-151,0-31,13-52,39-52s67,51,98,61c2.24.72,5,1.65,8.3,2.75C491.54,449,519.37,408.54,523,387.5c5-29,2-69,44-69s43,12,70,12,28-12,70-12m0-30c-28.35,0-42.78,5-53.31,8.64C647,299.45,644,300.5,637,300.5s-10-1.05-16.69-3.36c-10.53-3.65-25-8.64-53.31-8.64-13.67,0-25.78,3-36,8.83a61.38,61.38,0,0,0-23.41,24.23c-8.46,15.44-10.56,32.73-12.41,48-.57,4.65-1.1,9-1.76,12.87-.18,1-1.5,6.93-10.21,22.79-5.22,9.5-11.55,19.81-17.56,29.42-7.75-5.25-16.63-12.44-24.34-18.68C417.86,396.94,395.7,379,371,379c-22.23,0-41.3,9.58-53.68,27C307.15,420.24,302,438.75,302,461c0,21.75,8.67,45.2,25.08,67.8,14.57,20.06,35.2,39.46,59.66,56.12a334,334,0,0,0,84.1,40.89A328.52,328.52,0,0,0,572,642H702a328.52,328.52,0,0,0,101.16-16.19,334,334,0,0,0,84.1-40.89c24.46-16.66,45.09-36.06,59.66-56.12,16.41-22.6,25.08-46,25.08-67.8,0-22.25-5.15-40.76-15.32-55-12.38-17.39-31.45-27-53.68-27-24.7,0-46.86,17.94-70.33,36.93-7.71,6.24-16.59,13.43-24.34,18.68-6-9.61-12.34-19.92-17.56-29.42-8.71-15.86-10-21.76-10.21-22.79-.66-3.84-1.19-8.22-1.76-12.87-1.85-15.24-3.95-32.53-12.41-48A61.38,61.38,0,0,0,743,297.33c-10.2-5.86-22.31-8.83-36-8.83Z"/></svg>