<svg id="Layer_1" data-name="Layer 1" xmlns="http://www.w3.org/2000/svg" xmlns:xlink="http://www.w3.org/1999/xlink" viewBox="0 0 1280 1280"><defs><style>.cls-1{fill:url(#radial-gradient);}.cls-2{fill:#c3c4c3;}.cls-3{fill:#999;}.cls-4{fill:#fff;}</style><radialGradient id="radial-gradient" cx="640.09" cy="427.3" r="668.14" gradientUnits="userSpaceOnUse"><stop offset="0.23" stop-color="#fff"/><stop offset="1" stop-color="#c3c4c3"/></radialGradient></defs><path class="cls-1" d="M860.09,493.37c-22-66-39-174-220-174s-198,108-220,174c-54,91-124,292-124,306s82,161,148,161c9,0,72-11,72-155,0-149-46-126-34-211s73-84,158-84,146-1,158,84-34,62-34,211c0,144,63,155,72,155,66,0,148-147,148-161S914.09,584.37,860.09,493.37Z"/><path class="cls-2" d="M478.09,766.37c0,53-80,127-72.5,159.5,2.57,11.11,11.39,22,21.89,31.63a53.1,53.1,0,0,0,16.61,2.87c9,0,72-11,72-155,0-104.47-22.61-124.39-32-156.25C481.73,679,478.09,730.63,478.09,766.37Z"/><path class="cls-3" d="M427.32,958A95.74,95.74,0,0,1,403,945.31l-.08-.06,0-.08a53.91,53.91,0,0,1-7.49-16.94c-4.58-19.85,12.47-45.92,32.22-76.1,18.76-28.66,40-61.15,40-85.76,0-52.83,7.72-138.34,8.05-142,.27-3,2.48-16.74,7.55-23.84l.93-1.31,0,1.61c0,2.94-.19,6.61-.34,10.51-.53,13.7-1.18,30.75.83,37.58l0,.09v.1c-2.24,28.25-6,81.06-6,117.21,0,27.89-22.21,61.83-41.8,91.78-17.61,26.91-34.24,52.32-30.71,67.61,2.24,9.7,9.55,20.25,21.74,31.38l1.72,1.57Z"/><path class="cls-3" d="M483.59,600.87c-.24,13-2.12,39.31.51,48.25-2.37,29.85-6,81.51-6,117.25,0,53-80,127-72.5,159.5,2.57,11.11,11.39,22,21.89,31.63a94.79,94.79,0,0,1-24.21-12.6,53.26,53.26,0,0,1-7.42-16.78c-4.53-19.65,12.47-45.63,32.15-75.72,18.79-28.72,40.09-61.27,40.09-86,0-52.85,7.72-138.29,8-141.91.27-2.91,2.46-16.59,7.46-23.59m1.06-3.2-1.87,2.62c-5.13,7.19-7.36,21-7.64,24.08-.33,3.62-8.05,89.16-8.05,142,0,24.46-21.21,56.88-39.93,85.49-19.81,30.28-36.91,56.42-32.28,76.48a54.1,54.1,0,0,0,7.55,17.1l.1.17.17.11a96.07,96.07,0,0,0,24.47,12.73l4.43,1.46-3.45-3.14c-12.1-11.06-19.37-21.53-21.58-31.13-3.48-15.07,13.09-40.4,30.64-67.21,19.63-30,41.88-64,41.88-92.06,0-36.13,3.77-88.92,6-117.18V649l-.05-.18c-2-6.75-1.31-24.48-.81-37.42.15-3.9.29-7.58.34-10.52l.06-3.22Z"/><path class="cls-2" d="M802.09,766.37c0,53,80,127,72.5,159.5-2.56,11.11-11.38,22-21.88,31.63a53.12,53.12,0,0,1-16.62,2.87c-9,0-72-11-72-155,0-104.47,22.62-124.39,32-156.25C798.46,679,802.09,730.63,802.09,766.37Z"/><path class="cls-3" d="M852.37,957.14c12.19-11.13,19.5-21.68,21.74-31.38,3.52-15.29-13.11-40.7-30.71-67.61-19.6-29.95-41.81-63.89-41.81-91.78,0-36.14-3.76-89-6-117.21v-.1l0-.09c2-6.83,1.35-23.88.83-37.59-.15-3.89-.29-7.57-.35-10.5l0-1.61.94,1.31c5.07,7.1,7.28,20.82,7.55,23.84.33,3.61,8,89.12,8,142,0,24.61,21.26,57.09,40,85.76,19.75,30.18,36.81,56.25,32.23,76.1a54.14,54.14,0,0,1-7.49,16.94l-.05.08-.08.06A95.63,95.63,0,0,1,852.86,958l-2.21.73Z"/><path class="cls-3" d="M796.59,600.87c5,7,7.2,20.68,7.46,23.59.33,3.62,8,89.06,8,141.91,0,24.76,21.3,57.31,40.1,86,19.68,30.09,36.68,56.07,32.15,75.72a53.26,53.26,0,0,1-7.42,16.78,95,95,0,0,1-24.21,12.6c10.5-9.58,19.32-20.52,21.88-31.63,7.5-32.5-72.5-106.5-72.5-159.5,0-35.74-3.63-87.4-6-117.25,2.63-8.94.75-35.3.5-48.25m-1.06-3.2.06,3.22c.06,2.94.2,6.62.35,10.52.5,12.94,1.18,30.67-.81,37.42l-.06.18,0,.18c2.24,28.26,6,81,6,117.18,0,28,22.26,62,41.89,92.06,17.55,26.81,34.12,52.14,30.64,67.21-2.22,9.6-9.48,20.07-21.59,31.13l-3.44,3.14,4.43-1.46a96.23,96.23,0,0,0,24.47-12.73l.16-.11.11-.17a54.33,54.33,0,0,0,7.55-17.1c4.63-20.06-12.48-46.2-32.28-76.48-18.72-28.61-39.94-61-39.94-85.49,0-52.84-7.71-138.38-8-142-.28-3-2.51-16.89-7.64-24.08l-1.88-2.62Z"/><path class="cls-4" d="M640.09,334.17c-57.5,0-235,54.2-235,327.2,153-258,235-182.15,235-182.15s82-75.85,235,182.15C875.09,388.37,697.59,334.17,640.09,334.17Z"/><path d="M640.09,319.37c181,0,198,108,220,174,54,91,124,292,124,306,0,11.19-52.42,107.4-107.17,145.53h0a94.74,94.74,0,0,1-24.18,12.59h0c-.65.22-1.29.42-1.94.61l-.55.15c-1,.29-2,.54-3,.77-.36.08-.72.17-1.08.24s-.93.19-1.39.27-1.18.21-1.77.29l-1.09.16c-.77.1-1.55.17-2.32.23l-.79.06c-.91.05-1.81.09-2.72.09-9,0-72-11-72-155,0-1.46,0-2.89,0-4.32,0-.4,0-.8,0-1.2,0-1.13,0-2.24,0-3.35,0-.31,0-.63,0-.94,0-1.37.05-2.73.07-4.07,0-.3,0-.6,0-.9,0-1.08.06-2.14.08-3.2,0-.37,0-.74,0-1.11,0-1.3.07-2.6.12-3.87v-.12c0-1.24.1-2.47.15-3.68,0-.36,0-.72.05-1.08,0-1,.09-2,.14-2.93,0-.27,0-.55,0-.83.06-1.19.13-2.38.2-3.55,0-.28,0-.56,0-.84.06-.93.12-1.84.18-2.75,0-.33,0-.67.07-1q.11-1.7.24-3.36c0-.09,0-.18,0-.27.08-1,.16-2,.25-3.06,0-.32.06-.65.08-1,.08-.85.15-1.7.23-2.54,0-.25,0-.49.07-.74.1-1,.2-2.06.31-3.07,0-.27,0-.54.08-.82.09-.78.17-1.56.26-2.33,0-.3.06-.6.1-.89.11-1,.22-2,.34-2.92,0-.11,0-.21,0-.32.11-.87.22-1.72.33-2.57l.12-.88c.1-.74.2-1.46.3-2.18l.09-.68c.13-.89.26-1.78.4-2.65,0-.25.08-.5.11-.76.11-.66.21-1.31.31-2,.05-.28.1-.56.14-.84q.21-1.26.42-2.49c0-.14,0-.28.08-.43.12-.7.25-1.39.37-2.08.05-.28.1-.56.16-.84.11-.61.23-1.21.34-1.81,0-.21.08-.43.13-.64.15-.77.3-1.52.45-2.27.05-.25.11-.49.16-.74.11-.54.23-1.09.34-1.62.06-.26.11-.52.17-.78l.48-2.13c0-.17.07-.33.11-.5.13-.56.27-1.13.4-1.68.06-.26.12-.52.19-.78.12-.5.24-1,.37-1.5,0-.21.1-.43.16-.63.16-.66.33-1.3.49-1.93l.2-.74c.12-.44.23-.87.35-1.3l.21-.76c.16-.58.32-1.16.49-1.73.06-.23.12-.45.19-.67.13-.43.25-.87.38-1.3.08-.25.15-.51.23-.76l.36-1.19c.07-.22.13-.44.2-.66.17-.55.34-1.09.52-1.63l.24-.75.33-1c.08-.26.17-.51.25-.77l.45-1.31.3-.9.33-1c.1-.26.19-.53.29-.79l.3-.85c.14-.38.27-.76.41-1.13l.36-1,.32-.84.25-.67.33-.86c.07-.19.14-.38.22-.57l.63-1.62.18-.45.38-1c0-.11.09-.22.13-.32.45-1.1.89-2.18,1.33-3.24l0-.06c3.87-9.31,7.61-17.22,10.49-25.67h0c.33-1,.65-1.94,1-2.92v0l.45-1.47c2.63-8.94.75-35.3.5-48.25a27.78,27.78,0,0,1,2.87,5.31c-.33-3.7-.77-7.62-1.37-11.81-11.72-83.05-70.21-84-152.17-84H634.27c-81.95,0-140.45,1-152.18,84-.59,4.19-1,8.11-1.36,11.81a28.33,28.33,0,0,1,2.86-5.31c-.24,13-2.12,39.31.51,48.25l.45,1.47v0c.31,1,.62,1.95.95,2.91h0c2.88,8.46,6.62,16.36,10.49,25.67l0,.06c.44,1,.87,2.12,1.31,3.21l.15.36.38.95.18.45.63,1.62.22.57.32.84.27.71.3.82c.13.32.25.65.37,1s.27.75.41,1.13l.3.85.28.78c.11.33.23.65.34,1l.3.88.45,1.31c.08.26.16.51.25.77l.33,1,.24.73c.17.54.34,1.09.52,1.64.06.22.13.44.2.66l.36,1.19c.08.25.15.51.23.76.13.44.26.88.38,1.32l.18.59c.16.59.33,1.19.5,1.79l.21.76c.11.43.23.86.35,1.3.06.25.13.49.19.74.17.63.34,1.28.5,1.93l.16.61c.12.5.25,1,.37,1.52.06.26.13.52.19.78l.39,1.68.12.5.48,2.13c.05.26.11.52.16.77.12.54.24,1.08.35,1.63l.15.74c.16.75.31,1.5.46,2.27l.12.63c.12.61.24,1.22.35,1.83,0,.28.1.55.16.83.12.69.25,1.38.37,2.08,0,.15.05.29.08.43.14.82.28,1.66.42,2.5,0,.27.09.55.13.82.11.66.21,1.32.31,2l.12.75c.13.87.26,1.76.39,2.65,0,.23.07.46.1.68l.3,2.17.12.89c.11.85.22,1.7.33,2.57,0,.11,0,.21,0,.32.11,1,.23,1.93.34,2.92,0,.29.07.59.1.89.09.78.17,1.56.26,2.35,0,.26.05.52.08.79.1,1,.21,2,.31,3.08l.06.74c.08.84.16,1.69.23,2.54l.09,1c.08,1,.17,2,.25,3.1a1.8,1.8,0,0,0,0,.22c.08,1.11.16,2.24.24,3.37,0,.33,0,.67.07,1,.06.91.12,1.82.18,2.75,0,.28,0,.56,0,.84.07,1.18.13,2.36.2,3.56,0,.27,0,.54,0,.81,0,1,.09,1.95.14,2.94,0,.36,0,.72,0,1.08.05,1.21.1,2.44.14,3.68,0,0,0,.07,0,.12,0,1.27.08,2.57.12,3.88l0,1.09c0,1.06.06,2.13.08,3.21,0,.3,0,.6,0,.9,0,1.34,0,2.7.07,4.07,0,.31,0,.62,0,.93,0,1.11,0,2.24,0,3.37,0,.4,0,.79,0,1.19,0,1.42,0,2.86,0,4.32,0,144-63,155-72,155-.9,0-1.81,0-2.72-.09l-.78-.06c-.78-.06-1.55-.13-2.33-.23l-1.09-.16c-.58-.08-1.17-.18-1.76-.29s-.93-.17-1.39-.27-.72-.16-1.08-.24c-1-.23-2-.48-3-.77l-.55-.15c-.65-.19-1.29-.39-1.94-.61h0a94.8,94.8,0,0,1-24.19-12.59h0c-54.75-38.13-107.18-134.34-107.18-145.53,0-14,70-215,124-306,22-66,39-174,220-174m0-25c-41.86,0-78.57,5.62-109.12,16.7-27.75,10.06-51.46,25-70.48,44.38-34.57,35.23-48,78.43-58.76,113.14-1.56,5-3.05,9.85-4.54,14.4-31.55,54-65.26,137.75-82.7,183.32-11.35,29.67-22.12,59.58-30.33,84.24-13.07,39.21-13.07,45-13.07,48.82,0,5.14.92,12.39,11.83,33.56a480.43,480.43,0,0,0,25.37,42.88C326.9,904,356,942.42,388.91,965.37l.21.14a119.76,119.76,0,0,0,30.55,15.74l.12,0c.82.27,1.66.53,2.56.8l.66.19.1,0c1.41.4,2.83.76,4.23,1.08l.14,0,1.4.31,2,.4c.8.14,1.65.28,2.58.42l.17,0,1.48.2c1.12.15,2.28.26,3.5.36l1.24.08c1.53.1,2.88.14,4.2.14,3.56,0,13.15-.61,25.45-6.24s23.66-14.6,33.32-26.49c25.37-31.19,38.23-80.74,38.23-147.27,0-1.51,0-3,0-4.48v-1.23c0-1.17,0-2.34,0-3.49v-1c0-1.42,0-2.83-.07-4.23l0-.6V790c0-1.13-.06-2.24-.09-3.34v-.21l0-.92c0-1.38-.08-2.73-.13-4.07v-.2c0-1.27-.09-2.52-.15-3.76l0-1.13q-.06-1.56-.15-3.09V773l0-.57c-.06-1.26-.13-2.5-.21-3.73l0-.61,0-.29c-.06-1-.12-1.93-.19-2.89l-.07-1c-.08-1.21-.17-2.4-.26-3.57l0-.23c-.08-1.11-.17-2.2-.26-3.28l-.09-1q-.12-1.37-.24-2.7l0-.26-.05-.52c-.1-1.11-.21-2.2-.32-3.28l-.07-.59,0-.26-.27-2.5-.11-1c-.12-1.05-.25-2.09-.37-3.12l0-.3v-.06c-.11-.91-.23-1.83-.35-2.75l-.13-1c-.1-.79-.21-1.56-.32-2.33l0-.25-.07-.47c-.14-1-.28-1.94-.42-2.88l-.09-.58,0-.23c-.11-.73-.22-1.44-.34-2.15v-.09l-.14-.81c-.15-.91-.3-1.82-.45-2.71l-.07-.35v-.1c-.14-.79-.28-1.54-.41-2.29l-.17-.9c-.13-.68-.25-1.34-.38-2l0-.23-.09-.47c-.16-.85-.33-1.67-.5-2.49l-.12-.61,0-.2c-.13-.61-.25-1.21-.38-1.8l0-.16-.16-.69c-.17-.79-.34-1.58-.52-2.35l-.1-.42,0-.13c-.14-.63-.29-1.25-.44-1.87l-.21-.86c-.13-.57-.27-1.13-.41-1.69l0-.17-.13-.5c-.19-.73-.37-1.45-.56-2.16l-.16-.61-.05-.2c-.14-.5-.27-1-.4-1.47l-.23-.83c-.19-.68-.37-1.35-.56-2l-.14-.49,0-.18c-.15-.49-.29-1-.43-1.47l-.26-.85c-.13-.45-.27-.89-.4-1.33l-.07-.2-.16-.53c-.19-.63-.39-1.24-.58-1.84l-.22-.69,0-.14c-.12-.38-.24-.76-.37-1.14l0-.12-.24-.74c-.17-.48-.33-1-.5-1.46l-.33-1-.38-1.09-.31-.88-.34-.94c-.16-.43-.31-.85-.46-1.27l-.4-1.08-.34-.92-.3-.78-.35-.92-.16-.42-.08-.19-.7-1.8,0-.06-.18-.45-.41-1-.12-.3,0-.09c-.47-1.18-.94-2.34-1.42-3.47l0,0c-1.23-3-2.43-5.74-3.58-8.42-2.49-5.77-4.64-10.75-6.33-15.72h0c-.26-.77-.51-1.54-.74-2.27h0v0h0c-.08-.25-.16-.51-.23-.77-.92-5-.25-22.55,0-30.07.15-4,.3-7.82.36-11a25,25,0,0,0-1.08-7.75c5.75-33.57,20.19-43.73,33.69-49.18,22.42-9,56.74-9,93.07-9h11.65c36.33,0,70.65,0,93.07,9,13.5,5.44,27.93,15.6,33.68,49.18a25,25,0,0,0-1.07,7.75c.06,3.17.2,7,.36,11,.29,7.52,1,25,0,30.07-.08.26-.15.52-.23.77v0c-.23.74-.48,1.5-.74,2.27-1.69,5-3.84,9.95-6.33,15.72-1.16,2.68-2.35,5.45-3.58,8.42l0,0h0c-.47,1.15-1,2.31-1.43,3.5l0,.07-.11.28-.42,1-.14.38-.05.12c-.24.59-.47,1.18-.7,1.78l-.06.16-.18.46-.29.77-.06.17-.3.77,0,.11-.3.81-.4,1.08c-.15.42-.31.84-.46,1.27l-.33.93-.32.89-.37,1.06-.35,1c-.16.49-.33,1-.49,1.47l-.24.73,0,.11c-.13.39-.25.76-.37,1.14l0,.1-.25.75c-.19.6-.38,1.2-.57,1.82l-.17.54-.06.2c-.13.44-.27.88-.4,1.33l-.26.85-.42,1.45-.06.18-.16.56-.54,1.94-.24.87c-.12.45-.26.94-.39,1.43l0,.21-.17.62c-.18.7-.37,1.41-.55,2.14l-.12.46,0,.22c-.14.58-.28,1.13-.42,1.7l-.2.84c-.15.63-.3,1.25-.44,1.88l0,.13-.1.42c-.18.77-.35,1.56-.53,2.35l-.17.79v.07c-.13.58-.26,1.18-.38,1.77l-.05.22-.13.62c-.16.8-.33,1.64-.49,2.48l-.1.47,0,.22c-.13.67-.25,1.33-.38,2l-.17.93c-.13.74-.27,1.49-.41,2.26l0,.12L745,725c-.15.9-.31,1.81-.46,2.72l-.13.85,0,.07c-.11.69-.22,1.4-.33,2.12l0,.23-.09.59c-.14.94-.28,1.89-.42,2.86l-.07.52,0,.23c-.1.76-.21,1.54-.32,2.32l-.12,1-.36,2.76v0l0,.3c-.13,1-.25,2.07-.37,3.13l-.11.93-.27,2.51,0,.28-.06.58-.33,3.28,0,.52,0,.26-.24,2.7-.09,1c-.09,1.07-.18,2.14-.26,3.24v0l0,.23c-.09,1.18-.17,2.37-.25,3.56l-.07,1c-.07,1-.13,2-.19,2.93l0,.28,0,.61c-.07,1.23-.14,2.47-.2,3.73l0,.55,0,.31-.15,3.08-.05,1.13c0,1.25-.1,2.51-.15,3.79v.22c0,1.29-.08,2.64-.12,4l0,1v.17c0,1.1-.05,2.22-.08,3.34V791c0,1.39,0,2.8-.07,4.22v1l0,3.48v1.24c0,1.47,0,3,0,4.47,0,66.53,12.87,116.08,38.23,147.27,9.67,11.89,20.88,20.8,33.33,26.49s21.89,6.24,25.44,6.24c1.33,0,2.68,0,4.24-.14l1.17-.08c1.26-.1,2.41-.21,3.56-.36l1.46-.2.14,0c1-.15,1.81-.29,2.64-.44l2-.39,1.4-.31.17,0c1.38-.32,2.8-.68,4.19-1.08l.11,0,.69-.2c.88-.26,1.71-.52,2.54-.79l.12,0a119.76,119.76,0,0,0,30.55-15.74l.17-.12c32.93-22.94,62-61.38,80.66-89.58a482.84,482.84,0,0,0,25.37-42.88c10.91-21.17,11.82-28.42,11.82-33.56,0-3.83,0-9.61-13.06-48.82-8.21-24.66-19-54.57-30.34-84.24C948.26,620.74,914.55,537,883,483c-1.49-4.55-3-9.36-4.55-14.4-10.77-34.71-24.19-77.91-58.75-113.14-19-19.39-42.73-34.32-70.48-44.38C718.67,300,682,294.37,640.09,294.37Z"/></svg>