<svg xmlns="http://www.w3.org/2000/svg" xmlns:xlink="http://www.w3.org/1999/xlink" viewBox="0 0 640 640"><defs><style>.cls-1{fill:url(#radial-gradient);}.cls-2{fill:#f7f7f7;}</style><radialGradient id="radial-gradient" cx="144.7" cy="146.62" r="349.13" gradientUnits="userSpaceOnUse"><stop offset="0.14" stop-color="#575b57"/><stop offset="0.96"/></radialGradient></defs><g id="Layer_1" data-name="Layer 1"><path class="cls-1" d="M475.12,326.15A127.37,127.37,0,0,0,449.56,307a30,30,0,0,0-31.62-1.72,29.51,29.51,0,0,1-12.37,2.86c-4.92,0-7.33-1.49-8.71-2.61-3.9-3.14-7.16-10-9.18-19.32a30,30,0,0,0-22.6-22.87c-74.25-17.06-90.38-25.11-126.77-87.82a30.32,30.32,0,0,0-5.64-7c-11.34-10.43-27.08-16.42-43.18-16.42h0c-22.61,0-40.67,12.33-46,31.41a30.7,30.7,0,0,0-.85,4.14c-4.85,36.55,8.25,81,38.95,132.2A523.06,523.06,0,0,0,221,376.42a71.93,71.93,0,0,0,6.54,17.77c10,18.72,27.67,30.18,49.16,32.09a173.93,173.93,0,0,0,22.33,28.27c22,22.28,48,34.06,75.29,34.06a101,101,0,0,0,64-22.63,106,106,0,0,0,16.2-16.19,100.83,100.83,0,0,0,17.36-13.08c17.3-16.28,26.44-36.72,26.44-59.1C498.36,359,490.33,341.22,475.12,326.15Z"/><path class="cls-2" d="M172.36,191.61c3.5-12.5,27.5-12.5,40-1,41.5,71.5,65.5,83.5,146,102,12.5,57.5,58.5,47.5,74,39-.5.5,36,17,36,46,0,34-34,49-34,49s-19.5,32-60,32c-52.5,0-79.5-62.5-81-63-42.5,7.5-44-32-44-32S162.86,263.11,172.36,191.61Z"/></g></svg>