<svg id="Layer_1" data-name="Layer 1" xmlns="http://www.w3.org/2000/svg" viewBox="0 0 1280 1280"><defs><style>.cls-1{fill:#372d2b;}.cls-2{fill:#998d89;}.cls-3{fill:#73655a;}.cls-4{fill:#a5b6bd;}</style></defs><path class="cls-1" d="M225,859s174,326,576,314c277,0,322-233,322-233L655,766Z"/><path class="cls-1" d="M1039,337c2-8,83-67,94-65s87,273,83,421c-10,189-113,344-165,330-40,0,17-264.41,22-383.2C1094,521,1037,345,1039,337Z"/><path class="cls-2" d="M647,212c459,0,571,798,447,880-265-3-319-222-533-222s-287,68-372,141C155,1024,64,810,64,685,64,488,263,212,647,212Z"/><path class="cls-3" d="M629,741c-194,22-279,196-395-34C156.75,553.83,338,351.89,467.79,234.06,201.28,303.28,64,521.38,64,685c0,125,91,339,125,326,85-73,158-141,372-141,128,0,198.73,78.32,291.61,141.92C831.28,912.17,772,724.79,629,741Z"/><path class="cls-4" d="M647,212a742.44,742.44,0,0,0-111.83,8.26C693.54,255.3,897.75,331,961,492c74.36,180.44,127.13,407.06,158.48,566.66C1197.52,885.63,1068.72,212,647,212Z"/><path class="cls-4" d="M156,627c-6-145,175-225,277-215s182,99,188,215c0,126-140,250-255,250S162,772,156,627Z"/><path d="M647,212c217.51,0,357.09,179.2,430.57,376.48,2-112.43-40.3-244.57-38.57-251.48,2-7.87,80.33-65.05,93.39-65.05a3.76,3.76,0,0,1,.61.05c11,2,87,273,83,421-5.43,102.7-38.33,195.36-75.58,256.32-3.18,71.59-19.05,124.58-46.42,142.68a440.14,440.14,0,0,1-56.6-4.2c-48.47,46.14-123,85.2-236.4,85.2-7.28.22-14.44.32-21.57.32-259.65,0-420.62-141.76-498.33-234.88C247.43,960.17,219,985.27,189,1011a8.67,8.67,0,0,1-3.12.57C149.76,1011.57,64,806.35,64,685c0-197,199-473,583-473m0-30c-94.83,0-183.72,16.26-264.2,48.33-72.75,29-137.37,70.25-192,122.63a557.18,557.18,0,0,0-67.95,78.38,517.93,517.93,0,0,0-49,84.1C47.78,572.08,34,630.71,34,685c0,58.27,18.49,140.4,49.45,219.7C97.22,940,112,970.65,126.11,993.43c8,12.88,15.47,22.76,22.86,30.21,11.8,11.89,24.22,17.93,36.91,17.93a38.53,38.53,0,0,0,13.83-2.55,29.9,29.9,0,0,0,8.84-5.26l6.87-5.91c20.3-17.47,39.76-34.21,60.61-49.49A717.57,717.57,0,0,0,335.45,1037a685.54,685.54,0,0,0,111.71,79.87c100.44,57.38,212.23,86.47,332.27,86.47,7.28,0,14.69-.11,22-.32,56.25,0,107.8-9.28,153.24-27.44a324,324,0,0,0,92.68-56.29c15.1,1.64,30.61,2.55,46.29,2.73h.34a30,30,0,0,0,16.55-5c19.27-12.74,34.18-35.35,44.32-67.2,8-25.15,13.09-55.9,15.13-91.51,19.25-32.86,36-71.61,48.79-112.59A620.31,620.31,0,0,0,1246,694.59l0-.78c2.38-88.26-21.92-208.79-36.63-272.78-9.4-40.93-19.88-80.72-29.51-112-4.54-14.76-8.6-26.69-12.07-35.45a115.23,115.23,0,0,0-5.64-12.46c-5.73-10.52-13.73-16.78-23.77-18.61a33.84,33.84,0,0,0-6-.53c-9.37,0-18.9,3.6-35.17,13.28-12,7.13-24.6,15.82-33.08,21.85-11.42,8.13-22.31,16.4-30.66,23.31-13.88,11.46-21,18.78-23.58,29.33-1.87,7.47-.73,13.89,1.1,22.14,1.09,4.95,2.64,11.33,4.61,19.4,2.87,11.76,6.56,26.87,10.4,44.23-26.88-42.26-56.69-79.45-88.77-110.72-39.65-38.64-83.18-68.62-129.37-89.11C757.52,193.32,703.4,182,647,182Z"/></svg>