<svg xmlns="http://www.w3.org/2000/svg" viewBox="0 0 1280 1280"><defs><style>.cls-1{fill:#476c49;}.cls-2{fill:#4b714d;}.cls-3{fill:#517852;}.cls-4{fill:#557d57;}</style></defs><g id="Layer_1" data-name="Layer 1"><polygon points="154.98 995.35 154.98 701.07 377.28 701.07 377.28 456.78 597.13 456.78 597.13 219.83 1037.98 219.83 1037.98 995.35 154.98 995.35"/><path d="M1013,244.83V970.35H180V726.06h222.3V481.78H622.13V244.83H1013m50-50H572.13V431.78H352.28V676.06H130v344.29h933V194.83Z"/><rect class="cls-1" x="622.13" y="243.61" width="390.85" height="255.27"/><rect class="cls-2" x="402.28" y="480.56" width="610.7" height="287.03"/><rect class="cls-3" x="179.98" y="724.84" width="833" height="244.28"/><rect class="cls-4" x="181.2" y="724.84" width="365.2" height="244.28"/><rect class="cls-4" x="574.5" y="724.84" width="438.49" height="244.28"/><rect class="cls-4" x="402.28" y="480.56" width="315.12" height="211.3"/><rect class="cls-4" x="739.39" y="480.56" width="273.6" height="211.3"/><rect class="cls-4" x="622.13" y="243.61" width="390.85" height="211.3"/></g></svg>