<svg xmlns="http://www.w3.org/2000/svg" viewBox="0 0 1280 1280"><defs><style>.cls-1{fill:#666;}.cls-2{fill:#222;}.cls-3{fill:#423431;}.cls-4{fill:#919191;}.cls-5{fill:#706257;}.cls-6{fill:#8c796b;}.cls-7{fill:#9c9284;}.cls-8{fill:#73655a;}.cls-9{fill:#a5b6bd;}.cls-10{fill:#696969;}</style></defs><g id="Layer_1" data-name="Layer 1"><path d="M190.39,992.11l-3.86-9.2C170.5,944.7,123.6,840.23,99.38,816L95,811.59l.52-154.48L95,502.63l4.42-4.41C123.6,474,170.5,369.52,186.53,331.31l3.86-9.2H546.24v15c0,43.5,65.2,88.86,94.25,105h69.22l18.94,37.5H935.48v-18h177v18h35v352h-35v21H719.56l-9.85,19.5H640.49c-29,16.14-94.25,61.5-94.25,105v15Z"/><path d="M531.24,337.11c0,64.27,105.44,120,105.44,120h63.8l18.94,37.5H950.48v-18h147v18h35v322h-35v21H710.33l-9.85,19.5h-63.8s-105.44,55.73-105.44,120H200.36S141.62,837,110,805.39l.5-148.28L110,508.82c31.64-31.63,90.38-171.71,90.38-171.71H531.24m30-30H180.41l-7.72,18.4c-23.45,55.92-65,143.18-83.92,162.1l-8.83,8.83,0,12.49.5,148.18L80,805.29l0,12.49,8.83,8.83c18.92,18.92,60.47,106.18,83.92,162.1l7.72,18.4H561.24v-30c0-16.67,14.63-38.14,41.2-60.45a319.49,319.49,0,0,1,42.13-29.55h74.37l8.32-16.48,1.53-3h398.69v-21h35v-382h-35v-18h-207v18H737.88l-10.62-21-8.32-16.48H644.57a320.83,320.83,0,0,1-42.13-29.55c-26.57-22.31-41.2-43.78-41.2-60.45v-30Z"/><polygon class="cls-1" points="1132.48 494.61 1097.48 494.61 1097.48 476.61 950.48 476.61 950.48 494.61 898.48 494.61 698.48 494.61 698.48 837.61 1097.48 837.61 1097.48 816.61 1132.48 816.61 1132.48 494.61"/><path class="cls-2" d="M1117,766.11c-31,0-29,0-36,19H957c-5,0-2-8-6-19H902c-23,0-62,31-62,31H706v40.5h391.5v-21h35v-50.5Z"/><rect class="cls-3" x="688.48" y="815.61" width="269" height="22"/><path class="cls-4" d="M1132.48,541.61h-286c-81,0-113,25-113,25l27,52c94.68-40.59,148-23,148-23-131,30-188,144-188,144,110,0,141-24,141-24h271Z"/><path class="cls-5" d="M110.48,657.11h691l-101,200h-63.8s-105.44,55.73-105.44,120H200.36S141.62,837,110,805.39Z"/><path class="cls-5" d="M110.48,657.11h691l-101-200h-63.8s-105.44-55.73-105.44-120H200.36S141.62,477.19,110,508.82Z"/><path class="cls-6" d="M110.48,657.11h691l-101-200h-63.8s-105.44-55.73-105.44-120H200.36S141.62,477.19,110,508.82Z"/><path class="cls-3" d="M751.48,701.11c-37.54,37.54-88.19,147.82-91.92,156H701l87.37-173C762.52,687.89,751.48,701.11,751.48,701.11Z"/><path class="cls-3" d="M634.48,857.11c-92,0-131.21,86.54-142.94,120h40.2c0-63.17,101.85-118.09,105.34-120Z"/><path class="cls-7" d="M153,657.11l.29,100.26s81.58,142.76,81.58,154.74H450.48c0-18,12-42.93,23-42.93,29.95,0,212.08-78.73,212.08-212.07Z"/><path class="cls-3" d="M751.48,613.11c-37.54-37.55-88.19-147.82-91.92-156H701l87.37,173C762.52,626.33,751.48,613.11,751.48,613.11Z"/><path class="cls-3" d="M634.48,457.11c-92,0-131.21-86.54-142.94-120h40.2c0,63.17,101.85,118.08,105.34,120Z"/><path class="cls-7" d="M153,657.11l.29-100.26s81.58-142.76,81.58-154.74H450.48c0,18,12,42.93,23,42.93,29.95,0,212.08,78.72,212.08,212.07Z"/><circle class="cls-8" cx="430.48" cy="655.61" r="161"/><path class="cls-8" d="M554.48,715.11h116s135,1,135-59l-249.28,1Z"/><path class="cls-9" d="M261.27,657.11H347v-41H276S261.27,629.11,261.27,657.11Z"/><path class="cls-8" d="M554.48,599.11h116s135-1,135,59l-249.28-1Z"/><path class="cls-9" d="M526,628.11H638c56,0,73,29,73,29H526Z"/><circle class="cls-9" cx="430.48" cy="655.61" r="106"/><circle class="cls-10" cx="430.48" cy="655.61" r="73"/><circle class="cls-4" cx="430.48" cy="655.61" r="51"/><path class="cls-9" d="M261.27,657.11H347v41H276S261.27,685.11,261.27,657.11Z"/><path class="cls-9" d="M526,686.11H638c56,0,73-29,73-29H526Z"/></g></svg>