<svg id="Layer_1" data-name="Layer 1" xmlns="http://www.w3.org/2000/svg" xmlns:xlink="http://www.w3.org/1999/xlink" viewBox="0 0 1280 1280"><defs><style>.cls-1{opacity:0.5;}.cls-2{fill:#424142;}.cls-3{fill:url(#linear-gradient);}.cls-4{fill:#4f4436;}.cls-5{fill:#565656;}.cls-6{fill:url(#linear-gradient-2);}.cls-7{fill:#232323;}.cls-8{fill:none;stroke:#313031;stroke-linecap:round;stroke-linejoin:round;stroke-width:33.52px;}</style><linearGradient id="linear-gradient" x1="653.91" y1="104.74" x2="653.91" y2="491.66" gradientUnits="userSpaceOnUse"><stop offset="0.29" stop-color="#565656"/><stop offset="0.36" stop-color="#505050"/><stop offset="0.75" stop-color="#313031"/></linearGradient><linearGradient id="linear-gradient-2" x1="653.91" y1="906.52" x2="653.91" y2="1225" gradientUnits="userSpaceOnUse"><stop offset="0.13" stop-color="#3c3b3c"/><stop offset="0.78" stop-color="#313031"/></linearGradient></defs><g class="cls-1"><path class="cls-2" d="M821.54,308.67c-19,0-144.16,0-144.16,190S804.77,687.49,821.54,687.49s144.15,1.12,144.15-188.85S840.53,308.67,821.54,308.67Z"/></g><g class="cls-1"><path class="cls-2" d="M485.18,308.67c-19,0-144.16,0-144.16,190S468.41,687.49,485.18,687.49s144.15,1.12,144.15-188.85S504.17,308.67,485.18,308.67Z"/></g><path class="cls-3" d="M980.17,233.1C933.4,161,861.53,55,653.91,55S374.43,161,327.66,233.1s-39.93,103.7-39.93,209.66c0,234.46,366.18,582.77,366.18,582.77S1020.1,677.22,1020.1,442.76C1020.1,336.8,1026.94,305.24,980.17,233.1ZM485.29,687.49h-.22c-17.19,0-144,.72-144-188.85,0-190,125.16-190,144.16-190s144.15,0,144.15,190C629.33,688.21,502.47,687.5,485.29,687.49Zm336.36,0h-.22c-17.19,0-144,.72-144-188.85,0-190,125.16-190,144.16-190s144.15,0,144.15,190C965.69,688.21,838.83,687.5,821.65,687.49Z"/><path class="cls-4" d="M421.48,927.75c26.82,0,15.46-176.56,229.55-176.56S870.71,927.75,886.35,927.75Z"/><path class="cls-5" d="M653.91,799.24c-153.09,0-241.37,80.46-241.37,134.1v154.21c0,31.29,45.82,137.45,241.37,137.45s241.38-106.16,241.38-137.45V933.34C895.29,879.7,807,799.24,653.91,799.24Z"/><path class="cls-6" d="M895.29,1087.55v-56.61c-47-74.21-137.25-124.42-240.82-124.42-104.38,0-195.2,51-241.93,126.18v54.85c0,31.29,45.82,137.45,241.37,137.45S895.29,1118.84,895.29,1087.55Z"/><ellipse class="cls-7" cx="654.47" cy="1070.79" rx="74.31" ry="51.36"/><path class="cls-8" d="M821.54,308.67c-19,0-144.16,0-144.16,190S804.77,687.49,821.54,687.49s144.15,1.12,144.15-188.85S840.53,308.67,821.54,308.67Z"/><path class="cls-8" d="M485.18,308.67c-19,0-144.16,0-144.16,190S468.41,687.49,485.18,687.49s144.15,1.12,144.15-188.85S504.17,308.67,485.18,308.67Z"/><path d="M653.92,55C861.53,55,933.4,161,980.17,233.1s39.93,103.7,39.93,209.66c0,118.73-93.91,266.65-186.61,383.76a218.44,218.44,0,0,1,25.78,40.81c23.6,22,36,45.89,36,66v154.21c0,31.29-45.82,137.45-241.37,137.45s-241.38-106.16-241.38-137.45V933.34c0-21.46,14.14-47.2,40.88-70.37a213.61,213.61,0,0,1,21.14-36.17c-92.77-117.15-186.83-265.21-186.83-384,0-106-6.84-137.52,39.93-209.66S446.3,55,653.92,55m0-33.52c-52,0-99.64,6.43-141.68,19.11C475,51.83,440.93,68.35,411,89.71,354.57,130,321.45,181.06,299.53,214.86,253,286.67,253.32,327,254,407.44c.1,11.09.2,22.56.2,35.32,0,31.76,6,66.67,17.71,103.78,10.33,32.62,25.4,67.78,44.79,104.52,29.05,55,68.27,114.68,116.75,177.59q-3.81,6.65-7.36,13.8c-13.46,12.47-24.29,25.8-32.24,39.69C384,899.35,379,916.57,379,933.34v154.21c0,14.72,4.93,32.46,13.9,50,10.45,20.41,26.11,39.8,45.29,56.06,23.32,19.79,51.93,35.34,85,46.2,37.89,12.45,81.85,18.75,130.68,18.75s92.78-6.3,130.67-18.75c33.1-10.86,61.7-26.41,85-46.2,19.18-16.26,34.84-35.65,45.29-56.06,9-17.5,13.9-35.24,13.9-50V933.34c0-28.78-14.93-59.21-42.19-86.23-3.57-6.88-7.33-13.42-11.31-19.69,48.1-62.52,87-121.81,115.9-176.53,19.37-36.71,34.42-71.84,44.73-104.43,11.73-37.08,17.68-72,17.68-103.7,0-12.76.1-24.23.2-35.32.69-80.41,1-120.77-45.52-192.58-21.92-33.8-55-84.89-111.47-125.15-29.93-21.36-64-37.88-101.24-49.12-42-12.68-89.71-19.11-141.67-19.11Z"/></svg>